ISO-10303-21;
HEADER;
/* Generated by software containing ST-Developer
 * from STEP Tools, Inc. (www.steptools.com) 
 */

FILE_DESCRIPTION(
/* description */ (''),
/* implementation_level */ '2;1');

FILE_NAME(
/* name */ 'AgriRover_Armupperlink.step',
/* time_stamp */ '2026-09-20T16:24:59+05:30',
/* author */ (''),
/* organization */ (''),
/* preprocessor_version */ 'ST-DEVELOPER v20.1',
/* originating_system */ 'Autodesk Translation Framework v15.8.0.0',
/* authorisation */ '');

FILE_SCHEMA (('AUTOMOTIVE_DESIGN { 1 0 10303 214 3 1 1 }'));
ENDSEC;

DATA;
#10=MECHANICAL_DESIGN_GEOMETRIC_PRESENTATION_REPRESENTATION('',(#13),#767);
#11=SHAPE_REPRESENTATION_RELATIONSHIP('SRR','None',#774,#12);
#12=ADVANCED_BREP_SHAPE_REPRESENTATION('',(#14),#766);
#13=STYLED_ITEM('',(#783),#14);
#14=MANIFOLD_SOLID_BREP('Body1',#459);
#15=CYLINDRICAL_SURFACE('',#487,3.00000004470348);
#16=CYLINDRICAL_SURFACE('',#490,3.00000004470348);
#17=CYLINDRICAL_SURFACE('',#492,3.);
#18=CYLINDRICAL_SURFACE('',#495,3.);
#19=CYLINDRICAL_SURFACE('',#497,12.5);
#20=CYLINDRICAL_SURFACE('',#501,12.5);
#21=CYLINDRICAL_SURFACE('',#503,12.5);
#22=CYLINDRICAL_SURFACE('',#506,12.5);
#23=CIRCLE('',#478,12.5);
#24=CIRCLE('',#479,3.);
#25=CIRCLE('',#485,12.5);
#26=CIRCLE('',#486,3.00000004470348);
#27=CIRCLE('',#488,3.00000004470348);
#28=CIRCLE('',#489,3.00000004470348);
#29=CIRCLE('',#491,3.00000004470348);
#30=CIRCLE('',#493,3.);
#31=CIRCLE('',#494,3.);
#32=CIRCLE('',#496,3.);
#33=CIRCLE('',#498,12.5);
#34=CIRCLE('',#499,12.5);
#35=CIRCLE('',#502,12.5);
#36=CIRCLE('',#504,12.5);
#37=CIRCLE('',#505,12.5);
#38=CIRCLE('',#507,12.5);
#39=FACE_BOUND('',#72,.T.);
#40=FACE_BOUND('',#77,.T.);
#41=FACE_BOUND('',#83,.T.);
#42=FACE_BOUND('',#94,.T.);
#43=FACE_BOUND('',#96,.T.);
#44=FACE_BOUND('',#98,.T.);
#45=FACE_BOUND('',#99,.T.);
#46=FACE_BOUND('',#101,.T.);
#47=FACE_BOUND('',#102,.T.);
#48=FACE_OUTER_BOUND('',#71,.T.);
#49=FACE_OUTER_BOUND('',#73,.T.);
#50=FACE_OUTER_BOUND('',#74,.T.);
#51=FACE_OUTER_BOUND('',#75,.T.);
#52=FACE_OUTER_BOUND('',#76,.T.);
#53=FACE_OUTER_BOUND('',#78,.T.);
#54=FACE_OUTER_BOUND('',#79,.T.);
#55=FACE_OUTER_BOUND('',#80,.T.);
#56=FACE_OUTER_BOUND('',#81,.T.);
#57=FACE_OUTER_BOUND('',#82,.T.);
#58=FACE_OUTER_BOUND('',#84,.T.);
#59=FACE_OUTER_BOUND('',#85,.T.);
#60=FACE_OUTER_BOUND('',#86,.T.);
#61=FACE_OUTER_BOUND('',#87,.T.);
#62=FACE_OUTER_BOUND('',#88,.T.);
#63=FACE_OUTER_BOUND('',#89,.T.);
#64=FACE_OUTER_BOUND('',#90,.T.);
#65=FACE_OUTER_BOUND('',#91,.T.);
#66=FACE_OUTER_BOUND('',#92,.T.);
#67=FACE_OUTER_BOUND('',#93,.T.);
#68=FACE_OUTER_BOUND('',#95,.T.);
#69=FACE_OUTER_BOUND('',#97,.T.);
#70=FACE_OUTER_BOUND('',#100,.T.);
#71=EDGE_LOOP('',(#297,#298,#299,#300,#301,#302,#303,#304,#305,#306,#307,
#308));
#72=EDGE_LOOP('',(#309,#310,#311,#312));
#73=EDGE_LOOP('',(#313,#314,#315,#316));
#74=EDGE_LOOP('',(#317,#318,#319,#320));
#75=EDGE_LOOP('',(#321,#322,#323,#324));
#76=EDGE_LOOP('',(#325,#326,#327,#328));
#77=EDGE_LOOP('',(#329));
#78=EDGE_LOOP('',(#330,#331,#332,#333));
#79=EDGE_LOOP('',(#334,#335,#336,#337));
#80=EDGE_LOOP('',(#338,#339,#340,#341));
#81=EDGE_LOOP('',(#342,#343,#344,#345));
#82=EDGE_LOOP('',(#346,#347,#348,#349));
#83=EDGE_LOOP('',(#350));
#84=EDGE_LOOP('',(#351,#352,#353,#354));
#85=EDGE_LOOP('',(#355,#356,#357,#358));
#86=EDGE_LOOP('',(#359,#360,#361,#362));
#87=EDGE_LOOP('',(#363,#364,#365,#366));
#88=EDGE_LOOP('',(#367,#368,#369,#370));
#89=EDGE_LOOP('',(#371,#372,#373,#374,#375,#376,#377,#378,#379,#380,#381,
#382,#383,#384,#385,#386));
#90=EDGE_LOOP('',(#387,#388,#389,#390));
#91=EDGE_LOOP('',(#391,#392,#393,#394));
#92=EDGE_LOOP('',(#395,#396,#397,#398));
#93=EDGE_LOOP('',(#399,#400,#401,#402));
#94=EDGE_LOOP('',(#403));
#95=EDGE_LOOP('',(#404,#405,#406,#407));
#96=EDGE_LOOP('',(#408));
#97=EDGE_LOOP('',(#409,#410,#411,#412));
#98=EDGE_LOOP('',(#413));
#99=EDGE_LOOP('',(#414));
#100=EDGE_LOOP('',(#415,#416,#417,#418));
#101=EDGE_LOOP('',(#419));
#102=EDGE_LOOP('',(#420));
#103=LINE('',#642,#149);
#104=LINE('',#644,#150);
#105=LINE('',#646,#151);
#106=LINE('',#648,#152);
#107=LINE('',#650,#153);
#108=LINE('',#652,#154);
#109=LINE('',#654,#155);
#110=LINE('',#656,#156);
#111=LINE('',#658,#157);
#112=LINE('',#660,#158);
#113=LINE('',#662,#159);
#114=LINE('',#663,#160);
#115=LINE('',#666,#161);
#116=LINE('',#668,#162);
#117=LINE('',#670,#163);
#118=LINE('',#671,#164);
#119=LINE('',#674,#165);
#120=LINE('',#676,#166);
#121=LINE('',#677,#167);
#122=LINE('',#680,#168);
#123=LINE('',#682,#169);
#124=LINE('',#683,#170);
#125=LINE('',#686,#171);
#126=LINE('',#687,#172);
#127=LINE('',#691,#173);
#128=LINE('',#696,#174);
#129=LINE('',#697,#175);
#130=LINE('',#699,#176);
#131=LINE('',#702,#177);
#132=LINE('',#704,#178);
#133=LINE('',#705,#179);
#134=LINE('',#707,#180);
#135=LINE('',#708,#181);
#136=LINE('',#712,#182);
#137=LINE('',#719,#183);
#138=LINE('',#724,#184);
#139=LINE('',#729,#185);
#140=LINE('',#733,#186);
#141=LINE('',#739,#187);
#142=LINE('',#743,#188);
#143=LINE('',#744,#189);
#144=LINE('',#745,#190);
#145=LINE('',#747,#191);
#146=LINE('',#749,#192);
#147=LINE('',#751,#193);
#148=LINE('',#752,#194);
#149=VECTOR('',#516,10.);
#150=VECTOR('',#517,10.);
#151=VECTOR('',#518,10.);
#152=VECTOR('',#519,10.);
#153=VECTOR('',#520,10.);
#154=VECTOR('',#521,10.);
#155=VECTOR('',#522,10.);
#156=VECTOR('',#523,10.);
#157=VECTOR('',#524,10.);
#158=VECTOR('',#525,10.);
#159=VECTOR('',#526,10.);
#160=VECTOR('',#527,10.);
#161=VECTOR('',#528,10.);
#162=VECTOR('',#529,10.);
#163=VECTOR('',#530,10.);
#164=VECTOR('',#531,10.);
#165=VECTOR('',#534,10.);
#166=VECTOR('',#535,10.);
#167=VECTOR('',#536,10.);
#168=VECTOR('',#539,10.);
#169=VECTOR('',#540,10.);
#170=VECTOR('',#541,10.);
#171=VECTOR('',#544,10.);
#172=VECTOR('',#545,10.);
#173=VECTOR('',#550,10.);
#174=VECTOR('',#555,10.);
#175=VECTOR('',#556,10.);
#176=VECTOR('',#559,10.);
#177=VECTOR('',#562,10.);
#178=VECTOR('',#563,10.);
#179=VECTOR('',#564,10.);
#180=VECTOR('',#567,10.);
#181=VECTOR('',#568,10.);
#182=VECTOR('',#573,10.);
#183=VECTOR('',#580,3.00000004470348);
#184=VECTOR('',#587,3.00000004470348);
#185=VECTOR('',#592,3.);
#186=VECTOR('',#597,3.);
#187=VECTOR('',#604,10.);
#188=VECTOR('',#609,10.);
#189=VECTOR('',#610,10.);
#190=VECTOR('',#611,10.);
#191=VECTOR('',#612,10.);
#192=VECTOR('',#613,10.);
#193=VECTOR('',#614,10.);
#194=VECTOR('',#615,10.);
#195=VERTEX_POINT('',#640);
#196=VERTEX_POINT('',#641);
#197=VERTEX_POINT('',#643);
#198=VERTEX_POINT('',#645);
#199=VERTEX_POINT('',#647);
#200=VERTEX_POINT('',#649);
#201=VERTEX_POINT('',#651);
#202=VERTEX_POINT('',#653);
#203=VERTEX_POINT('',#655);
#204=VERTEX_POINT('',#657);
#205=VERTEX_POINT('',#659);
#206=VERTEX_POINT('',#661);
#207=VERTEX_POINT('',#664);
#208=VERTEX_POINT('',#665);
#209=VERTEX_POINT('',#667);
#210=VERTEX_POINT('',#669);
#211=VERTEX_POINT('',#673);
#212=VERTEX_POINT('',#675);
#213=VERTEX_POINT('',#679);
#214=VERTEX_POINT('',#681);
#215=VERTEX_POINT('',#685);
#216=VERTEX_POINT('',#689);
#217=VERTEX_POINT('',#692);
#218=VERTEX_POINT('',#695);
#219=VERTEX_POINT('',#701);
#220=VERTEX_POINT('',#703);
#221=VERTEX_POINT('',#710);
#222=VERTEX_POINT('',#713);
#223=VERTEX_POINT('',#716);
#224=VERTEX_POINT('',#718);
#225=VERTEX_POINT('',#722);
#226=VERTEX_POINT('',#726);
#227=VERTEX_POINT('',#728);
#228=VERTEX_POINT('',#732);
#229=VERTEX_POINT('',#736);
#230=VERTEX_POINT('',#738);
#231=VERTEX_POINT('',#742);
#232=VERTEX_POINT('',#746);
#233=VERTEX_POINT('',#748);
#234=VERTEX_POINT('',#750);
#235=EDGE_CURVE('',#195,#196,#103,.T.);
#236=EDGE_CURVE('',#195,#197,#104,.T.);
#237=EDGE_CURVE('',#197,#198,#105,.T.);
#238=EDGE_CURVE('',#199,#198,#106,.T.);
#239=EDGE_CURVE('',#200,#199,#107,.T.);
#240=EDGE_CURVE('',#200,#201,#108,.T.);
#241=EDGE_CURVE('',#201,#202,#109,.T.);
#242=EDGE_CURVE('',#202,#203,#110,.T.);
#243=EDGE_CURVE('',#204,#203,#111,.T.);
#244=EDGE_CURVE('',#205,#204,#112,.T.);
#245=EDGE_CURVE('',#205,#206,#113,.T.);
#246=EDGE_CURVE('',#206,#196,#114,.T.);
#247=EDGE_CURVE('',#207,#208,#115,.T.);
#248=EDGE_CURVE('',#209,#208,#116,.T.);
#249=EDGE_CURVE('',#209,#210,#117,.T.);
#250=EDGE_CURVE('',#210,#207,#118,.T.);
#251=EDGE_CURVE('',#207,#211,#119,.T.);
#252=EDGE_CURVE('',#212,#211,#120,.T.);
#253=EDGE_CURVE('',#212,#208,#121,.T.);
#254=EDGE_CURVE('',#195,#213,#122,.T.);
#255=EDGE_CURVE('',#214,#196,#123,.T.);
#256=EDGE_CURVE('',#213,#214,#124,.T.);
#257=EDGE_CURVE('',#215,#210,#125,.T.);
#258=EDGE_CURVE('',#215,#211,#126,.T.);
#259=EDGE_CURVE('',#216,#206,#23,.T.);
#260=EDGE_CURVE('',#214,#216,#127,.T.);
#261=EDGE_CURVE('',#217,#217,#24,.T.);
#262=EDGE_CURVE('',#215,#218,#128,.T.);
#263=EDGE_CURVE('',#209,#218,#129,.T.);
#264=EDGE_CURVE('',#218,#212,#130,.T.);
#265=EDGE_CURVE('',#218,#219,#131,.T.);
#266=EDGE_CURVE('',#220,#212,#132,.T.);
#267=EDGE_CURVE('',#219,#220,#133,.T.);
#268=EDGE_CURVE('',#219,#201,#134,.T.);
#269=EDGE_CURVE('',#202,#220,#135,.T.);
#270=EDGE_CURVE('',#221,#200,#25,.T.);
#271=EDGE_CURVE('',#219,#221,#136,.T.);
#272=EDGE_CURVE('',#222,#222,#26,.T.);
#273=EDGE_CURVE('',#223,#223,#27,.T.);
#274=EDGE_CURVE('',#223,#224,#137,.T.);
#275=EDGE_CURVE('',#224,#224,#28,.T.);
#276=EDGE_CURVE('',#225,#225,#29,.T.);
#277=EDGE_CURVE('',#225,#222,#138,.T.);
#278=EDGE_CURVE('',#226,#226,#30,.T.);
#279=EDGE_CURVE('',#226,#227,#139,.T.);
#280=EDGE_CURVE('',#227,#227,#31,.T.);
#281=EDGE_CURVE('',#217,#228,#140,.T.);
#282=EDGE_CURVE('',#228,#228,#32,.T.);
#283=EDGE_CURVE('',#197,#229,#33,.T.);
#284=EDGE_CURVE('',#229,#230,#141,.T.);
#285=EDGE_CURVE('',#198,#230,#34,.T.);
#286=EDGE_CURVE('',#221,#231,#142,.T.);
#287=EDGE_CURVE('',#230,#231,#143,.T.);
#288=EDGE_CURVE('',#229,#213,#144,.T.);
#289=EDGE_CURVE('',#232,#216,#145,.T.);
#290=EDGE_CURVE('',#233,#232,#146,.T.);
#291=EDGE_CURVE('',#233,#234,#147,.T.);
#292=EDGE_CURVE('',#234,#220,#148,.T.);
#293=EDGE_CURVE('',#205,#232,#35,.T.);
#294=EDGE_CURVE('',#203,#234,#36,.T.);
#295=EDGE_CURVE('',#233,#204,#37,.T.);
#296=EDGE_CURVE('',#231,#199,#38,.T.);
#297=ORIENTED_EDGE('',*,*,#235,.F.);
#298=ORIENTED_EDGE('',*,*,#236,.T.);
#299=ORIENTED_EDGE('',*,*,#237,.T.);
#300=ORIENTED_EDGE('',*,*,#238,.F.);
#301=ORIENTED_EDGE('',*,*,#239,.F.);
#302=ORIENTED_EDGE('',*,*,#240,.T.);
#303=ORIENTED_EDGE('',*,*,#241,.T.);
#304=ORIENTED_EDGE('',*,*,#242,.T.);
#305=ORIENTED_EDGE('',*,*,#243,.F.);
#306=ORIENTED_EDGE('',*,*,#244,.F.);
#307=ORIENTED_EDGE('',*,*,#245,.T.);
#308=ORIENTED_EDGE('',*,*,#246,.T.);
#309=ORIENTED_EDGE('',*,*,#247,.T.);
#310=ORIENTED_EDGE('',*,*,#248,.F.);
#311=ORIENTED_EDGE('',*,*,#249,.T.);
#312=ORIENTED_EDGE('',*,*,#250,.T.);
#313=ORIENTED_EDGE('',*,*,#247,.F.);
#314=ORIENTED_EDGE('',*,*,#251,.T.);
#315=ORIENTED_EDGE('',*,*,#252,.F.);
#316=ORIENTED_EDGE('',*,*,#253,.T.);
#317=ORIENTED_EDGE('',*,*,#254,.F.);
#318=ORIENTED_EDGE('',*,*,#235,.T.);
#319=ORIENTED_EDGE('',*,*,#255,.F.);
#320=ORIENTED_EDGE('',*,*,#256,.F.);
#321=ORIENTED_EDGE('',*,*,#257,.F.);
#322=ORIENTED_EDGE('',*,*,#258,.T.);
#323=ORIENTED_EDGE('',*,*,#251,.F.);
#324=ORIENTED_EDGE('',*,*,#250,.F.);
#325=ORIENTED_EDGE('',*,*,#255,.T.);
#326=ORIENTED_EDGE('',*,*,#246,.F.);
#327=ORIENTED_EDGE('',*,*,#259,.F.);
#328=ORIENTED_EDGE('',*,*,#260,.F.);
#329=ORIENTED_EDGE('',*,*,#261,.T.);
#330=ORIENTED_EDGE('',*,*,#262,.F.);
#331=ORIENTED_EDGE('',*,*,#257,.T.);
#332=ORIENTED_EDGE('',*,*,#249,.F.);
#333=ORIENTED_EDGE('',*,*,#263,.T.);
#334=ORIENTED_EDGE('',*,*,#263,.F.);
#335=ORIENTED_EDGE('',*,*,#248,.T.);
#336=ORIENTED_EDGE('',*,*,#253,.F.);
#337=ORIENTED_EDGE('',*,*,#264,.F.);
#338=ORIENTED_EDGE('',*,*,#265,.F.);
#339=ORIENTED_EDGE('',*,*,#264,.T.);
#340=ORIENTED_EDGE('',*,*,#266,.F.);
#341=ORIENTED_EDGE('',*,*,#267,.F.);
#342=ORIENTED_EDGE('',*,*,#268,.F.);
#343=ORIENTED_EDGE('',*,*,#267,.T.);
#344=ORIENTED_EDGE('',*,*,#269,.F.);
#345=ORIENTED_EDGE('',*,*,#241,.F.);
#346=ORIENTED_EDGE('',*,*,#268,.T.);
#347=ORIENTED_EDGE('',*,*,#240,.F.);
#348=ORIENTED_EDGE('',*,*,#270,.F.);
#349=ORIENTED_EDGE('',*,*,#271,.F.);
#350=ORIENTED_EDGE('',*,*,#272,.T.);
#351=ORIENTED_EDGE('',*,*,#273,.F.);
#352=ORIENTED_EDGE('',*,*,#274,.T.);
#353=ORIENTED_EDGE('',*,*,#275,.F.);
#354=ORIENTED_EDGE('',*,*,#274,.F.);
#355=ORIENTED_EDGE('',*,*,#276,.F.);
#356=ORIENTED_EDGE('',*,*,#277,.T.);
#357=ORIENTED_EDGE('',*,*,#272,.F.);
#358=ORIENTED_EDGE('',*,*,#277,.F.);
#359=ORIENTED_EDGE('',*,*,#278,.F.);
#360=ORIENTED_EDGE('',*,*,#279,.T.);
#361=ORIENTED_EDGE('',*,*,#280,.F.);
#362=ORIENTED_EDGE('',*,*,#279,.F.);
#363=ORIENTED_EDGE('',*,*,#261,.F.);
#364=ORIENTED_EDGE('',*,*,#281,.T.);
#365=ORIENTED_EDGE('',*,*,#282,.F.);
#366=ORIENTED_EDGE('',*,*,#281,.F.);
#367=ORIENTED_EDGE('',*,*,#283,.T.);
#368=ORIENTED_EDGE('',*,*,#284,.T.);
#369=ORIENTED_EDGE('',*,*,#285,.F.);
#370=ORIENTED_EDGE('',*,*,#237,.F.);
#371=ORIENTED_EDGE('',*,*,#252,.T.);
#372=ORIENTED_EDGE('',*,*,#258,.F.);
#373=ORIENTED_EDGE('',*,*,#262,.T.);
#374=ORIENTED_EDGE('',*,*,#265,.T.);
#375=ORIENTED_EDGE('',*,*,#271,.T.);
#376=ORIENTED_EDGE('',*,*,#286,.T.);
#377=ORIENTED_EDGE('',*,*,#287,.F.);
#378=ORIENTED_EDGE('',*,*,#284,.F.);
#379=ORIENTED_EDGE('',*,*,#288,.T.);
#380=ORIENTED_EDGE('',*,*,#256,.T.);
#381=ORIENTED_EDGE('',*,*,#260,.T.);
#382=ORIENTED_EDGE('',*,*,#289,.F.);
#383=ORIENTED_EDGE('',*,*,#290,.F.);
#384=ORIENTED_EDGE('',*,*,#291,.T.);
#385=ORIENTED_EDGE('',*,*,#292,.T.);
#386=ORIENTED_EDGE('',*,*,#266,.T.);
#387=ORIENTED_EDGE('',*,*,#259,.T.);
#388=ORIENTED_EDGE('',*,*,#245,.F.);
#389=ORIENTED_EDGE('',*,*,#293,.T.);
#390=ORIENTED_EDGE('',*,*,#289,.T.);
#391=ORIENTED_EDGE('',*,*,#294,.T.);
#392=ORIENTED_EDGE('',*,*,#291,.F.);
#393=ORIENTED_EDGE('',*,*,#295,.T.);
#394=ORIENTED_EDGE('',*,*,#243,.T.);
#395=ORIENTED_EDGE('',*,*,#270,.T.);
#396=ORIENTED_EDGE('',*,*,#239,.T.);
#397=ORIENTED_EDGE('',*,*,#296,.F.);
#398=ORIENTED_EDGE('',*,*,#286,.F.);
#399=ORIENTED_EDGE('',*,*,#269,.T.);
#400=ORIENTED_EDGE('',*,*,#292,.F.);
#401=ORIENTED_EDGE('',*,*,#294,.F.);
#402=ORIENTED_EDGE('',*,*,#242,.F.);
#403=ORIENTED_EDGE('',*,*,#273,.T.);
#404=ORIENTED_EDGE('',*,*,#254,.T.);
#405=ORIENTED_EDGE('',*,*,#288,.F.);
#406=ORIENTED_EDGE('',*,*,#283,.F.);
#407=ORIENTED_EDGE('',*,*,#236,.F.);
#408=ORIENTED_EDGE('',*,*,#280,.T.);
#409=ORIENTED_EDGE('',*,*,#285,.T.);
#410=ORIENTED_EDGE('',*,*,#287,.T.);
#411=ORIENTED_EDGE('',*,*,#296,.T.);
#412=ORIENTED_EDGE('',*,*,#238,.T.);
#413=ORIENTED_EDGE('',*,*,#276,.T.);
#414=ORIENTED_EDGE('',*,*,#278,.T.);
#415=ORIENTED_EDGE('',*,*,#293,.F.);
#416=ORIENTED_EDGE('',*,*,#244,.T.);
#417=ORIENTED_EDGE('',*,*,#295,.F.);
#418=ORIENTED_EDGE('',*,*,#290,.T.);
#419=ORIENTED_EDGE('',*,*,#275,.T.);
#420=ORIENTED_EDGE('',*,*,#282,.T.);
#421=PLANE('',#473);
#422=PLANE('',#474);
#423=PLANE('',#475);
#424=PLANE('',#476);
#425=PLANE('',#477);
#426=PLANE('',#480);
#427=PLANE('',#481);
#428=PLANE('',#482);
#429=PLANE('',#483);
#430=PLANE('',#484);
#431=PLANE('',#500);
#432=PLANE('',#508);
#433=PLANE('',#509);
#434=PLANE('',#510);
#435=PLANE('',#511);
#436=ADVANCED_FACE('',(#48,#39),#421,.T.);
#437=ADVANCED_FACE('',(#49),#422,.F.);
#438=ADVANCED_FACE('',(#50),#423,.T.);
#439=ADVANCED_FACE('',(#51),#424,.T.);
#440=ADVANCED_FACE('',(#52,#40),#425,.F.);
#441=ADVANCED_FACE('',(#53),#426,.F.);
#442=ADVANCED_FACE('',(#54),#427,.T.);
#443=ADVANCED_FACE('',(#55),#428,.T.);
#444=ADVANCED_FACE('',(#56),#429,.T.);
#445=ADVANCED_FACE('',(#57,#41),#430,.F.);
#446=ADVANCED_FACE('',(#58),#15,.F.);
#447=ADVANCED_FACE('',(#59),#16,.F.);
#448=ADVANCED_FACE('',(#60),#17,.F.);
#449=ADVANCED_FACE('',(#61),#18,.F.);
#450=ADVANCED_FACE('',(#62),#19,.T.);
#451=ADVANCED_FACE('',(#63),#431,.T.);
#452=ADVANCED_FACE('',(#64),#20,.T.);
#453=ADVANCED_FACE('',(#65),#21,.T.);
#454=ADVANCED_FACE('',(#66),#22,.T.);
#455=ADVANCED_FACE('',(#67,#42),#432,.F.);
#456=ADVANCED_FACE('',(#68,#43),#433,.F.);
#457=ADVANCED_FACE('',(#69,#44,#45),#434,.T.);
#458=ADVANCED_FACE('',(#70,#46,#47),#435,.F.);
#459=CLOSED_SHELL('',(#436,#437,#438,#439,#440,#441,#442,#443,#444,#445,
#446,#447,#448,#449,#450,#451,#452,#453,#454,#455,#456,#457,#458));
#460=DERIVED_UNIT_ELEMENT(#462,1.);
#461=DERIVED_UNIT_ELEMENT(#769,-3.);
#462=(
MASS_UNIT()
NAMED_UNIT(*)
SI_UNIT(.KILO.,.GRAM.)
);
#463=DERIVED_UNIT((#460,#461));
#464=MEASURE_REPRESENTATION_ITEM('density measure',
POSITIVE_RATIO_MEASURE(7850.),#463);
#465=PROPERTY_DEFINITION_REPRESENTATION(#470,#467);
#466=PROPERTY_DEFINITION_REPRESENTATION(#471,#468);
#467=REPRESENTATION('material name',(#469),#766);
#468=REPRESENTATION('density',(#464),#766);
#469=DESCRIPTIVE_REPRESENTATION_ITEM('Steel','Steel');
#470=PROPERTY_DEFINITION('material property','material name',#776);
#471=PROPERTY_DEFINITION('material property','density of part',#776);
#472=AXIS2_PLACEMENT_3D('',#638,#512,#513);
#473=AXIS2_PLACEMENT_3D('',#639,#514,#515);
#474=AXIS2_PLACEMENT_3D('',#672,#532,#533);
#475=AXIS2_PLACEMENT_3D('',#678,#537,#538);
#476=AXIS2_PLACEMENT_3D('',#684,#542,#543);
#477=AXIS2_PLACEMENT_3D('',#688,#546,#547);
#478=AXIS2_PLACEMENT_3D('',#690,#548,#549);
#479=AXIS2_PLACEMENT_3D('',#693,#551,#552);
#480=AXIS2_PLACEMENT_3D('',#694,#553,#554);
#481=AXIS2_PLACEMENT_3D('',#698,#557,#558);
#482=AXIS2_PLACEMENT_3D('',#700,#560,#561);
#483=AXIS2_PLACEMENT_3D('',#706,#565,#566);
#484=AXIS2_PLACEMENT_3D('',#709,#569,#570);
#485=AXIS2_PLACEMENT_3D('',#711,#571,#572);
#486=AXIS2_PLACEMENT_3D('',#714,#574,#575);
#487=AXIS2_PLACEMENT_3D('',#715,#576,#577);
#488=AXIS2_PLACEMENT_3D('',#717,#578,#579);
#489=AXIS2_PLACEMENT_3D('',#720,#581,#582);
#490=AXIS2_PLACEMENT_3D('',#721,#583,#584);
#491=AXIS2_PLACEMENT_3D('',#723,#585,#586);
#492=AXIS2_PLACEMENT_3D('',#725,#588,#589);
#493=AXIS2_PLACEMENT_3D('',#727,#590,#591);
#494=AXIS2_PLACEMENT_3D('',#730,#593,#594);
#495=AXIS2_PLACEMENT_3D('',#731,#595,#596);
#496=AXIS2_PLACEMENT_3D('',#734,#598,#599);
#497=AXIS2_PLACEMENT_3D('',#735,#600,#601);
#498=AXIS2_PLACEMENT_3D('',#737,#602,#603);
#499=AXIS2_PLACEMENT_3D('',#740,#605,#606);
#500=AXIS2_PLACEMENT_3D('',#741,#607,#608);
#501=AXIS2_PLACEMENT_3D('',#753,#616,#617);
#502=AXIS2_PLACEMENT_3D('',#754,#618,#619);
#503=AXIS2_PLACEMENT_3D('',#755,#620,#621);
#504=AXIS2_PLACEMENT_3D('',#756,#622,#623);
#505=AXIS2_PLACEMENT_3D('',#757,#624,#625);
#506=AXIS2_PLACEMENT_3D('',#758,#626,#627);
#507=AXIS2_PLACEMENT_3D('',#759,#628,#629);
#508=AXIS2_PLACEMENT_3D('',#760,#630,#631);
#509=AXIS2_PLACEMENT_3D('',#761,#632,#633);
#510=AXIS2_PLACEMENT_3D('',#762,#634,#635);
#511=AXIS2_PLACEMENT_3D('',#763,#636,#637);
#512=DIRECTION('axis',(0.,0.,1.));
#513=DIRECTION('refdir',(1.,0.,0.));
#514=DIRECTION('center_axis',(-1.,0.,0.));
#515=DIRECTION('ref_axis',(0.,-1.,0.));
#516=DIRECTION('',(0.,0.,-1.));
#517=DIRECTION('',(0.,-1.,0.));
#518=DIRECTION('',(0.,0.,1.));
#519=DIRECTION('',(0.,-1.,0.));
#520=DIRECTION('',(0.,0.,1.));
#521=DIRECTION('',(0.,-1.,0.));
#522=DIRECTION('',(0.,0.,-1.));
#523=DIRECTION('',(0.,1.,0.));
#524=DIRECTION('',(0.,0.,1.));
#525=DIRECTION('',(0.,1.,0.));
#526=DIRECTION('',(0.,0.,1.));
#527=DIRECTION('',(0.,1.,0.));
#528=DIRECTION('',(0.,1.,0.));
#529=DIRECTION('',(0.,0.,-1.));
#530=DIRECTION('',(0.,-1.,0.));
#531=DIRECTION('',(0.,0.,-1.));
#532=DIRECTION('center_axis',(0.,0.,-1.));
#533=DIRECTION('ref_axis',(0.,-1.,0.));
#534=DIRECTION('',(1.,0.,0.));
#535=DIRECTION('',(0.,-1.,0.));
#536=DIRECTION('',(-1.,0.,0.));
#537=DIRECTION('center_axis',(0.,-1.,0.));
#538=DIRECTION('ref_axis',(-1.,0.,0.));
#539=DIRECTION('',(1.,0.,0.));
#540=DIRECTION('',(-1.,0.,0.));
#541=DIRECTION('',(0.,0.,-1.));
#542=DIRECTION('center_axis',(0.,1.,0.));
#543=DIRECTION('ref_axis',(1.,0.,0.));
#544=DIRECTION('',(-1.,0.,0.));
#545=DIRECTION('',(0.,0.,-1.));
#546=DIRECTION('center_axis',(0.,0.,-1.));
#547=DIRECTION('ref_axis',(0.,-1.,0.));
#548=DIRECTION('center_axis',(0.,0.,-1.));
#549=DIRECTION('ref_axis',(1.,0.,0.));
#550=DIRECTION('',(0.,-1.,0.));
#551=DIRECTION('center_axis',(0.,0.,-1.));
#552=DIRECTION('ref_axis',(-1.,0.,0.));
#553=DIRECTION('center_axis',(0.,0.,1.));
#554=DIRECTION('ref_axis',(0.,1.,0.));
#555=DIRECTION('',(0.,1.,0.));
#556=DIRECTION('',(1.,0.,0.));
#557=DIRECTION('center_axis',(0.,-1.,0.));
#558=DIRECTION('ref_axis',(-1.,0.,0.));
#559=DIRECTION('',(0.,0.,-1.));
#560=DIRECTION('center_axis',(1.,1.24176343282064E-8,0.));
#561=DIRECTION('ref_axis',(1.24176343282064E-8,-1.,0.));
#562=DIRECTION('',(0.,1.,0.));
#563=DIRECTION('',(0.,-1.,0.));
#564=DIRECTION('',(0.,0.,-1.));
#565=DIRECTION('center_axis',(-1.24176341400853E-8,1.,0.));
#566=DIRECTION('ref_axis',(1.,1.24176341400853E-8,0.));
#567=DIRECTION('',(-1.,-1.24176341400853E-8,0.));
#568=DIRECTION('',(1.,1.24176341400853E-8,0.));
#569=DIRECTION('center_axis',(0.,0.,1.));
#570=DIRECTION('ref_axis',(0.,1.,0.));
#571=DIRECTION('center_axis',(0.,0.,1.));
#572=DIRECTION('ref_axis',(1.,0.,0.));
#573=DIRECTION('',(0.,1.,0.));
#574=DIRECTION('center_axis',(0.,0.,1.));
#575=DIRECTION('ref_axis',(-1.,0.,0.));
#576=DIRECTION('center_axis',(0.,0.,-1.));
#577=DIRECTION('ref_axis',(-1.,0.,0.));
#578=DIRECTION('center_axis',(0.,0.,-1.));
#579=DIRECTION('ref_axis',(-1.,0.,0.));
#580=DIRECTION('',(0.,0.,-1.));
#581=DIRECTION('center_axis',(0.,0.,1.));
#582=DIRECTION('ref_axis',(-1.,0.,0.));
#583=DIRECTION('center_axis',(0.,0.,-1.));
#584=DIRECTION('ref_axis',(-1.,0.,0.));
#585=DIRECTION('center_axis',(0.,0.,-1.));
#586=DIRECTION('ref_axis',(-1.,0.,0.));
#587=DIRECTION('',(0.,0.,-1.));
#588=DIRECTION('center_axis',(0.,0.,-1.));
#589=DIRECTION('ref_axis',(-1.,0.,0.));
#590=DIRECTION('center_axis',(0.,0.,-1.));
#591=DIRECTION('ref_axis',(-1.,0.,0.));
#592=DIRECTION('',(0.,0.,-1.));
#593=DIRECTION('center_axis',(0.,0.,1.));
#594=DIRECTION('ref_axis',(-1.,0.,0.));
#595=DIRECTION('center_axis',(0.,0.,-1.));
#596=DIRECTION('ref_axis',(-1.,0.,0.));
#597=DIRECTION('',(0.,0.,-1.));
#598=DIRECTION('center_axis',(0.,0.,1.));
#599=DIRECTION('ref_axis',(-1.,0.,0.));
#600=DIRECTION('center_axis',(0.,0.,1.));
#601=DIRECTION('ref_axis',(1.,0.,0.));
#602=DIRECTION('center_axis',(0.,0.,1.));
#603=DIRECTION('ref_axis',(1.,0.,0.));
#604=DIRECTION('',(0.,0.,1.));
#605=DIRECTION('center_axis',(0.,0.,1.));
#606=DIRECTION('ref_axis',(1.,0.,0.));
#607=DIRECTION('center_axis',(1.,0.,0.));
#608=DIRECTION('ref_axis',(0.,1.,0.));
#609=DIRECTION('',(0.,0.,1.));
#610=DIRECTION('',(0.,1.,0.));
#611=DIRECTION('',(0.,1.,0.));
#612=DIRECTION('',(0.,0.,1.));
#613=DIRECTION('',(0.,-1.,0.));
#614=DIRECTION('',(0.,0.,1.));
#615=DIRECTION('',(0.,-1.,0.));
#616=DIRECTION('center_axis',(0.,0.,1.));
#617=DIRECTION('ref_axis',(1.,0.,0.));
#618=DIRECTION('center_axis',(0.,0.,1.));
#619=DIRECTION('ref_axis',(1.,0.,0.));
#620=DIRECTION('center_axis',(0.,0.,1.));
#621=DIRECTION('ref_axis',(1.,0.,0.));
#622=DIRECTION('center_axis',(0.,0.,-1.));
#623=DIRECTION('ref_axis',(1.,0.,0.));
#624=DIRECTION('center_axis',(0.,0.,1.));
#625=DIRECTION('ref_axis',(1.,0.,0.));
#626=DIRECTION('center_axis',(0.,0.,1.));
#627=DIRECTION('ref_axis',(1.,0.,0.));
#628=DIRECTION('center_axis',(0.,0.,1.));
#629=DIRECTION('ref_axis',(1.,0.,0.));
#630=DIRECTION('center_axis',(0.,0.,-1.));
#631=DIRECTION('ref_axis',(0.,-1.,0.));
#632=DIRECTION('center_axis',(0.,0.,1.));
#633=DIRECTION('ref_axis',(0.,1.,0.));
#634=DIRECTION('center_axis',(0.,0.,1.));
#635=DIRECTION('ref_axis',(1.,0.,0.));
#636=DIRECTION('center_axis',(0.,0.,1.));
#637=DIRECTION('ref_axis',(1.,0.,0.));
#638=CARTESIAN_POINT('',(0.,0.,0.));
#639=CARTESIAN_POINT('Origin',(-50.,50.,0.));
#640=CARTESIAN_POINT('',(-50.0000004346172,-62.5,25.));
#641=CARTESIAN_POINT('',(-50.0000004346172,-62.5,5.));
#642=CARTESIAN_POINT('',(-50.0000004346172,-62.5,25.));
#643=CARTESIAN_POINT('',(-50.0000007450581,-75.,25.0000003427267));
#644=CARTESIAN_POINT('',(-50.,2.5,25.));
#645=CARTESIAN_POINT('',(-50.,-75.,30.));
#646=CARTESIAN_POINT('',(-50.,-75.,0.));
#647=CARTESIAN_POINT('',(-50.,50.,30.));
#648=CARTESIAN_POINT('',(-50.,-75.,30.));
#649=CARTESIAN_POINT('',(-50.,50.,25.0000003427267));
#650=CARTESIAN_POINT('',(-50.,50.,0.));
#651=CARTESIAN_POINT('',(-50.,37.5000002173086,25.));
#652=CARTESIAN_POINT('',(-50.,7.5,25.));
#653=CARTESIAN_POINT('',(-50.,37.5000002173086,5.));
#654=CARTESIAN_POINT('',(-50.,37.5000002173086,25.));
#655=CARTESIAN_POINT('',(-50.0000007450581,50.,5.00000008940697));
#656=CARTESIAN_POINT('',(-50.,35.,5.));
#657=CARTESIAN_POINT('',(-50.,50.,0.));
#658=CARTESIAN_POINT('',(-50.,50.,0.));
#659=CARTESIAN_POINT('',(-50.,-75.,0.));
#660=CARTESIAN_POINT('',(-50.,-75.,0.));
#661=CARTESIAN_POINT('',(-50.0000007450581,-75.,5.00000008940697));
#662=CARTESIAN_POINT('',(-50.,-75.,0.));
#663=CARTESIAN_POINT('',(-50.,35.,5.));
#664=CARTESIAN_POINT('',(-50.0000004346172,-45.,5.));
#665=CARTESIAN_POINT('',(-50.,20.,5.));
#666=CARTESIAN_POINT('',(-50.,35.,5.));
#667=CARTESIAN_POINT('',(-50.,20.,25.));
#668=CARTESIAN_POINT('',(-50.,20.,25.));
#669=CARTESIAN_POINT('',(-50.0000004346172,-45.,25.));
#670=CARTESIAN_POINT('',(-50.,2.5,25.));
#671=CARTESIAN_POINT('',(-50.0000004346172,-45.,25.));
#672=CARTESIAN_POINT('Origin',(-25.,-45.,5.));
#673=CARTESIAN_POINT('',(-25.,-45.,5.));
#674=CARTESIAN_POINT('',(-37.5000002173086,-45.,5.));
#675=CARTESIAN_POINT('',(-25.,20.,5.));
#676=CARTESIAN_POINT('',(-25.,-60.,5.));
#677=CARTESIAN_POINT('',(-25.,20.,5.));
#678=CARTESIAN_POINT('Origin',(-25.,-62.5,25.));
#679=CARTESIAN_POINT('',(-25.,-62.5,25.));
#680=CARTESIAN_POINT('',(-25.,-62.5,25.));
#681=CARTESIAN_POINT('',(-25.,-62.5,5.));
#682=CARTESIAN_POINT('',(-25.,-62.5,5.));
#683=CARTESIAN_POINT('',(-25.,-62.5,25.));
#684=CARTESIAN_POINT('Origin',(-50.0000004346172,-45.,25.));
#685=CARTESIAN_POINT('',(-25.,-45.,25.));
#686=CARTESIAN_POINT('',(-37.5000002173086,-45.,25.));
#687=CARTESIAN_POINT('',(-25.,-45.,25.));
#688=CARTESIAN_POINT('Origin',(-25.,-45.,5.));
#689=CARTESIAN_POINT('',(-25.000000372529,-75.,5.00000008940697));
#690=CARTESIAN_POINT('Origin',(-37.5,-75.,5.00000008940697));
#691=CARTESIAN_POINT('',(-25.,-60.,5.));
#692=CARTESIAN_POINT('',(-34.1481024148768,-75.2839191346106,5.));
#693=CARTESIAN_POINT('Origin',(-37.1481024148768,-75.2839191346106,5.));
#694=CARTESIAN_POINT('Origin',(-25.,-75.,25.));
#695=CARTESIAN_POINT('',(-25.,20.,25.));
#696=CARTESIAN_POINT('',(-25.,-15.,25.0000003427267));
#697=CARTESIAN_POINT('',(-25.,20.,25.));
#698=CARTESIAN_POINT('Origin',(-25.,20.,25.));
#699=CARTESIAN_POINT('',(-25.,20.,25.));
#700=CARTESIAN_POINT('Origin',(-25.0000002173086,37.5000005277494,25.));
#701=CARTESIAN_POINT('',(-25.0000002173086,37.5000005277494,25.));
#702=CARTESIAN_POINT('',(-25.,-15.,25.0000003427267));
#703=CARTESIAN_POINT('',(-25.0000002173086,37.5000005277494,5.));
#704=CARTESIAN_POINT('',(-25.,-32.5,5.));
#705=CARTESIAN_POINT('',(-25.0000002173086,37.5000005277494,25.));
#706=CARTESIAN_POINT('Origin',(-50.,37.5000002173086,25.));
#707=CARTESIAN_POINT('',(-37.5000001086543,37.500000372529,25.));
#708=CARTESIAN_POINT('',(-37.4999999223898,37.500000372529,5.));
#709=CARTESIAN_POINT('Origin',(-25.,20.,25.));
#710=CARTESIAN_POINT('',(-25.000000372529,50.,25.0000003427267));
#711=CARTESIAN_POINT('Origin',(-37.5,50.,25.0000003427267));
#712=CARTESIAN_POINT('',(-25.,-15.,25.0000003427267));
#713=CARTESIAN_POINT('',(-35.0000005215406,50.0000007450581,25.));
#714=CARTESIAN_POINT('Origin',(-38.0000005662441,50.0000007450581,25.));
#715=CARTESIAN_POINT('Origin',(-38.0000005662441,50.0000007450581,30.));
#716=CARTESIAN_POINT('',(-35.0000005215406,50.0000007450581,5.));
#717=CARTESIAN_POINT('Origin',(-38.0000005662441,50.0000007450581,5.));
#718=CARTESIAN_POINT('',(-35.0000005215406,50.0000007450581,0.));
#719=CARTESIAN_POINT('',(-35.0000005215406,50.0000007450581,30.));
#720=CARTESIAN_POINT('Origin',(-38.0000005662441,50.0000007450581,0.));
#721=CARTESIAN_POINT('Origin',(-38.0000005662441,50.0000007450581,30.));
#722=CARTESIAN_POINT('',(-35.0000005215406,50.0000007450581,30.));
#723=CARTESIAN_POINT('Origin',(-38.0000005662441,50.0000007450581,30.));
#724=CARTESIAN_POINT('',(-35.0000005215406,50.0000007450581,30.));
#725=CARTESIAN_POINT('Origin',(-37.1481024148768,-75.2839191346106,30.));
#726=CARTESIAN_POINT('',(-34.1481024148768,-75.2839191346106,30.));
#727=CARTESIAN_POINT('Origin',(-37.1481024148768,-75.2839191346106,30.));
#728=CARTESIAN_POINT('',(-34.1481024148768,-75.2839191346106,25.));
#729=CARTESIAN_POINT('',(-34.1481024148768,-75.2839191346106,30.));
#730=CARTESIAN_POINT('Origin',(-37.1481024148768,-75.2839191346106,25.));
#731=CARTESIAN_POINT('Origin',(-37.1481024148768,-75.2839191346106,30.));
#732=CARTESIAN_POINT('',(-34.1481024148768,-75.2839191346106,0.));
#733=CARTESIAN_POINT('',(-34.1481024148768,-75.2839191346106,30.));
#734=CARTESIAN_POINT('Origin',(-37.1481024148768,-75.2839191346106,0.));
#735=CARTESIAN_POINT('Origin',(-37.5,-75.,0.));
#736=CARTESIAN_POINT('',(-25.,-75.,25.0000003427267));
#737=CARTESIAN_POINT('Origin',(-37.5,-75.,25.0000003427267));
#738=CARTESIAN_POINT('',(-25.,-75.,30.));
#739=CARTESIAN_POINT('',(-25.,-75.,0.));
#740=CARTESIAN_POINT('Origin',(-37.5,-75.,30.));
#741=CARTESIAN_POINT('Origin',(-25.,-75.,0.));
#742=CARTESIAN_POINT('',(-25.,50.,30.));
#743=CARTESIAN_POINT('',(-25.,50.,0.));
#744=CARTESIAN_POINT('',(-25.,50.,30.));
#745=CARTESIAN_POINT('',(-25.,-15.,25.0000003427267));
#746=CARTESIAN_POINT('',(-25.,-75.,0.));
#747=CARTESIAN_POINT('',(-25.,-75.,0.));
#748=CARTESIAN_POINT('',(-25.,50.,0.));
#749=CARTESIAN_POINT('',(-25.,50.,0.));
#750=CARTESIAN_POINT('',(-25.000000372529,50.,5.00000008940697));
#751=CARTESIAN_POINT('',(-25.,50.,0.));
#752=CARTESIAN_POINT('',(-25.,-32.5,5.));
#753=CARTESIAN_POINT('Origin',(-37.5,-75.,0.));
#754=CARTESIAN_POINT('Origin',(-37.5,-75.,0.));
#755=CARTESIAN_POINT('Origin',(-37.5,50.,0.));
#756=CARTESIAN_POINT('Origin',(-37.5,50.,5.00000008940697));
#757=CARTESIAN_POINT('Origin',(-37.5,50.,0.));
#758=CARTESIAN_POINT('Origin',(-37.5,50.,0.));
#759=CARTESIAN_POINT('Origin',(-37.5,50.,30.));
#760=CARTESIAN_POINT('Origin',(-25.,50.,5.));
#761=CARTESIAN_POINT('Origin',(-25.,-75.,25.));
#762=CARTESIAN_POINT('Origin',(-37.5,-12.5,30.));
#763=CARTESIAN_POINT('Origin',(-37.5,-12.5,0.));
#764=UNCERTAINTY_MEASURE_WITH_UNIT(LENGTH_MEASURE(0.01),#768,
'DISTANCE_ACCURACY_VALUE',
'Maximum model space distance between geometric entities at asserted c
onnectivities');
#765=UNCERTAINTY_MEASURE_WITH_UNIT(LENGTH_MEASURE(0.01),#768,
'DISTANCE_ACCURACY_VALUE',
'Maximum model space distance between geometric entities at asserted c
onnectivities');
#766=(
GEOMETRIC_REPRESENTATION_CONTEXT(3)
GLOBAL_UNCERTAINTY_ASSIGNED_CONTEXT((#764))
GLOBAL_UNIT_ASSIGNED_CONTEXT((#768,#770,#771))
REPRESENTATION_CONTEXT('','3D')
);
#767=(
GEOMETRIC_REPRESENTATION_CONTEXT(3)
GLOBAL_UNCERTAINTY_ASSIGNED_CONTEXT((#765))
GLOBAL_UNIT_ASSIGNED_CONTEXT((#768,#770,#771))
REPRESENTATION_CONTEXT('','3D')
);
#768=(
LENGTH_UNIT()
NAMED_UNIT(*)
SI_UNIT(.MILLI.,.METRE.)
);
#769=(
LENGTH_UNIT()
NAMED_UNIT(*)
SI_UNIT($,.METRE.)
);
#770=(
NAMED_UNIT(*)
PLANE_ANGLE_UNIT()
SI_UNIT($,.RADIAN.)
);
#771=(
NAMED_UNIT(*)
SI_UNIT($,.STERADIAN.)
SOLID_ANGLE_UNIT()
);
#772=SHAPE_DEFINITION_REPRESENTATION(#773,#774);
#773=PRODUCT_DEFINITION_SHAPE('',$,#776);
#774=SHAPE_REPRESENTATION('',(#472),#766);
#775=PRODUCT_DEFINITION_CONTEXT('part definition',#780,'design');
#776=PRODUCT_DEFINITION('2026-09-20-15-53-34-513',
'AgriRover_Armupperlink',#777,#775);
#777=PRODUCT_DEFINITION_FORMATION('',$,#782);
#778=PRODUCT_RELATED_PRODUCT_CATEGORY('AgriRover_Armupperlink',
'AgriRover_Armupperlink',(#782));
#779=APPLICATION_PROTOCOL_DEFINITION('international standard',
'automotive_design',2009,#780);
#780=APPLICATION_CONTEXT(
'Core Data for Automotive Mechanical Design Process');
#781=PRODUCT_CONTEXT('part definition',#780,'mechanical');
#782=PRODUCT('2026-09-20-15-53-34-513','AgriRover_Armupperlink',$,(#781));
#783=PRESENTATION_STYLE_ASSIGNMENT((#784));
#784=SURFACE_STYLE_USAGE(.BOTH.,#785);
#785=SURFACE_SIDE_STYLE('',(#786));
#786=SURFACE_STYLE_FILL_AREA(#787);
#787=FILL_AREA_STYLE('Steel - Satin',(#788));
#788=FILL_AREA_STYLE_COLOUR('Steel - Satin',#789);
#789=COLOUR_RGB('Steel - Satin',0.627450980392157,0.627450980392157,0.627450980392157);
ENDSEC;
END-ISO-10303-21;
