ISO-10303-21;
HEADER;
/* Generated by software containing ST-Developer
 * from STEP Tools, Inc. (www.steptools.com) 
 */

FILE_DESCRIPTION(
/* description */ (''),
/* implementation_level */ '2;1');

FILE_NAME(
/* name */ 'mount_disc.step',
/* time_stamp */ '2026-09-26T23:23:33+05:30',
/* author */ (''),
/* organization */ (''),
/* preprocessor_version */ 'ST-DEVELOPER v20.2',
/* originating_system */ 'Autodesk Translation Framework v15.15.0.0',
/* authorisation */ '');

FILE_SCHEMA (('AUTOMOTIVE_DESIGN { 1 0 10303 214 3 1 1 }'));
ENDSEC;

DATA;
#10=MECHANICAL_DESIGN_GEOMETRIC_PRESENTATION_REPRESENTATION('',(#17),#928);
#11=ITEM_DEFINED_TRANSFORMATION($,$,#536,#610);
#12=(
REPRESENTATION_RELATIONSHIP($,$,#939,#938)
REPRESENTATION_RELATIONSHIP_WITH_TRANSFORMATION(#11)
SHAPE_REPRESENTATION_RELATIONSHIP()
);
#13=CONTEXT_DEPENDENT_SHAPE_REPRESENTATION(#12,#937);
#14=NEXT_ASSEMBLY_USAGE_OCCURRENCE('Component1:1','Component1:1',
'Component1:1',#941,#942,'Component1:1');
#15=SHAPE_REPRESENTATION_RELATIONSHIP('SRR','None',#939,#16);
#16=ADVANCED_BREP_SHAPE_REPRESENTATION('',(#18),#927);
#17=STYLED_ITEM('',(#952),#18);
#18=MANIFOLD_SOLID_BREP('Body1',#522);
#19=FACE_BOUND('',#102,.T.);
#20=FACE_BOUND('',#105,.T.);
#21=FACE_BOUND('',#108,.T.);
#22=FACE_BOUND('',#111,.T.);
#23=FACE_BOUND('',#126,.T.);
#24=FACE_BOUND('',#127,.T.);
#25=FACE_BOUND('',#128,.T.);
#26=FACE_BOUND('',#129,.T.);
#27=FACE_BOUND('',#130,.T.);
#28=FACE_BOUND('',#131,.T.);
#29=FACE_BOUND('',#132,.T.);
#30=FACE_BOUND('',#133,.T.);
#31=FACE_BOUND('',#134,.T.);
#32=FACE_BOUND('',#135,.T.);
#33=FACE_BOUND('',#136,.T.);
#34=FACE_BOUND('',#137,.T.);
#35=FACE_BOUND('',#138,.T.);
#36=FACE_BOUND('',#139,.T.);
#37=FACE_BOUND('',#140,.T.);
#38=FACE_BOUND('',#141,.T.);
#39=FACE_BOUND('',#143,.T.);
#40=FACE_BOUND('',#144,.T.);
#41=FACE_BOUND('',#145,.T.);
#42=FACE_BOUND('',#146,.T.);
#43=FACE_BOUND('',#147,.T.);
#44=FACE_BOUND('',#148,.T.);
#45=FACE_BOUND('',#149,.T.);
#46=FACE_BOUND('',#150,.T.);
#47=FACE_BOUND('',#151,.T.);
#48=FACE_BOUND('',#152,.T.);
#49=FACE_BOUND('',#153,.T.);
#50=FACE_BOUND('',#154,.T.);
#51=PLANE('',#540);
#52=PLANE('',#544);
#53=PLANE('',#548);
#54=PLANE('',#552);
#55=PLANE('',#556);
#56=PLANE('',#560);
#57=PLANE('',#564);
#58=PLANE('',#568);
#59=PLANE('',#608);
#60=PLANE('',#609);
#61=FACE_OUTER_BOUND('',#92,.T.);
#62=FACE_OUTER_BOUND('',#93,.T.);
#63=FACE_OUTER_BOUND('',#94,.T.);
#64=FACE_OUTER_BOUND('',#95,.T.);
#65=FACE_OUTER_BOUND('',#96,.T.);
#66=FACE_OUTER_BOUND('',#97,.T.);
#67=FACE_OUTER_BOUND('',#98,.T.);
#68=FACE_OUTER_BOUND('',#99,.T.);
#69=FACE_OUTER_BOUND('',#100,.T.);
#70=FACE_OUTER_BOUND('',#101,.T.);
#71=FACE_OUTER_BOUND('',#103,.T.);
#72=FACE_OUTER_BOUND('',#104,.T.);
#73=FACE_OUTER_BOUND('',#106,.T.);
#74=FACE_OUTER_BOUND('',#107,.T.);
#75=FACE_OUTER_BOUND('',#109,.T.);
#76=FACE_OUTER_BOUND('',#110,.T.);
#77=FACE_OUTER_BOUND('',#112,.T.);
#78=FACE_OUTER_BOUND('',#113,.T.);
#79=FACE_OUTER_BOUND('',#114,.T.);
#80=FACE_OUTER_BOUND('',#115,.T.);
#81=FACE_OUTER_BOUND('',#116,.T.);
#82=FACE_OUTER_BOUND('',#117,.T.);
#83=FACE_OUTER_BOUND('',#118,.T.);
#84=FACE_OUTER_BOUND('',#119,.T.);
#85=FACE_OUTER_BOUND('',#120,.T.);
#86=FACE_OUTER_BOUND('',#121,.T.);
#87=FACE_OUTER_BOUND('',#122,.T.);
#88=FACE_OUTER_BOUND('',#123,.T.);
#89=FACE_OUTER_BOUND('',#124,.T.);
#90=FACE_OUTER_BOUND('',#125,.T.);
#91=FACE_OUTER_BOUND('',#142,.T.);
#92=EDGE_LOOP('',(#344,#345,#346,#347));
#93=EDGE_LOOP('',(#348));
#94=EDGE_LOOP('',(#349,#350,#351,#352));
#95=EDGE_LOOP('',(#353));
#96=EDGE_LOOP('',(#354,#355,#356,#357));
#97=EDGE_LOOP('',(#358));
#98=EDGE_LOOP('',(#359,#360,#361,#362));
#99=EDGE_LOOP('',(#363));
#100=EDGE_LOOP('',(#364,#365,#366,#367));
#101=EDGE_LOOP('',(#368));
#102=EDGE_LOOP('',(#369));
#103=EDGE_LOOP('',(#370,#371,#372,#373));
#104=EDGE_LOOP('',(#374));
#105=EDGE_LOOP('',(#375));
#106=EDGE_LOOP('',(#376,#377,#378,#379));
#107=EDGE_LOOP('',(#380));
#108=EDGE_LOOP('',(#381));
#109=EDGE_LOOP('',(#382,#383,#384,#385));
#110=EDGE_LOOP('',(#386));
#111=EDGE_LOOP('',(#387));
#112=EDGE_LOOP('',(#388,#389,#390,#391));
#113=EDGE_LOOP('',(#392,#393,#394,#395));
#114=EDGE_LOOP('',(#396,#397,#398,#399));
#115=EDGE_LOOP('',(#400,#401,#402,#403));
#116=EDGE_LOOP('',(#404,#405,#406,#407));
#117=EDGE_LOOP('',(#408,#409,#410,#411));
#118=EDGE_LOOP('',(#412,#413,#414,#415));
#119=EDGE_LOOP('',(#416,#417,#418,#419));
#120=EDGE_LOOP('',(#420,#421,#422,#423));
#121=EDGE_LOOP('',(#424,#425,#426,#427));
#122=EDGE_LOOP('',(#428,#429,#430,#431));
#123=EDGE_LOOP('',(#432,#433,#434,#435));
#124=EDGE_LOOP('',(#436,#437,#438,#439));
#125=EDGE_LOOP('',(#440));
#126=EDGE_LOOP('',(#441));
#127=EDGE_LOOP('',(#442));
#128=EDGE_LOOP('',(#443));
#129=EDGE_LOOP('',(#444));
#130=EDGE_LOOP('',(#445));
#131=EDGE_LOOP('',(#446));
#132=EDGE_LOOP('',(#447));
#133=EDGE_LOOP('',(#448));
#134=EDGE_LOOP('',(#449));
#135=EDGE_LOOP('',(#450));
#136=EDGE_LOOP('',(#451));
#137=EDGE_LOOP('',(#452));
#138=EDGE_LOOP('',(#453));
#139=EDGE_LOOP('',(#454));
#140=EDGE_LOOP('',(#455));
#141=EDGE_LOOP('',(#456));
#142=EDGE_LOOP('',(#457));
#143=EDGE_LOOP('',(#458));
#144=EDGE_LOOP('',(#459));
#145=EDGE_LOOP('',(#460));
#146=EDGE_LOOP('',(#461));
#147=EDGE_LOOP('',(#462));
#148=EDGE_LOOP('',(#463));
#149=EDGE_LOOP('',(#464));
#150=EDGE_LOOP('',(#465));
#151=EDGE_LOOP('',(#466));
#152=EDGE_LOOP('',(#467));
#153=EDGE_LOOP('',(#468));
#154=EDGE_LOOP('',(#469));
#155=LINE('',#790,#176);
#156=LINE('',#797,#177);
#157=LINE('',#804,#178);
#158=LINE('',#811,#179);
#159=LINE('',#818,#180);
#160=LINE('',#825,#181);
#161=LINE('',#832,#182);
#162=LINE('',#839,#183);
#163=LINE('',#846,#184);
#164=LINE('',#852,#185);
#165=LINE('',#858,#186);
#166=LINE('',#864,#187);
#167=LINE('',#870,#188);
#168=LINE('',#876,#189);
#169=LINE('',#882,#190);
#170=LINE('',#888,#191);
#171=LINE('',#894,#192);
#172=LINE('',#900,#193);
#173=LINE('',#906,#194);
#174=LINE('',#912,#195);
#175=LINE('',#918,#196);
#176=VECTOR('',#619,1.99999999999999);
#177=VECTOR('',#628,2.00000000000003);
#178=VECTOR('',#637,1.99999999999999);
#179=VECTOR('',#646,1.99999999999999);
#180=VECTOR('',#655,8.00000000000001);
#181=VECTOR('',#664,8.00000000000001);
#182=VECTOR('',#673,8.00000000000001);
#183=VECTOR('',#682,7.99999999999997);
#184=VECTOR('',#691,8.00000000000001);
#185=VECTOR('',#698,7.99999999999997);
#186=VECTOR('',#705,8.00000000000001);
#187=VECTOR('',#712,8.00000000000001);
#188=VECTOR('',#719,8.00000000000004);
#189=VECTOR('',#726,8.00000000000001);
#190=VECTOR('',#733,8.00000000000001);
#191=VECTOR('',#740,8.00000000000001);
#192=VECTOR('',#747,7.99999999999997);
#193=VECTOR('',#754,8.00000000000001);
#194=VECTOR('',#761,8.00000000000001);
#195=VECTOR('',#768,8.00000000000001);
#196=VECTOR('',#775,150.);
#197=CIRCLE('',#538,1.666);
#198=CIRCLE('',#539,1.666);
#199=CIRCLE('',#542,1.666);
#200=CIRCLE('',#543,1.666);
#201=CIRCLE('',#546,1.666);
#202=CIRCLE('',#547,1.666);
#203=CIRCLE('',#550,1.666);
#204=CIRCLE('',#551,1.666);
#205=CIRCLE('',#554,8.00000000000001);
#206=CIRCLE('',#555,8.00000000000001);
#207=CIRCLE('',#558,8.00000000000001);
#208=CIRCLE('',#559,8.00000000000001);
#209=CIRCLE('',#562,8.00000000000001);
#210=CIRCLE('',#563,8.00000000000001);
#211=CIRCLE('',#566,7.99999999999997);
#212=CIRCLE('',#567,7.99999999999997);
#213=CIRCLE('',#570,8.00000000000001);
#214=CIRCLE('',#571,8.00000000000001);
#215=CIRCLE('',#573,7.99999999999997);
#216=CIRCLE('',#574,7.99999999999997);
#217=CIRCLE('',#576,8.00000000000001);
#218=CIRCLE('',#577,8.00000000000001);
#219=CIRCLE('',#579,8.00000000000001);
#220=CIRCLE('',#580,8.00000000000001);
#221=CIRCLE('',#582,8.00000000000004);
#222=CIRCLE('',#583,8.00000000000004);
#223=CIRCLE('',#585,8.00000000000001);
#224=CIRCLE('',#586,8.00000000000001);
#225=CIRCLE('',#588,8.00000000000001);
#226=CIRCLE('',#589,8.00000000000001);
#227=CIRCLE('',#591,8.00000000000001);
#228=CIRCLE('',#592,8.00000000000001);
#229=CIRCLE('',#594,7.99999999999997);
#230=CIRCLE('',#595,7.99999999999997);
#231=CIRCLE('',#597,8.00000000000001);
#232=CIRCLE('',#598,8.00000000000001);
#233=CIRCLE('',#600,8.00000000000001);
#234=CIRCLE('',#601,8.00000000000001);
#235=CIRCLE('',#603,8.00000000000001);
#236=CIRCLE('',#604,8.00000000000001);
#237=CIRCLE('',#606,150.);
#238=CIRCLE('',#607,150.);
#239=VERTEX_POINT('',#787);
#240=VERTEX_POINT('',#789);
#241=VERTEX_POINT('',#794);
#242=VERTEX_POINT('',#796);
#243=VERTEX_POINT('',#801);
#244=VERTEX_POINT('',#803);
#245=VERTEX_POINT('',#808);
#246=VERTEX_POINT('',#810);
#247=VERTEX_POINT('',#815);
#248=VERTEX_POINT('',#817);
#249=VERTEX_POINT('',#822);
#250=VERTEX_POINT('',#824);
#251=VERTEX_POINT('',#829);
#252=VERTEX_POINT('',#831);
#253=VERTEX_POINT('',#836);
#254=VERTEX_POINT('',#838);
#255=VERTEX_POINT('',#843);
#256=VERTEX_POINT('',#845);
#257=VERTEX_POINT('',#849);
#258=VERTEX_POINT('',#851);
#259=VERTEX_POINT('',#855);
#260=VERTEX_POINT('',#857);
#261=VERTEX_POINT('',#861);
#262=VERTEX_POINT('',#863);
#263=VERTEX_POINT('',#867);
#264=VERTEX_POINT('',#869);
#265=VERTEX_POINT('',#873);
#266=VERTEX_POINT('',#875);
#267=VERTEX_POINT('',#879);
#268=VERTEX_POINT('',#881);
#269=VERTEX_POINT('',#885);
#270=VERTEX_POINT('',#887);
#271=VERTEX_POINT('',#891);
#272=VERTEX_POINT('',#893);
#273=VERTEX_POINT('',#897);
#274=VERTEX_POINT('',#899);
#275=VERTEX_POINT('',#903);
#276=VERTEX_POINT('',#905);
#277=VERTEX_POINT('',#909);
#278=VERTEX_POINT('',#911);
#279=VERTEX_POINT('',#915);
#280=VERTEX_POINT('',#917);
#281=EDGE_CURVE('',#239,#239,#197,.T.);
#282=EDGE_CURVE('',#239,#240,#155,.T.);
#283=EDGE_CURVE('',#240,#240,#198,.T.);
#284=EDGE_CURVE('',#241,#241,#199,.T.);
#285=EDGE_CURVE('',#241,#242,#156,.T.);
#286=EDGE_CURVE('',#242,#242,#200,.T.);
#287=EDGE_CURVE('',#243,#243,#201,.T.);
#288=EDGE_CURVE('',#243,#244,#157,.T.);
#289=EDGE_CURVE('',#244,#244,#202,.T.);
#290=EDGE_CURVE('',#245,#245,#203,.T.);
#291=EDGE_CURVE('',#245,#246,#158,.T.);
#292=EDGE_CURVE('',#246,#246,#204,.T.);
#293=EDGE_CURVE('',#247,#247,#205,.T.);
#294=EDGE_CURVE('',#247,#248,#159,.T.);
#295=EDGE_CURVE('',#248,#248,#206,.T.);
#296=EDGE_CURVE('',#249,#249,#207,.T.);
#297=EDGE_CURVE('',#249,#250,#160,.T.);
#298=EDGE_CURVE('',#250,#250,#208,.T.);
#299=EDGE_CURVE('',#251,#251,#209,.T.);
#300=EDGE_CURVE('',#251,#252,#161,.T.);
#301=EDGE_CURVE('',#252,#252,#210,.T.);
#302=EDGE_CURVE('',#253,#253,#211,.T.);
#303=EDGE_CURVE('',#253,#254,#162,.T.);
#304=EDGE_CURVE('',#254,#254,#212,.T.);
#305=EDGE_CURVE('',#255,#255,#213,.T.);
#306=EDGE_CURVE('',#255,#256,#163,.T.);
#307=EDGE_CURVE('',#256,#256,#214,.T.);
#308=EDGE_CURVE('',#257,#257,#215,.T.);
#309=EDGE_CURVE('',#257,#258,#164,.T.);
#310=EDGE_CURVE('',#258,#258,#216,.T.);
#311=EDGE_CURVE('',#259,#259,#217,.T.);
#312=EDGE_CURVE('',#259,#260,#165,.T.);
#313=EDGE_CURVE('',#260,#260,#218,.T.);
#314=EDGE_CURVE('',#261,#261,#219,.T.);
#315=EDGE_CURVE('',#261,#262,#166,.T.);
#316=EDGE_CURVE('',#262,#262,#220,.T.);
#317=EDGE_CURVE('',#263,#263,#221,.T.);
#318=EDGE_CURVE('',#263,#264,#167,.T.);
#319=EDGE_CURVE('',#264,#264,#222,.T.);
#320=EDGE_CURVE('',#265,#265,#223,.T.);
#321=EDGE_CURVE('',#265,#266,#168,.T.);
#322=EDGE_CURVE('',#266,#266,#224,.T.);
#323=EDGE_CURVE('',#267,#267,#225,.T.);
#324=EDGE_CURVE('',#267,#268,#169,.T.);
#325=EDGE_CURVE('',#268,#268,#226,.T.);
#326=EDGE_CURVE('',#269,#269,#227,.T.);
#327=EDGE_CURVE('',#269,#270,#170,.T.);
#328=EDGE_CURVE('',#270,#270,#228,.T.);
#329=EDGE_CURVE('',#271,#271,#229,.T.);
#330=EDGE_CURVE('',#271,#272,#171,.T.);
#331=EDGE_CURVE('',#272,#272,#230,.T.);
#332=EDGE_CURVE('',#273,#273,#231,.T.);
#333=EDGE_CURVE('',#273,#274,#172,.T.);
#334=EDGE_CURVE('',#274,#274,#232,.T.);
#335=EDGE_CURVE('',#275,#275,#233,.T.);
#336=EDGE_CURVE('',#275,#276,#173,.T.);
#337=EDGE_CURVE('',#276,#276,#234,.T.);
#338=EDGE_CURVE('',#277,#277,#235,.T.);
#339=EDGE_CURVE('',#277,#278,#174,.T.);
#340=EDGE_CURVE('',#278,#278,#236,.T.);
#341=EDGE_CURVE('',#279,#279,#237,.T.);
#342=EDGE_CURVE('',#279,#280,#175,.T.);
#343=EDGE_CURVE('',#280,#280,#238,.T.);
#344=ORIENTED_EDGE('',*,*,#281,.F.);
#345=ORIENTED_EDGE('',*,*,#282,.T.);
#346=ORIENTED_EDGE('',*,*,#283,.T.);
#347=ORIENTED_EDGE('',*,*,#282,.F.);
#348=ORIENTED_EDGE('',*,*,#283,.F.);
#349=ORIENTED_EDGE('',*,*,#284,.F.);
#350=ORIENTED_EDGE('',*,*,#285,.T.);
#351=ORIENTED_EDGE('',*,*,#286,.T.);
#352=ORIENTED_EDGE('',*,*,#285,.F.);
#353=ORIENTED_EDGE('',*,*,#286,.F.);
#354=ORIENTED_EDGE('',*,*,#287,.F.);
#355=ORIENTED_EDGE('',*,*,#288,.T.);
#356=ORIENTED_EDGE('',*,*,#289,.T.);
#357=ORIENTED_EDGE('',*,*,#288,.F.);
#358=ORIENTED_EDGE('',*,*,#289,.F.);
#359=ORIENTED_EDGE('',*,*,#290,.F.);
#360=ORIENTED_EDGE('',*,*,#291,.T.);
#361=ORIENTED_EDGE('',*,*,#292,.T.);
#362=ORIENTED_EDGE('',*,*,#291,.F.);
#363=ORIENTED_EDGE('',*,*,#292,.F.);
#364=ORIENTED_EDGE('',*,*,#293,.F.);
#365=ORIENTED_EDGE('',*,*,#294,.T.);
#366=ORIENTED_EDGE('',*,*,#295,.F.);
#367=ORIENTED_EDGE('',*,*,#294,.F.);
#368=ORIENTED_EDGE('',*,*,#293,.T.);
#369=ORIENTED_EDGE('',*,*,#290,.T.);
#370=ORIENTED_EDGE('',*,*,#296,.F.);
#371=ORIENTED_EDGE('',*,*,#297,.T.);
#372=ORIENTED_EDGE('',*,*,#298,.F.);
#373=ORIENTED_EDGE('',*,*,#297,.F.);
#374=ORIENTED_EDGE('',*,*,#296,.T.);
#375=ORIENTED_EDGE('',*,*,#287,.T.);
#376=ORIENTED_EDGE('',*,*,#299,.F.);
#377=ORIENTED_EDGE('',*,*,#300,.T.);
#378=ORIENTED_EDGE('',*,*,#301,.F.);
#379=ORIENTED_EDGE('',*,*,#300,.F.);
#380=ORIENTED_EDGE('',*,*,#299,.T.);
#381=ORIENTED_EDGE('',*,*,#281,.T.);
#382=ORIENTED_EDGE('',*,*,#302,.F.);
#383=ORIENTED_EDGE('',*,*,#303,.T.);
#384=ORIENTED_EDGE('',*,*,#304,.F.);
#385=ORIENTED_EDGE('',*,*,#303,.F.);
#386=ORIENTED_EDGE('',*,*,#302,.T.);
#387=ORIENTED_EDGE('',*,*,#284,.T.);
#388=ORIENTED_EDGE('',*,*,#305,.F.);
#389=ORIENTED_EDGE('',*,*,#306,.T.);
#390=ORIENTED_EDGE('',*,*,#307,.T.);
#391=ORIENTED_EDGE('',*,*,#306,.F.);
#392=ORIENTED_EDGE('',*,*,#308,.F.);
#393=ORIENTED_EDGE('',*,*,#309,.T.);
#394=ORIENTED_EDGE('',*,*,#310,.T.);
#395=ORIENTED_EDGE('',*,*,#309,.F.);
#396=ORIENTED_EDGE('',*,*,#311,.F.);
#397=ORIENTED_EDGE('',*,*,#312,.T.);
#398=ORIENTED_EDGE('',*,*,#313,.T.);
#399=ORIENTED_EDGE('',*,*,#312,.F.);
#400=ORIENTED_EDGE('',*,*,#314,.F.);
#401=ORIENTED_EDGE('',*,*,#315,.T.);
#402=ORIENTED_EDGE('',*,*,#316,.T.);
#403=ORIENTED_EDGE('',*,*,#315,.F.);
#404=ORIENTED_EDGE('',*,*,#317,.F.);
#405=ORIENTED_EDGE('',*,*,#318,.T.);
#406=ORIENTED_EDGE('',*,*,#319,.T.);
#407=ORIENTED_EDGE('',*,*,#318,.F.);
#408=ORIENTED_EDGE('',*,*,#320,.F.);
#409=ORIENTED_EDGE('',*,*,#321,.T.);
#410=ORIENTED_EDGE('',*,*,#322,.T.);
#411=ORIENTED_EDGE('',*,*,#321,.F.);
#412=ORIENTED_EDGE('',*,*,#323,.F.);
#413=ORIENTED_EDGE('',*,*,#324,.T.);
#414=ORIENTED_EDGE('',*,*,#325,.T.);
#415=ORIENTED_EDGE('',*,*,#324,.F.);
#416=ORIENTED_EDGE('',*,*,#326,.F.);
#417=ORIENTED_EDGE('',*,*,#327,.T.);
#418=ORIENTED_EDGE('',*,*,#328,.T.);
#419=ORIENTED_EDGE('',*,*,#327,.F.);
#420=ORIENTED_EDGE('',*,*,#329,.F.);
#421=ORIENTED_EDGE('',*,*,#330,.T.);
#422=ORIENTED_EDGE('',*,*,#331,.T.);
#423=ORIENTED_EDGE('',*,*,#330,.F.);
#424=ORIENTED_EDGE('',*,*,#332,.F.);
#425=ORIENTED_EDGE('',*,*,#333,.T.);
#426=ORIENTED_EDGE('',*,*,#334,.T.);
#427=ORIENTED_EDGE('',*,*,#333,.F.);
#428=ORIENTED_EDGE('',*,*,#335,.F.);
#429=ORIENTED_EDGE('',*,*,#336,.T.);
#430=ORIENTED_EDGE('',*,*,#337,.T.);
#431=ORIENTED_EDGE('',*,*,#336,.F.);
#432=ORIENTED_EDGE('',*,*,#338,.F.);
#433=ORIENTED_EDGE('',*,*,#339,.T.);
#434=ORIENTED_EDGE('',*,*,#340,.T.);
#435=ORIENTED_EDGE('',*,*,#339,.F.);
#436=ORIENTED_EDGE('',*,*,#341,.F.);
#437=ORIENTED_EDGE('',*,*,#342,.T.);
#438=ORIENTED_EDGE('',*,*,#343,.T.);
#439=ORIENTED_EDGE('',*,*,#342,.F.);
#440=ORIENTED_EDGE('',*,*,#341,.T.);
#441=ORIENTED_EDGE('',*,*,#298,.T.);
#442=ORIENTED_EDGE('',*,*,#304,.T.);
#443=ORIENTED_EDGE('',*,*,#338,.T.);
#444=ORIENTED_EDGE('',*,*,#335,.T.);
#445=ORIENTED_EDGE('',*,*,#332,.T.);
#446=ORIENTED_EDGE('',*,*,#329,.T.);
#447=ORIENTED_EDGE('',*,*,#326,.T.);
#448=ORIENTED_EDGE('',*,*,#323,.T.);
#449=ORIENTED_EDGE('',*,*,#320,.T.);
#450=ORIENTED_EDGE('',*,*,#317,.T.);
#451=ORIENTED_EDGE('',*,*,#314,.T.);
#452=ORIENTED_EDGE('',*,*,#311,.T.);
#453=ORIENTED_EDGE('',*,*,#308,.T.);
#454=ORIENTED_EDGE('',*,*,#305,.T.);
#455=ORIENTED_EDGE('',*,*,#301,.T.);
#456=ORIENTED_EDGE('',*,*,#295,.T.);
#457=ORIENTED_EDGE('',*,*,#343,.F.);
#458=ORIENTED_EDGE('',*,*,#340,.F.);
#459=ORIENTED_EDGE('',*,*,#337,.F.);
#460=ORIENTED_EDGE('',*,*,#334,.F.);
#461=ORIENTED_EDGE('',*,*,#331,.F.);
#462=ORIENTED_EDGE('',*,*,#328,.F.);
#463=ORIENTED_EDGE('',*,*,#325,.F.);
#464=ORIENTED_EDGE('',*,*,#322,.F.);
#465=ORIENTED_EDGE('',*,*,#319,.F.);
#466=ORIENTED_EDGE('',*,*,#316,.F.);
#467=ORIENTED_EDGE('',*,*,#313,.F.);
#468=ORIENTED_EDGE('',*,*,#310,.F.);
#469=ORIENTED_EDGE('',*,*,#307,.F.);
#470=CYLINDRICAL_SURFACE('',#537,1.666);
#471=CYLINDRICAL_SURFACE('',#541,1.666);
#472=CYLINDRICAL_SURFACE('',#545,1.666);
#473=CYLINDRICAL_SURFACE('',#549,1.666);
#474=CYLINDRICAL_SURFACE('',#553,8.00000000000001);
#475=CYLINDRICAL_SURFACE('',#557,8.00000000000001);
#476=CYLINDRICAL_SURFACE('',#561,8.00000000000001);
#477=CYLINDRICAL_SURFACE('',#565,7.99999999999997);
#478=CYLINDRICAL_SURFACE('',#569,8.00000000000001);
#479=CYLINDRICAL_SURFACE('',#572,7.99999999999997);
#480=CYLINDRICAL_SURFACE('',#575,8.00000000000001);
#481=CYLINDRICAL_SURFACE('',#578,8.00000000000001);
#482=CYLINDRICAL_SURFACE('',#581,8.00000000000004);
#483=CYLINDRICAL_SURFACE('',#584,8.00000000000001);
#484=CYLINDRICAL_SURFACE('',#587,8.00000000000001);
#485=CYLINDRICAL_SURFACE('',#590,8.00000000000001);
#486=CYLINDRICAL_SURFACE('',#593,7.99999999999997);
#487=CYLINDRICAL_SURFACE('',#596,8.00000000000001);
#488=CYLINDRICAL_SURFACE('',#599,8.00000000000001);
#489=CYLINDRICAL_SURFACE('',#602,8.00000000000001);
#490=CYLINDRICAL_SURFACE('',#605,150.);
#491=ADVANCED_FACE('',(#61),#470,.F.);
#492=ADVANCED_FACE('',(#62),#51,.T.);
#493=ADVANCED_FACE('',(#63),#471,.F.);
#494=ADVANCED_FACE('',(#64),#52,.T.);
#495=ADVANCED_FACE('',(#65),#472,.F.);
#496=ADVANCED_FACE('',(#66),#53,.T.);
#497=ADVANCED_FACE('',(#67),#473,.F.);
#498=ADVANCED_FACE('',(#68),#54,.T.);
#499=ADVANCED_FACE('',(#69),#474,.T.);
#500=ADVANCED_FACE('',(#70,#19),#55,.T.);
#501=ADVANCED_FACE('',(#71),#475,.T.);
#502=ADVANCED_FACE('',(#72,#20),#56,.T.);
#503=ADVANCED_FACE('',(#73),#476,.T.);
#504=ADVANCED_FACE('',(#74,#21),#57,.T.);
#505=ADVANCED_FACE('',(#75),#477,.T.);
#506=ADVANCED_FACE('',(#76,#22),#58,.T.);
#507=ADVANCED_FACE('',(#77),#478,.F.);
#508=ADVANCED_FACE('',(#78),#479,.F.);
#509=ADVANCED_FACE('',(#79),#480,.F.);
#510=ADVANCED_FACE('',(#80),#481,.F.);
#511=ADVANCED_FACE('',(#81),#482,.F.);
#512=ADVANCED_FACE('',(#82),#483,.F.);
#513=ADVANCED_FACE('',(#83),#484,.F.);
#514=ADVANCED_FACE('',(#84),#485,.F.);
#515=ADVANCED_FACE('',(#85),#486,.F.);
#516=ADVANCED_FACE('',(#86),#487,.F.);
#517=ADVANCED_FACE('',(#87),#488,.F.);
#518=ADVANCED_FACE('',(#88),#489,.F.);
#519=ADVANCED_FACE('',(#89),#490,.T.);
#520=ADVANCED_FACE('',(#90,#23,#24,#25,#26,#27,#28,#29,#30,#31,#32,#33,
#34,#35,#36,#37,#38),#59,.T.);
#521=ADVANCED_FACE('',(#91,#39,#40,#41,#42,#43,#44,#45,#46,#47,#48,#49,
#50),#60,.F.);
#522=CLOSED_SHELL('',(#491,#492,#493,#494,#495,#496,#497,#498,#499,#500,
#501,#502,#503,#504,#505,#506,#507,#508,#509,#510,#511,#512,#513,#514,#515,
#516,#517,#518,#519,#520,#521));
#523=DERIVED_UNIT_ELEMENT(#525,1.);
#524=DERIVED_UNIT_ELEMENT(#930,-3.);
#525=(
MASS_UNIT()
NAMED_UNIT(*)
SI_UNIT(.KILO.,.GRAM.)
);
#526=DERIVED_UNIT((#523,#524));
#527=MEASURE_REPRESENTATION_ITEM('density measure',
POSITIVE_RATIO_MEASURE(7850.),#526);
#528=PROPERTY_DEFINITION_REPRESENTATION(#533,#530);
#529=PROPERTY_DEFINITION_REPRESENTATION(#534,#531);
#530=REPRESENTATION('material name',(#532),#927);
#531=REPRESENTATION('density',(#527),#927);
#532=DESCRIPTIVE_REPRESENTATION_ITEM('Steel','Steel');
#533=PROPERTY_DEFINITION('material property','material name',#942);
#534=PROPERTY_DEFINITION('material property','density of part',#942);
#535=AXIS2_PLACEMENT_3D('',#784,#611,#612);
#536=AXIS2_PLACEMENT_3D('',#785,#613,#614);
#537=AXIS2_PLACEMENT_3D('',#786,#615,#616);
#538=AXIS2_PLACEMENT_3D('',#788,#617,#618);
#539=AXIS2_PLACEMENT_3D('',#791,#620,#621);
#540=AXIS2_PLACEMENT_3D('',#792,#622,#623);
#541=AXIS2_PLACEMENT_3D('',#793,#624,#625);
#542=AXIS2_PLACEMENT_3D('',#795,#626,#627);
#543=AXIS2_PLACEMENT_3D('',#798,#629,#630);
#544=AXIS2_PLACEMENT_3D('',#799,#631,#632);
#545=AXIS2_PLACEMENT_3D('',#800,#633,#634);
#546=AXIS2_PLACEMENT_3D('',#802,#635,#636);
#547=AXIS2_PLACEMENT_3D('',#805,#638,#639);
#548=AXIS2_PLACEMENT_3D('',#806,#640,#641);
#549=AXIS2_PLACEMENT_3D('',#807,#642,#643);
#550=AXIS2_PLACEMENT_3D('',#809,#644,#645);
#551=AXIS2_PLACEMENT_3D('',#812,#647,#648);
#552=AXIS2_PLACEMENT_3D('',#813,#649,#650);
#553=AXIS2_PLACEMENT_3D('',#814,#651,#652);
#554=AXIS2_PLACEMENT_3D('',#816,#653,#654);
#555=AXIS2_PLACEMENT_3D('',#819,#656,#657);
#556=AXIS2_PLACEMENT_3D('',#820,#658,#659);
#557=AXIS2_PLACEMENT_3D('',#821,#660,#661);
#558=AXIS2_PLACEMENT_3D('',#823,#662,#663);
#559=AXIS2_PLACEMENT_3D('',#826,#665,#666);
#560=AXIS2_PLACEMENT_3D('',#827,#667,#668);
#561=AXIS2_PLACEMENT_3D('',#828,#669,#670);
#562=AXIS2_PLACEMENT_3D('',#830,#671,#672);
#563=AXIS2_PLACEMENT_3D('',#833,#674,#675);
#564=AXIS2_PLACEMENT_3D('',#834,#676,#677);
#565=AXIS2_PLACEMENT_3D('',#835,#678,#679);
#566=AXIS2_PLACEMENT_3D('',#837,#680,#681);
#567=AXIS2_PLACEMENT_3D('',#840,#683,#684);
#568=AXIS2_PLACEMENT_3D('',#841,#685,#686);
#569=AXIS2_PLACEMENT_3D('',#842,#687,#688);
#570=AXIS2_PLACEMENT_3D('',#844,#689,#690);
#571=AXIS2_PLACEMENT_3D('',#847,#692,#693);
#572=AXIS2_PLACEMENT_3D('',#848,#694,#695);
#573=AXIS2_PLACEMENT_3D('',#850,#696,#697);
#574=AXIS2_PLACEMENT_3D('',#853,#699,#700);
#575=AXIS2_PLACEMENT_3D('',#854,#701,#702);
#576=AXIS2_PLACEMENT_3D('',#856,#703,#704);
#577=AXIS2_PLACEMENT_3D('',#859,#706,#707);
#578=AXIS2_PLACEMENT_3D('',#860,#708,#709);
#579=AXIS2_PLACEMENT_3D('',#862,#710,#711);
#580=AXIS2_PLACEMENT_3D('',#865,#713,#714);
#581=AXIS2_PLACEMENT_3D('',#866,#715,#716);
#582=AXIS2_PLACEMENT_3D('',#868,#717,#718);
#583=AXIS2_PLACEMENT_3D('',#871,#720,#721);
#584=AXIS2_PLACEMENT_3D('',#872,#722,#723);
#585=AXIS2_PLACEMENT_3D('',#874,#724,#725);
#586=AXIS2_PLACEMENT_3D('',#877,#727,#728);
#587=AXIS2_PLACEMENT_3D('',#878,#729,#730);
#588=AXIS2_PLACEMENT_3D('',#880,#731,#732);
#589=AXIS2_PLACEMENT_3D('',#883,#734,#735);
#590=AXIS2_PLACEMENT_3D('',#884,#736,#737);
#591=AXIS2_PLACEMENT_3D('',#886,#738,#739);
#592=AXIS2_PLACEMENT_3D('',#889,#741,#742);
#593=AXIS2_PLACEMENT_3D('',#890,#743,#744);
#594=AXIS2_PLACEMENT_3D('',#892,#745,#746);
#595=AXIS2_PLACEMENT_3D('',#895,#748,#749);
#596=AXIS2_PLACEMENT_3D('',#896,#750,#751);
#597=AXIS2_PLACEMENT_3D('',#898,#752,#753);
#598=AXIS2_PLACEMENT_3D('',#901,#755,#756);
#599=AXIS2_PLACEMENT_3D('',#902,#757,#758);
#600=AXIS2_PLACEMENT_3D('',#904,#759,#760);
#601=AXIS2_PLACEMENT_3D('',#907,#762,#763);
#602=AXIS2_PLACEMENT_3D('',#908,#764,#765);
#603=AXIS2_PLACEMENT_3D('',#910,#766,#767);
#604=AXIS2_PLACEMENT_3D('',#913,#769,#770);
#605=AXIS2_PLACEMENT_3D('',#914,#771,#772);
#606=AXIS2_PLACEMENT_3D('',#916,#773,#774);
#607=AXIS2_PLACEMENT_3D('',#919,#776,#777);
#608=AXIS2_PLACEMENT_3D('',#920,#778,#779);
#609=AXIS2_PLACEMENT_3D('',#921,#780,#781);
#610=AXIS2_PLACEMENT_3D('',#922,#782,#783);
#611=DIRECTION('axis',(0.,0.,1.));
#612=DIRECTION('refdir',(1.,0.,0.));
#613=DIRECTION('axis',(0.,0.,1.));
#614=DIRECTION('refdir',(1.,0.,0.));
#615=DIRECTION('center_axis',(0.,0.,-1.));
#616=DIRECTION('ref_axis',(-1.,0.,0.));
#617=DIRECTION('center_axis',(0.,0.,-1.));
#618=DIRECTION('ref_axis',(-1.,0.,0.));
#619=DIRECTION('',(0.,0.,-1.));
#620=DIRECTION('center_axis',(0.,0.,-1.));
#621=DIRECTION('ref_axis',(-1.,0.,0.));
#622=DIRECTION('center_axis',(0.,0.,1.));
#623=DIRECTION('ref_axis',(-1.,0.,0.));
#624=DIRECTION('center_axis',(0.,0.,-1.));
#625=DIRECTION('ref_axis',(-1.,0.,0.));
#626=DIRECTION('center_axis',(0.,0.,-1.));
#627=DIRECTION('ref_axis',(-1.,0.,0.));
#628=DIRECTION('',(0.,0.,-1.));
#629=DIRECTION('center_axis',(0.,0.,-1.));
#630=DIRECTION('ref_axis',(-1.,0.,0.));
#631=DIRECTION('center_axis',(0.,0.,1.));
#632=DIRECTION('ref_axis',(-1.,0.,0.));
#633=DIRECTION('center_axis',(0.,0.,-1.));
#634=DIRECTION('ref_axis',(-1.,0.,0.));
#635=DIRECTION('center_axis',(0.,0.,-1.));
#636=DIRECTION('ref_axis',(-1.,0.,0.));
#637=DIRECTION('',(0.,0.,-1.));
#638=DIRECTION('center_axis',(0.,0.,-1.));
#639=DIRECTION('ref_axis',(-1.,0.,0.));
#640=DIRECTION('center_axis',(0.,0.,1.));
#641=DIRECTION('ref_axis',(-1.,0.,0.));
#642=DIRECTION('center_axis',(0.,0.,-1.));
#643=DIRECTION('ref_axis',(-1.,0.,0.));
#644=DIRECTION('center_axis',(0.,0.,-1.));
#645=DIRECTION('ref_axis',(-1.,0.,0.));
#646=DIRECTION('',(0.,0.,-1.));
#647=DIRECTION('center_axis',(0.,0.,-1.));
#648=DIRECTION('ref_axis',(-1.,0.,0.));
#649=DIRECTION('center_axis',(0.,0.,1.));
#650=DIRECTION('ref_axis',(-1.,0.,0.));
#651=DIRECTION('center_axis',(0.,0.,1.));
#652=DIRECTION('ref_axis',(-1.,0.,0.));
#653=DIRECTION('center_axis',(0.,0.,1.));
#654=DIRECTION('ref_axis',(-1.,0.,0.));
#655=DIRECTION('',(0.,0.,-1.));
#656=DIRECTION('center_axis',(0.,0.,-1.));
#657=DIRECTION('ref_axis',(-1.,0.,0.));
#658=DIRECTION('center_axis',(0.,0.,1.));
#659=DIRECTION('ref_axis',(-1.,0.,0.));
#660=DIRECTION('center_axis',(0.,0.,1.));
#661=DIRECTION('ref_axis',(-1.,0.,0.));
#662=DIRECTION('center_axis',(0.,0.,1.));
#663=DIRECTION('ref_axis',(-1.,0.,0.));
#664=DIRECTION('',(0.,0.,-1.));
#665=DIRECTION('center_axis',(0.,0.,-1.));
#666=DIRECTION('ref_axis',(-1.,0.,0.));
#667=DIRECTION('center_axis',(0.,0.,1.));
#668=DIRECTION('ref_axis',(-1.,0.,0.));
#669=DIRECTION('center_axis',(0.,0.,1.));
#670=DIRECTION('ref_axis',(-1.,0.,0.));
#671=DIRECTION('center_axis',(0.,0.,1.));
#672=DIRECTION('ref_axis',(-1.,0.,0.));
#673=DIRECTION('',(0.,0.,-1.));
#674=DIRECTION('center_axis',(0.,0.,-1.));
#675=DIRECTION('ref_axis',(-1.,0.,0.));
#676=DIRECTION('center_axis',(0.,0.,1.));
#677=DIRECTION('ref_axis',(-1.,0.,0.));
#678=DIRECTION('center_axis',(0.,0.,1.));
#679=DIRECTION('ref_axis',(-1.,0.,0.));
#680=DIRECTION('center_axis',(0.,0.,1.));
#681=DIRECTION('ref_axis',(-1.,0.,0.));
#682=DIRECTION('',(0.,0.,-1.));
#683=DIRECTION('center_axis',(0.,0.,-1.));
#684=DIRECTION('ref_axis',(-1.,0.,0.));
#685=DIRECTION('center_axis',(0.,0.,1.));
#686=DIRECTION('ref_axis',(-1.,0.,0.));
#687=DIRECTION('center_axis',(0.,0.,1.));
#688=DIRECTION('ref_axis',(1.,0.,0.));
#689=DIRECTION('center_axis',(0.,0.,-1.));
#690=DIRECTION('ref_axis',(1.,0.,0.));
#691=DIRECTION('',(0.,0.,-1.));
#692=DIRECTION('center_axis',(0.,0.,-1.));
#693=DIRECTION('ref_axis',(1.,0.,0.));
#694=DIRECTION('center_axis',(0.,0.,1.));
#695=DIRECTION('ref_axis',(1.,0.,0.));
#696=DIRECTION('center_axis',(0.,0.,-1.));
#697=DIRECTION('ref_axis',(1.,0.,0.));
#698=DIRECTION('',(0.,0.,-1.));
#699=DIRECTION('center_axis',(0.,0.,-1.));
#700=DIRECTION('ref_axis',(1.,0.,0.));
#701=DIRECTION('center_axis',(0.,0.,1.));
#702=DIRECTION('ref_axis',(1.,0.,0.));
#703=DIRECTION('center_axis',(0.,0.,-1.));
#704=DIRECTION('ref_axis',(1.,0.,0.));
#705=DIRECTION('',(0.,0.,-1.));
#706=DIRECTION('center_axis',(0.,0.,-1.));
#707=DIRECTION('ref_axis',(1.,0.,0.));
#708=DIRECTION('center_axis',(0.,0.,1.));
#709=DIRECTION('ref_axis',(1.,0.,0.));
#710=DIRECTION('center_axis',(0.,0.,-1.));
#711=DIRECTION('ref_axis',(1.,0.,0.));
#712=DIRECTION('',(0.,0.,-1.));
#713=DIRECTION('center_axis',(0.,0.,-1.));
#714=DIRECTION('ref_axis',(1.,0.,0.));
#715=DIRECTION('center_axis',(0.,0.,1.));
#716=DIRECTION('ref_axis',(1.,0.,0.));
#717=DIRECTION('center_axis',(0.,0.,-1.));
#718=DIRECTION('ref_axis',(1.,0.,0.));
#719=DIRECTION('',(0.,0.,-1.));
#720=DIRECTION('center_axis',(0.,0.,-1.));
#721=DIRECTION('ref_axis',(1.,0.,0.));
#722=DIRECTION('center_axis',(0.,0.,1.));
#723=DIRECTION('ref_axis',(1.,0.,0.));
#724=DIRECTION('center_axis',(0.,0.,-1.));
#725=DIRECTION('ref_axis',(1.,0.,0.));
#726=DIRECTION('',(0.,0.,-1.));
#727=DIRECTION('center_axis',(0.,0.,-1.));
#728=DIRECTION('ref_axis',(1.,0.,0.));
#729=DIRECTION('center_axis',(0.,0.,1.));
#730=DIRECTION('ref_axis',(1.,0.,0.));
#731=DIRECTION('center_axis',(0.,0.,-1.));
#732=DIRECTION('ref_axis',(1.,0.,0.));
#733=DIRECTION('',(0.,0.,-1.));
#734=DIRECTION('center_axis',(0.,0.,-1.));
#735=DIRECTION('ref_axis',(1.,0.,0.));
#736=DIRECTION('center_axis',(0.,0.,1.));
#737=DIRECTION('ref_axis',(1.,0.,0.));
#738=DIRECTION('center_axis',(0.,0.,-1.));
#739=DIRECTION('ref_axis',(1.,0.,0.));
#740=DIRECTION('',(0.,0.,-1.));
#741=DIRECTION('center_axis',(0.,0.,-1.));
#742=DIRECTION('ref_axis',(1.,0.,0.));
#743=DIRECTION('center_axis',(0.,0.,1.));
#744=DIRECTION('ref_axis',(1.,0.,0.));
#745=DIRECTION('center_axis',(0.,0.,-1.));
#746=DIRECTION('ref_axis',(1.,0.,0.));
#747=DIRECTION('',(0.,0.,-1.));
#748=DIRECTION('center_axis',(0.,0.,-1.));
#749=DIRECTION('ref_axis',(1.,0.,0.));
#750=DIRECTION('center_axis',(0.,0.,1.));
#751=DIRECTION('ref_axis',(1.,0.,0.));
#752=DIRECTION('center_axis',(0.,0.,-1.));
#753=DIRECTION('ref_axis',(1.,0.,0.));
#754=DIRECTION('',(0.,0.,-1.));
#755=DIRECTION('center_axis',(0.,0.,-1.));
#756=DIRECTION('ref_axis',(1.,0.,0.));
#757=DIRECTION('center_axis',(0.,0.,1.));
#758=DIRECTION('ref_axis',(1.,0.,0.));
#759=DIRECTION('center_axis',(0.,0.,-1.));
#760=DIRECTION('ref_axis',(1.,0.,0.));
#761=DIRECTION('',(0.,0.,-1.));
#762=DIRECTION('center_axis',(0.,0.,-1.));
#763=DIRECTION('ref_axis',(1.,0.,0.));
#764=DIRECTION('center_axis',(0.,0.,1.));
#765=DIRECTION('ref_axis',(1.,0.,0.));
#766=DIRECTION('center_axis',(0.,0.,-1.));
#767=DIRECTION('ref_axis',(1.,0.,0.));
#768=DIRECTION('',(0.,0.,-1.));
#769=DIRECTION('center_axis',(0.,0.,-1.));
#770=DIRECTION('ref_axis',(1.,0.,0.));
#771=DIRECTION('center_axis',(0.,0.,1.));
#772=DIRECTION('ref_axis',(1.,0.,0.));
#773=DIRECTION('center_axis',(0.,0.,1.));
#774=DIRECTION('ref_axis',(1.,0.,0.));
#775=DIRECTION('',(0.,0.,-1.));
#776=DIRECTION('center_axis',(0.,0.,1.));
#777=DIRECTION('ref_axis',(1.,0.,0.));
#778=DIRECTION('center_axis',(0.,0.,1.));
#779=DIRECTION('ref_axis',(1.,0.,0.));
#780=DIRECTION('center_axis',(0.,0.,1.));
#781=DIRECTION('ref_axis',(1.,0.,0.));
#782=DIRECTION('',(0.,0.,1.));
#783=DIRECTION('',(1.,0.,0.));
#784=CARTESIAN_POINT('',(0.,0.,0.));
#785=CARTESIAN_POINT('',(0.,0.,0.));
#786=CARTESIAN_POINT('Origin',(-130.292040945842,92.9243490438604,15.));
#787=CARTESIAN_POINT('',(-128.626040945842,92.9243490438604,15.));
#788=CARTESIAN_POINT('Origin',(-130.292040945842,92.9243490438604,15.));
#789=CARTESIAN_POINT('',(-128.626040945842,92.9243490438604,10.));
#790=CARTESIAN_POINT('',(-128.626040945842,92.9243490438604,15.));
#791=CARTESIAN_POINT('Origin',(-130.292040945842,92.9243490438604,10.));
#792=CARTESIAN_POINT('Origin',(-130.292040945842,92.9243490438604,10.));
#793=CARTESIAN_POINT('Origin',(-369.707959054158,157.07565095614,15.));
#794=CARTESIAN_POINT('',(-368.041959054158,157.07565095614,15.));
#795=CARTESIAN_POINT('Origin',(-369.707959054158,157.07565095614,15.));
#796=CARTESIAN_POINT('',(-368.041959054158,157.07565095614,10.));
#797=CARTESIAN_POINT('',(-368.041959054158,157.07565095614,15.));
#798=CARTESIAN_POINT('Origin',(-369.707959054158,157.07565095614,10.));
#799=CARTESIAN_POINT('Origin',(-369.707959054158,157.07565095614,10.));
#800=CARTESIAN_POINT('Origin',(-218.000003248453,245.000003650784,15.));
#801=CARTESIAN_POINT('',(-216.334003248453,245.000003650784,15.));
#802=CARTESIAN_POINT('Origin',(-218.000003248453,245.000003650784,15.));
#803=CARTESIAN_POINT('',(-216.334003248453,245.000003650784,10.));
#804=CARTESIAN_POINT('',(-216.334003248453,245.000003650784,15.));
#805=CARTESIAN_POINT('Origin',(-218.000003248453,245.000003650784,10.));
#806=CARTESIAN_POINT('Origin',(-218.000003248453,245.000003650784,10.));
#807=CARTESIAN_POINT('Origin',(-282.07565095614,5.29204094584198,15.));
#808=CARTESIAN_POINT('',(-280.40965095614,5.29204094584198,15.));
#809=CARTESIAN_POINT('Origin',(-282.07565095614,5.29204094584198,15.));
#810=CARTESIAN_POINT('',(-280.40965095614,5.29204094584198,10.));
#811=CARTESIAN_POINT('',(-280.40965095614,5.29204094584198,15.));
#812=CARTESIAN_POINT('Origin',(-282.07565095614,5.29204094584198,10.));
#813=CARTESIAN_POINT('Origin',(-282.07565095614,5.29204094584198,10.));
#814=CARTESIAN_POINT('Origin',(-282.07565095614,5.29204094584198,5.));
#815=CARTESIAN_POINT('',(-274.07565095614,5.29204094584198,15.));
#816=CARTESIAN_POINT('Origin',(-282.07565095614,5.29204094584198,15.));
#817=CARTESIAN_POINT('',(-274.07565095614,5.29204094584198,5.));
#818=CARTESIAN_POINT('',(-274.07565095614,5.29204094584198,5.));
#819=CARTESIAN_POINT('Origin',(-282.07565095614,5.29204094584198,5.));
#820=CARTESIAN_POINT('Origin',(-282.07565095614,5.29204094584198,15.));
#821=CARTESIAN_POINT('Origin',(-217.92434904386,244.707959054158,5.));
#822=CARTESIAN_POINT('',(-209.92434904386,244.707959054158,15.));
#823=CARTESIAN_POINT('Origin',(-217.92434904386,244.707959054158,15.));
#824=CARTESIAN_POINT('',(-209.92434904386,244.707959054158,5.));
#825=CARTESIAN_POINT('',(-209.92434904386,244.707959054158,5.));
#826=CARTESIAN_POINT('Origin',(-217.92434904386,244.707959054158,5.));
#827=CARTESIAN_POINT('Origin',(-217.92434904386,244.707959054158,15.));
#828=CARTESIAN_POINT('Origin',(-130.292040945842,92.9243490438604,5.));
#829=CARTESIAN_POINT('',(-122.292040945842,92.9243490438604,15.));
#830=CARTESIAN_POINT('Origin',(-130.292040945842,92.9243490438604,15.));
#831=CARTESIAN_POINT('',(-122.292040945842,92.9243490438604,5.));
#832=CARTESIAN_POINT('',(-122.292040945842,92.9243490438604,5.));
#833=CARTESIAN_POINT('Origin',(-130.292040945842,92.9243490438604,5.));
#834=CARTESIAN_POINT('Origin',(-130.292040945842,92.9243490438604,15.));
#835=CARTESIAN_POINT('Origin',(-369.707959054158,157.07565095614,5.));
#836=CARTESIAN_POINT('',(-361.707959054158,157.07565095614,15.));
#837=CARTESIAN_POINT('Origin',(-369.707959054158,157.07565095614,15.));
#838=CARTESIAN_POINT('',(-361.707959054158,157.07565095614,5.));
#839=CARTESIAN_POINT('',(-361.707959054158,157.07565095614,5.));
#840=CARTESIAN_POINT('Origin',(-369.707959054158,157.07565095614,5.));
#841=CARTESIAN_POINT('Origin',(-369.707959054158,157.07565095614,15.));
#842=CARTESIAN_POINT('Origin',(-187.5,16.7468245269452,0.));
#843=CARTESIAN_POINT('',(-195.5,16.7468245269452,5.));
#844=CARTESIAN_POINT('Origin',(-187.5,16.7468245269452,5.));
#845=CARTESIAN_POINT('',(-195.5,16.7468245269452,0.));
#846=CARTESIAN_POINT('',(-195.5,16.7468245269452,0.));
#847=CARTESIAN_POINT('Origin',(-187.5,16.7468245269452,0.));
#848=CARTESIAN_POINT('Origin',(-358.253175473055,62.5,0.));
#849=CARTESIAN_POINT('',(-366.253175473055,62.5,5.));
#850=CARTESIAN_POINT('Origin',(-358.253175473055,62.5,5.));
#851=CARTESIAN_POINT('',(-366.253175473055,62.5,0.));
#852=CARTESIAN_POINT('',(-366.253175473055,62.5,0.));
#853=CARTESIAN_POINT('Origin',(-358.253175473055,62.5,0.));
#854=CARTESIAN_POINT('Origin',(-312.5,16.7468245269452,0.));
#855=CARTESIAN_POINT('',(-320.5,16.7468245269452,5.));
#856=CARTESIAN_POINT('Origin',(-312.5,16.7468245269452,5.));
#857=CARTESIAN_POINT('',(-320.5,16.7468245269452,0.));
#858=CARTESIAN_POINT('',(-320.5,16.7468245269452,0.));
#859=CARTESIAN_POINT('Origin',(-312.5,16.7468245269452,0.));
#860=CARTESIAN_POINT('Origin',(-141.746824526945,187.5,0.));
#861=CARTESIAN_POINT('',(-149.746824526945,187.5,5.));
#862=CARTESIAN_POINT('Origin',(-141.746824526945,187.5,5.));
#863=CARTESIAN_POINT('',(-149.746824526945,187.5,0.));
#864=CARTESIAN_POINT('',(-149.746824526945,187.5,0.));
#865=CARTESIAN_POINT('Origin',(-141.746824526945,187.5,0.));
#866=CARTESIAN_POINT('Origin',(-358.253175473055,187.5,0.));
#867=CARTESIAN_POINT('',(-366.253175473055,187.5,5.));
#868=CARTESIAN_POINT('Origin',(-358.253175473055,187.5,5.));
#869=CARTESIAN_POINT('',(-366.253175473055,187.5,0.));
#870=CARTESIAN_POINT('',(-366.253175473055,187.5,0.));
#871=CARTESIAN_POINT('Origin',(-358.253175473055,187.5,0.));
#872=CARTESIAN_POINT('Origin',(-141.746824526945,62.5,0.));
#873=CARTESIAN_POINT('',(-149.746824526945,62.5,5.));
#874=CARTESIAN_POINT('Origin',(-141.746824526945,62.5,5.));
#875=CARTESIAN_POINT('',(-149.746824526945,62.5,0.));
#876=CARTESIAN_POINT('',(-149.746824526945,62.5,0.));
#877=CARTESIAN_POINT('Origin',(-141.746824526945,62.5,0.));
#878=CARTESIAN_POINT('Origin',(-250.,0.,0.));
#879=CARTESIAN_POINT('',(-258.,0.,5.));
#880=CARTESIAN_POINT('Origin',(-250.,0.,5.));
#881=CARTESIAN_POINT('',(-258.,-9.79717439317884E-16,0.));
#882=CARTESIAN_POINT('',(-258.,-9.79717439317884E-16,0.));
#883=CARTESIAN_POINT('Origin',(-250.,0.,0.));
#884=CARTESIAN_POINT('Origin',(-312.5,233.253175473055,0.));
#885=CARTESIAN_POINT('',(-320.5,233.253175473055,5.));
#886=CARTESIAN_POINT('Origin',(-312.5,233.253175473055,5.));
#887=CARTESIAN_POINT('',(-320.5,233.253175473055,0.));
#888=CARTESIAN_POINT('',(-320.5,233.253175473055,0.));
#889=CARTESIAN_POINT('Origin',(-312.5,233.253175473055,0.));
#890=CARTESIAN_POINT('Origin',(-375.,125.,0.));
#891=CARTESIAN_POINT('',(-383.,125.,5.));
#892=CARTESIAN_POINT('Origin',(-375.,125.,5.));
#893=CARTESIAN_POINT('',(-383.,125.,0.));
#894=CARTESIAN_POINT('',(-383.,125.,0.));
#895=CARTESIAN_POINT('Origin',(-375.,125.,0.));
#896=CARTESIAN_POINT('Origin',(-250.,250.,0.));
#897=CARTESIAN_POINT('',(-258.,250.,5.));
#898=CARTESIAN_POINT('Origin',(-250.,250.,5.));
#899=CARTESIAN_POINT('',(-258.,250.,0.));
#900=CARTESIAN_POINT('',(-258.,250.,0.));
#901=CARTESIAN_POINT('Origin',(-250.,250.,0.));
#902=CARTESIAN_POINT('Origin',(-187.5,233.253175473055,0.));
#903=CARTESIAN_POINT('',(-195.5,233.253175473055,5.));
#904=CARTESIAN_POINT('Origin',(-187.5,233.253175473055,5.));
#905=CARTESIAN_POINT('',(-195.5,233.253175473055,0.));
#906=CARTESIAN_POINT('',(-195.5,233.253175473055,0.));
#907=CARTESIAN_POINT('Origin',(-187.5,233.253175473055,0.));
#908=CARTESIAN_POINT('Origin',(-125.,125.,0.));
#909=CARTESIAN_POINT('',(-133.,125.,5.));
#910=CARTESIAN_POINT('Origin',(-125.,125.,5.));
#911=CARTESIAN_POINT('',(-133.,125.,0.));
#912=CARTESIAN_POINT('',(-133.,125.,0.));
#913=CARTESIAN_POINT('Origin',(-125.,125.,0.));
#914=CARTESIAN_POINT('Origin',(-250.,125.,0.));
#915=CARTESIAN_POINT('',(-400.,125.,5.));
#916=CARTESIAN_POINT('Origin',(-250.,125.,5.));
#917=CARTESIAN_POINT('',(-400.,125.,0.));
#918=CARTESIAN_POINT('',(-400.,125.,0.));
#919=CARTESIAN_POINT('Origin',(-250.,125.,0.));
#920=CARTESIAN_POINT('Origin',(-250.,125.,5.));
#921=CARTESIAN_POINT('Origin',(-250.,125.,0.));
#922=CARTESIAN_POINT('',(0.,0.,0.));
#923=UNCERTAINTY_MEASURE_WITH_UNIT(LENGTH_MEASURE(0.01),#929,
'DISTANCE_ACCURACY_VALUE',
'Maximum model space distance between geometric entities at asserted c
onnectivities');
#924=UNCERTAINTY_MEASURE_WITH_UNIT(LENGTH_MEASURE(0.01),#929,
'DISTANCE_ACCURACY_VALUE',
'Maximum model space distance between geometric entities at asserted c
onnectivities');
#925=UNCERTAINTY_MEASURE_WITH_UNIT(LENGTH_MEASURE(0.01),#929,
'DISTANCE_ACCURACY_VALUE',
'Maximum model space distance between geometric entities at asserted c
onnectivities');
#926=(
GEOMETRIC_REPRESENTATION_CONTEXT(3)
GLOBAL_UNCERTAINTY_ASSIGNED_CONTEXT((#923))
GLOBAL_UNIT_ASSIGNED_CONTEXT((#929,#931,#932))
REPRESENTATION_CONTEXT('','3D')
);
#927=(
GEOMETRIC_REPRESENTATION_CONTEXT(3)
GLOBAL_UNCERTAINTY_ASSIGNED_CONTEXT((#924))
GLOBAL_UNIT_ASSIGNED_CONTEXT((#929,#931,#932))
REPRESENTATION_CONTEXT('','3D')
);
#928=(
GEOMETRIC_REPRESENTATION_CONTEXT(3)
GLOBAL_UNCERTAINTY_ASSIGNED_CONTEXT((#925))
GLOBAL_UNIT_ASSIGNED_CONTEXT((#929,#931,#932))
REPRESENTATION_CONTEXT('','3D')
);
#929=(
LENGTH_UNIT()
NAMED_UNIT(*)
SI_UNIT(.MILLI.,.METRE.)
);
#930=(
LENGTH_UNIT()
NAMED_UNIT(*)
SI_UNIT($,.METRE.)
);
#931=(
NAMED_UNIT(*)
PLANE_ANGLE_UNIT()
SI_UNIT($,.RADIAN.)
);
#932=(
NAMED_UNIT(*)
SI_UNIT($,.STERADIAN.)
SOLID_ANGLE_UNIT()
);
#933=SHAPE_DEFINITION_REPRESENTATION(#935,#938);
#934=SHAPE_DEFINITION_REPRESENTATION(#936,#939);
#935=PRODUCT_DEFINITION_SHAPE('',$,#941);
#936=PRODUCT_DEFINITION_SHAPE('',$,#942);
#937=PRODUCT_DEFINITION_SHAPE($,$,#14);
#938=SHAPE_REPRESENTATION('',(#535,#610),#926);
#939=SHAPE_REPRESENTATION('',(#536),#927);
#940=PRODUCT_DEFINITION_CONTEXT('part definition',#948,'design');
#941=PRODUCT_DEFINITION('2026-09-26-23-01-07-084','mount_disc',#943,#940);
#942=PRODUCT_DEFINITION('2026-09-26-23-23-19-979','Component1',#944,#940);
#943=PRODUCT_DEFINITION_FORMATION('',$,#950);
#944=PRODUCT_DEFINITION_FORMATION('',$,#951);
#945=PRODUCT_RELATED_PRODUCT_CATEGORY('mount_disc','mount_disc',(#950));
#946=PRODUCT_RELATED_PRODUCT_CATEGORY('Component1','Component1',(#951));
#947=APPLICATION_PROTOCOL_DEFINITION('international standard',
'automotive_design',2009,#948);
#948=APPLICATION_CONTEXT(
'Core Data for Automotive Mechanical Design Process');
#949=PRODUCT_CONTEXT('part definition',#948,'mechanical');
#950=PRODUCT('2026-09-26-23-01-07-084','mount_disc',$,(#949));
#951=PRODUCT('2026-09-26-23-23-19-979','Component1',$,(#949));
#952=PRESENTATION_STYLE_ASSIGNMENT((#953));
#953=SURFACE_STYLE_USAGE(.BOTH.,#954);
#954=SURFACE_SIDE_STYLE('',(#955));
#955=SURFACE_STYLE_FILL_AREA(#956);
#956=FILL_AREA_STYLE('Steel - Satin',(#957));
#957=FILL_AREA_STYLE_COLOUR('Steel - Satin',#958);
#958=COLOUR_RGB('Steel - Satin',0.627450980392157,0.627450980392157,0.627450980392157);
ENDSEC;
END-ISO-10303-21;
