ISO-10303-21;
HEADER;
/* Generated by software containing ST-Developer
 * from STEP Tools, Inc. (www.steptools.com) 
 */

FILE_DESCRIPTION(
/* description */ (''),
/* implementation_level */ '2;1');

FILE_NAME(
/* name */ 'Rim.step',
/* time_stamp */ '2026-09-26T22:15:50+05:30',
/* author */ (''),
/* organization */ (''),
/* preprocessor_version */ 'ST-DEVELOPER v20.2',
/* originating_system */ 'Autodesk Translation Framework v15.15.0.0',
/* authorisation */ '');

FILE_SCHEMA (('AUTOMOTIVE_DESIGN { 1 0 10303 214 3 1 1 }'));
ENDSEC;

DATA;
#10=MECHANICAL_DESIGN_GEOMETRIC_PRESENTATION_REPRESENTATION('',(#13),#1093);
#11=SHAPE_REPRESENTATION_RELATIONSHIP('SRR','None',#1100,#12);
#12=ADVANCED_BREP_SHAPE_REPRESENTATION('',(#14),#1092);
#13=STYLED_ITEM('',(#1109),#14);
#14=MANIFOLD_SOLID_BREP('Body1',#621);
#15=FACE_BOUND('',#116,.T.);
#16=FACE_BOUND('',#117,.T.);
#17=FACE_BOUND('',#118,.T.);
#18=FACE_BOUND('',#119,.T.);
#19=FACE_BOUND('',#120,.T.);
#20=FACE_BOUND('',#121,.T.);
#21=FACE_BOUND('',#122,.T.);
#22=FACE_BOUND('',#123,.T.);
#23=FACE_BOUND('',#124,.T.);
#24=FACE_BOUND('',#125,.T.);
#25=FACE_BOUND('',#126,.T.);
#26=FACE_BOUND('',#127,.T.);
#27=FACE_BOUND('',#128,.T.);
#28=FACE_BOUND('',#131,.T.);
#29=FACE_BOUND('',#132,.T.);
#30=FACE_BOUND('',#133,.T.);
#31=FACE_BOUND('',#134,.T.);
#32=FACE_BOUND('',#135,.T.);
#33=FACE_BOUND('',#136,.T.);
#34=FACE_BOUND('',#137,.T.);
#35=FACE_BOUND('',#138,.T.);
#36=FACE_BOUND('',#139,.T.);
#37=FACE_BOUND('',#140,.T.);
#38=FACE_BOUND('',#141,.T.);
#39=FACE_BOUND('',#142,.T.);
#40=FACE_BOUND('',#143,.T.);
#41=PLANE('',#692);
#42=PLANE('',#696);
#43=CONICAL_SURFACE('',#671,162.071067811866,0.78539816339745);
#44=CONICAL_SURFACE('',#676,182.953166729879,0.672312680588349);
#45=CONICAL_SURFACE('',#678,203.187373110342,1.4577108439858);
#46=CONICAL_SURFACE('',#680,209.328436864983,0.113085482809103);
#47=CONICAL_SURFACE('',#682,201.594230484521,1.45771084398579);
#48=CONICAL_SURFACE('',#684,179.142135623731,0.67231268058835);
#49=CONICAL_SURFACE('',#688,157.071067811865,0.785398163397448);
#50=CONICAL_SURFACE('',#700,157.071067811865,0.785398163397449);
#51=CONICAL_SURFACE('',#704,179.142135623731,0.672312680588351);
#52=CONICAL_SURFACE('',#706,201.594230484521,1.45771084398579);
#53=CONICAL_SURFACE('',#708,209.328436864983,0.113085482809098);
#54=CONICAL_SURFACE('',#710,203.187373110342,1.45771084398581);
#55=CONICAL_SURFACE('',#712,182.953166729879,0.67231268058835);
#56=CONICAL_SURFACE('',#716,162.071067811865,0.785398163397448);
#57=FACE_OUTER_BOUND('',#93,.T.);
#58=FACE_OUTER_BOUND('',#94,.T.);
#59=FACE_OUTER_BOUND('',#95,.T.);
#60=FACE_OUTER_BOUND('',#96,.T.);
#61=FACE_OUTER_BOUND('',#97,.T.);
#62=FACE_OUTER_BOUND('',#98,.T.);
#63=FACE_OUTER_BOUND('',#99,.T.);
#64=FACE_OUTER_BOUND('',#100,.T.);
#65=FACE_OUTER_BOUND('',#101,.T.);
#66=FACE_OUTER_BOUND('',#102,.T.);
#67=FACE_OUTER_BOUND('',#103,.T.);
#68=FACE_OUTER_BOUND('',#104,.T.);
#69=FACE_OUTER_BOUND('',#105,.T.);
#70=FACE_OUTER_BOUND('',#106,.T.);
#71=FACE_OUTER_BOUND('',#107,.T.);
#72=FACE_OUTER_BOUND('',#108,.T.);
#73=FACE_OUTER_BOUND('',#109,.T.);
#74=FACE_OUTER_BOUND('',#110,.T.);
#75=FACE_OUTER_BOUND('',#111,.T.);
#76=FACE_OUTER_BOUND('',#112,.T.);
#77=FACE_OUTER_BOUND('',#113,.T.);
#78=FACE_OUTER_BOUND('',#114,.T.);
#79=FACE_OUTER_BOUND('',#115,.T.);
#80=FACE_OUTER_BOUND('',#129,.T.);
#81=FACE_OUTER_BOUND('',#130,.T.);
#82=FACE_OUTER_BOUND('',#144,.T.);
#83=FACE_OUTER_BOUND('',#145,.T.);
#84=FACE_OUTER_BOUND('',#146,.T.);
#85=FACE_OUTER_BOUND('',#147,.T.);
#86=FACE_OUTER_BOUND('',#148,.T.);
#87=FACE_OUTER_BOUND('',#149,.T.);
#88=FACE_OUTER_BOUND('',#150,.T.);
#89=FACE_OUTER_BOUND('',#151,.T.);
#90=FACE_OUTER_BOUND('',#152,.T.);
#91=FACE_OUTER_BOUND('',#153,.T.);
#92=FACE_OUTER_BOUND('',#154,.T.);
#93=EDGE_LOOP('',(#401,#402,#403,#404));
#94=EDGE_LOOP('',(#405,#406,#407,#408));
#95=EDGE_LOOP('',(#409,#410,#411,#412));
#96=EDGE_LOOP('',(#413,#414,#415,#416));
#97=EDGE_LOOP('',(#417,#418,#419,#420));
#98=EDGE_LOOP('',(#421,#422,#423,#424));
#99=EDGE_LOOP('',(#425,#426,#427,#428));
#100=EDGE_LOOP('',(#429,#430,#431,#432));
#101=EDGE_LOOP('',(#433,#434,#435,#436));
#102=EDGE_LOOP('',(#437,#438,#439,#440));
#103=EDGE_LOOP('',(#441,#442,#443,#444));
#104=EDGE_LOOP('',(#445,#446,#447,#448));
#105=EDGE_LOOP('',(#449,#450,#451,#452));
#106=EDGE_LOOP('',(#453,#454,#455,#456));
#107=EDGE_LOOP('',(#457,#458,#459,#460));
#108=EDGE_LOOP('',(#461,#462,#463,#464));
#109=EDGE_LOOP('',(#465,#466,#467,#468));
#110=EDGE_LOOP('',(#469,#470,#471,#472));
#111=EDGE_LOOP('',(#473,#474,#475,#476));
#112=EDGE_LOOP('',(#477,#478,#479,#480));
#113=EDGE_LOOP('',(#481,#482,#483,#484));
#114=EDGE_LOOP('',(#485,#486,#487,#488));
#115=EDGE_LOOP('',(#489));
#116=EDGE_LOOP('',(#490));
#117=EDGE_LOOP('',(#491));
#118=EDGE_LOOP('',(#492));
#119=EDGE_LOOP('',(#493));
#120=EDGE_LOOP('',(#494));
#121=EDGE_LOOP('',(#495));
#122=EDGE_LOOP('',(#496));
#123=EDGE_LOOP('',(#497));
#124=EDGE_LOOP('',(#498));
#125=EDGE_LOOP('',(#499));
#126=EDGE_LOOP('',(#500));
#127=EDGE_LOOP('',(#501));
#128=EDGE_LOOP('',(#502));
#129=EDGE_LOOP('',(#503,#504,#505,#506));
#130=EDGE_LOOP('',(#507));
#131=EDGE_LOOP('',(#508));
#132=EDGE_LOOP('',(#509));
#133=EDGE_LOOP('',(#510));
#134=EDGE_LOOP('',(#511));
#135=EDGE_LOOP('',(#512));
#136=EDGE_LOOP('',(#513));
#137=EDGE_LOOP('',(#514));
#138=EDGE_LOOP('',(#515));
#139=EDGE_LOOP('',(#516));
#140=EDGE_LOOP('',(#517));
#141=EDGE_LOOP('',(#518));
#142=EDGE_LOOP('',(#519));
#143=EDGE_LOOP('',(#520));
#144=EDGE_LOOP('',(#521,#522,#523,#524));
#145=EDGE_LOOP('',(#525,#526,#527,#528));
#146=EDGE_LOOP('',(#529,#530,#531,#532));
#147=EDGE_LOOP('',(#533,#534,#535,#536));
#148=EDGE_LOOP('',(#537,#538,#539,#540));
#149=EDGE_LOOP('',(#541,#542,#543,#544));
#150=EDGE_LOOP('',(#545,#546,#547,#548));
#151=EDGE_LOOP('',(#549,#550,#551,#552));
#152=EDGE_LOOP('',(#553,#554,#555,#556));
#153=EDGE_LOOP('',(#557,#558,#559,#560));
#154=EDGE_LOOP('',(#561,#562,#563,#564));
#155=LINE('',#928,#189);
#156=LINE('',#934,#190);
#157=LINE('',#940,#191);
#158=LINE('',#946,#192);
#159=LINE('',#952,#193);
#160=LINE('',#958,#194);
#161=LINE('',#964,#195);
#162=LINE('',#970,#196);
#163=LINE('',#976,#197);
#164=LINE('',#982,#198);
#165=LINE('',#988,#199);
#166=LINE('',#994,#200);
#167=LINE('',#1000,#201);
#168=LINE('',#1005,#202);
#169=LINE('',#1009,#203);
#170=LINE('',#1013,#204);
#171=LINE('',#1017,#205);
#172=LINE('',#1020,#206);
#173=LINE('',#1024,#207);
#174=LINE('',#1028,#208);
#175=LINE('',#1032,#209);
#176=LINE('',#1036,#210);
#177=LINE('',#1043,#211);
#178=LINE('',#1050,#212);
#179=LINE('',#1054,#213);
#180=LINE('',#1058,#214);
#181=LINE('',#1062,#215);
#182=LINE('',#1066,#216);
#183=LINE('',#1071,#217);
#184=LINE('',#1075,#218);
#185=LINE('',#1079,#219);
#186=LINE('',#1083,#220);
#187=LINE('',#1087,#221);
#188=LINE('',#1089,#222);
#189=VECTOR('',#725,8.);
#190=VECTOR('',#732,8.00000000000001);
#191=VECTOR('',#739,8.);
#192=VECTOR('',#746,8.);
#193=VECTOR('',#753,8.00000000000001);
#194=VECTOR('',#760,8.);
#195=VECTOR('',#767,8.00000000000001);
#196=VECTOR('',#774,7.99999999999999);
#197=VECTOR('',#781,8.);
#198=VECTOR('',#788,8.);
#199=VECTOR('',#795,8.00000000000001);
#200=VECTOR('',#802,8.00000000000001);
#201=VECTOR('',#809,162.071067811866);
#202=VECTOR('',#816,169.142135623731);
#203=VECTOR('',#821,182.953166729879);
#204=VECTOR('',#826,203.187373110342);
#205=VECTOR('',#831,209.328436864983);
#206=VECTOR('',#834,201.594230484521);
#207=VECTOR('',#839,179.142135623731);
#208=VECTOR('',#844,164.142135623731);
#209=VECTOR('',#849,157.071067811865);
#210=VECTOR('',#854,150.);
#211=VECTOR('',#863,100.);
#212=VECTOR('',#872,150.);
#213=VECTOR('',#877,157.071067811865);
#214=VECTOR('',#882,164.142135623731);
#215=VECTOR('',#887,179.142135623731);
#216=VECTOR('',#892,201.594230484521);
#217=VECTOR('',#899,209.328436864983);
#218=VECTOR('',#904,203.187373110342);
#219=VECTOR('',#909,182.953166729879);
#220=VECTOR('',#914,169.142135623731);
#221=VECTOR('',#919,162.071067811865);
#222=VECTOR('',#922,155.);
#223=CIRCLE('',#636,8.);
#224=CIRCLE('',#637,8.);
#225=CIRCLE('',#639,8.00000000000001);
#226=CIRCLE('',#640,8.00000000000001);
#227=CIRCLE('',#642,8.);
#228=CIRCLE('',#643,8.);
#229=CIRCLE('',#645,8.);
#230=CIRCLE('',#646,8.);
#231=CIRCLE('',#648,8.00000000000001);
#232=CIRCLE('',#649,8.00000000000001);
#233=CIRCLE('',#651,8.);
#234=CIRCLE('',#652,8.);
#235=CIRCLE('',#654,8.00000000000001);
#236=CIRCLE('',#655,8.00000000000001);
#237=CIRCLE('',#657,7.99999999999999);
#238=CIRCLE('',#658,7.99999999999999);
#239=CIRCLE('',#660,8.);
#240=CIRCLE('',#661,8.);
#241=CIRCLE('',#663,8.);
#242=CIRCLE('',#664,8.);
#243=CIRCLE('',#666,8.00000000000001);
#244=CIRCLE('',#667,8.00000000000001);
#245=CIRCLE('',#669,8.00000000000001);
#246=CIRCLE('',#670,8.00000000000001);
#247=CIRCLE('',#672,169.142135623731);
#248=CIRCLE('',#673,155.);
#249=CIRCLE('',#675,169.142135623731);
#250=CIRCLE('',#677,196.764197836028);
#251=CIRCLE('',#679,209.610548384655);
#252=CIRCLE('',#681,209.046325345311);
#253=CIRCLE('',#683,194.142135623731);
#254=CIRCLE('',#685,164.142135623731);
#255=CIRCLE('',#687,164.142135623731);
#256=CIRCLE('',#689,150.);
#257=CIRCLE('',#691,150.);
#258=CIRCLE('',#693,100.);
#259=CIRCLE('',#695,100.);
#260=CIRCLE('',#697,150.);
#261=CIRCLE('',#699,150.);
#262=CIRCLE('',#701,164.142135623731);
#263=CIRCLE('',#703,164.142135623731);
#264=CIRCLE('',#705,194.142135623731);
#265=CIRCLE('',#707,209.046325345311);
#266=CIRCLE('',#709,209.610548384655);
#267=CIRCLE('',#711,196.764197836028);
#268=CIRCLE('',#713,169.142135623731);
#269=CIRCLE('',#715,169.142135623731);
#270=CIRCLE('',#717,155.);
#271=VERTEX_POINT('',#925);
#272=VERTEX_POINT('',#927);
#273=VERTEX_POINT('',#931);
#274=VERTEX_POINT('',#933);
#275=VERTEX_POINT('',#937);
#276=VERTEX_POINT('',#939);
#277=VERTEX_POINT('',#943);
#278=VERTEX_POINT('',#945);
#279=VERTEX_POINT('',#949);
#280=VERTEX_POINT('',#951);
#281=VERTEX_POINT('',#955);
#282=VERTEX_POINT('',#957);
#283=VERTEX_POINT('',#961);
#284=VERTEX_POINT('',#963);
#285=VERTEX_POINT('',#967);
#286=VERTEX_POINT('',#969);
#287=VERTEX_POINT('',#973);
#288=VERTEX_POINT('',#975);
#289=VERTEX_POINT('',#979);
#290=VERTEX_POINT('',#981);
#291=VERTEX_POINT('',#985);
#292=VERTEX_POINT('',#987);
#293=VERTEX_POINT('',#991);
#294=VERTEX_POINT('',#993);
#295=VERTEX_POINT('',#997);
#296=VERTEX_POINT('',#999);
#297=VERTEX_POINT('',#1003);
#298=VERTEX_POINT('',#1007);
#299=VERTEX_POINT('',#1011);
#300=VERTEX_POINT('',#1015);
#301=VERTEX_POINT('',#1019);
#302=VERTEX_POINT('',#1023);
#303=VERTEX_POINT('',#1027);
#304=VERTEX_POINT('',#1031);
#305=VERTEX_POINT('',#1035);
#306=VERTEX_POINT('',#1039);
#307=VERTEX_POINT('',#1042);
#308=VERTEX_POINT('',#1046);
#309=VERTEX_POINT('',#1049);
#310=VERTEX_POINT('',#1053);
#311=VERTEX_POINT('',#1057);
#312=VERTEX_POINT('',#1061);
#313=VERTEX_POINT('',#1065);
#314=VERTEX_POINT('',#1069);
#315=VERTEX_POINT('',#1073);
#316=VERTEX_POINT('',#1077);
#317=VERTEX_POINT('',#1081);
#318=VERTEX_POINT('',#1085);
#319=EDGE_CURVE('',#271,#271,#223,.T.);
#320=EDGE_CURVE('',#271,#272,#155,.T.);
#321=EDGE_CURVE('',#272,#272,#224,.T.);
#322=EDGE_CURVE('',#273,#273,#225,.T.);
#323=EDGE_CURVE('',#273,#274,#156,.T.);
#324=EDGE_CURVE('',#274,#274,#226,.T.);
#325=EDGE_CURVE('',#275,#275,#227,.T.);
#326=EDGE_CURVE('',#275,#276,#157,.T.);
#327=EDGE_CURVE('',#276,#276,#228,.T.);
#328=EDGE_CURVE('',#277,#277,#229,.T.);
#329=EDGE_CURVE('',#277,#278,#158,.T.);
#330=EDGE_CURVE('',#278,#278,#230,.T.);
#331=EDGE_CURVE('',#279,#279,#231,.T.);
#332=EDGE_CURVE('',#279,#280,#159,.T.);
#333=EDGE_CURVE('',#280,#280,#232,.T.);
#334=EDGE_CURVE('',#281,#281,#233,.T.);
#335=EDGE_CURVE('',#281,#282,#160,.T.);
#336=EDGE_CURVE('',#282,#282,#234,.T.);
#337=EDGE_CURVE('',#283,#283,#235,.T.);
#338=EDGE_CURVE('',#283,#284,#161,.T.);
#339=EDGE_CURVE('',#284,#284,#236,.T.);
#340=EDGE_CURVE('',#285,#285,#237,.T.);
#341=EDGE_CURVE('',#285,#286,#162,.T.);
#342=EDGE_CURVE('',#286,#286,#238,.T.);
#343=EDGE_CURVE('',#287,#287,#239,.T.);
#344=EDGE_CURVE('',#287,#288,#163,.T.);
#345=EDGE_CURVE('',#288,#288,#240,.T.);
#346=EDGE_CURVE('',#289,#289,#241,.T.);
#347=EDGE_CURVE('',#289,#290,#164,.T.);
#348=EDGE_CURVE('',#290,#290,#242,.T.);
#349=EDGE_CURVE('',#291,#291,#243,.T.);
#350=EDGE_CURVE('',#291,#292,#165,.T.);
#351=EDGE_CURVE('',#292,#292,#244,.T.);
#352=EDGE_CURVE('',#293,#293,#245,.T.);
#353=EDGE_CURVE('',#293,#294,#166,.T.);
#354=EDGE_CURVE('',#294,#294,#246,.T.);
#355=EDGE_CURVE('',#295,#295,#247,.T.);
#356=EDGE_CURVE('',#295,#296,#167,.T.);
#357=EDGE_CURVE('',#296,#296,#248,.T.);
#358=EDGE_CURVE('',#297,#297,#249,.T.);
#359=EDGE_CURVE('',#297,#295,#168,.T.);
#360=EDGE_CURVE('',#298,#298,#250,.T.);
#361=EDGE_CURVE('',#298,#297,#169,.T.);
#362=EDGE_CURVE('',#299,#299,#251,.T.);
#363=EDGE_CURVE('',#299,#298,#170,.T.);
#364=EDGE_CURVE('',#300,#300,#252,.T.);
#365=EDGE_CURVE('',#300,#299,#171,.T.);
#366=EDGE_CURVE('',#300,#301,#172,.T.);
#367=EDGE_CURVE('',#301,#301,#253,.T.);
#368=EDGE_CURVE('',#301,#302,#173,.T.);
#369=EDGE_CURVE('',#302,#302,#254,.T.);
#370=EDGE_CURVE('',#302,#303,#174,.T.);
#371=EDGE_CURVE('',#303,#303,#255,.T.);
#372=EDGE_CURVE('',#303,#304,#175,.T.);
#373=EDGE_CURVE('',#304,#304,#256,.T.);
#374=EDGE_CURVE('',#304,#305,#176,.T.);
#375=EDGE_CURVE('',#305,#305,#257,.T.);
#376=EDGE_CURVE('',#306,#306,#258,.T.);
#377=EDGE_CURVE('',#306,#307,#177,.T.);
#378=EDGE_CURVE('',#307,#307,#259,.T.);
#379=EDGE_CURVE('',#308,#308,#260,.T.);
#380=EDGE_CURVE('',#308,#309,#178,.T.);
#381=EDGE_CURVE('',#309,#309,#261,.T.);
#382=EDGE_CURVE('',#309,#310,#179,.T.);
#383=EDGE_CURVE('',#310,#310,#262,.T.);
#384=EDGE_CURVE('',#310,#311,#180,.T.);
#385=EDGE_CURVE('',#311,#311,#263,.T.);
#386=EDGE_CURVE('',#311,#312,#181,.T.);
#387=EDGE_CURVE('',#312,#312,#264,.T.);
#388=EDGE_CURVE('',#312,#313,#182,.T.);
#389=EDGE_CURVE('',#313,#313,#265,.T.);
#390=EDGE_CURVE('',#314,#314,#266,.T.);
#391=EDGE_CURVE('',#314,#313,#183,.T.);
#392=EDGE_CURVE('',#315,#315,#267,.T.);
#393=EDGE_CURVE('',#315,#314,#184,.T.);
#394=EDGE_CURVE('',#316,#316,#268,.T.);
#395=EDGE_CURVE('',#316,#315,#185,.T.);
#396=EDGE_CURVE('',#317,#317,#269,.T.);
#397=EDGE_CURVE('',#317,#316,#186,.T.);
#398=EDGE_CURVE('',#318,#318,#270,.T.);
#399=EDGE_CURVE('',#318,#317,#187,.T.);
#400=EDGE_CURVE('',#296,#318,#188,.T.);
#401=ORIENTED_EDGE('',*,*,#319,.F.);
#402=ORIENTED_EDGE('',*,*,#320,.T.);
#403=ORIENTED_EDGE('',*,*,#321,.F.);
#404=ORIENTED_EDGE('',*,*,#320,.F.);
#405=ORIENTED_EDGE('',*,*,#322,.F.);
#406=ORIENTED_EDGE('',*,*,#323,.T.);
#407=ORIENTED_EDGE('',*,*,#324,.F.);
#408=ORIENTED_EDGE('',*,*,#323,.F.);
#409=ORIENTED_EDGE('',*,*,#325,.F.);
#410=ORIENTED_EDGE('',*,*,#326,.T.);
#411=ORIENTED_EDGE('',*,*,#327,.F.);
#412=ORIENTED_EDGE('',*,*,#326,.F.);
#413=ORIENTED_EDGE('',*,*,#328,.F.);
#414=ORIENTED_EDGE('',*,*,#329,.T.);
#415=ORIENTED_EDGE('',*,*,#330,.F.);
#416=ORIENTED_EDGE('',*,*,#329,.F.);
#417=ORIENTED_EDGE('',*,*,#331,.F.);
#418=ORIENTED_EDGE('',*,*,#332,.T.);
#419=ORIENTED_EDGE('',*,*,#333,.F.);
#420=ORIENTED_EDGE('',*,*,#332,.F.);
#421=ORIENTED_EDGE('',*,*,#334,.F.);
#422=ORIENTED_EDGE('',*,*,#335,.T.);
#423=ORIENTED_EDGE('',*,*,#336,.F.);
#424=ORIENTED_EDGE('',*,*,#335,.F.);
#425=ORIENTED_EDGE('',*,*,#337,.F.);
#426=ORIENTED_EDGE('',*,*,#338,.T.);
#427=ORIENTED_EDGE('',*,*,#339,.F.);
#428=ORIENTED_EDGE('',*,*,#338,.F.);
#429=ORIENTED_EDGE('',*,*,#340,.F.);
#430=ORIENTED_EDGE('',*,*,#341,.T.);
#431=ORIENTED_EDGE('',*,*,#342,.F.);
#432=ORIENTED_EDGE('',*,*,#341,.F.);
#433=ORIENTED_EDGE('',*,*,#343,.F.);
#434=ORIENTED_EDGE('',*,*,#344,.T.);
#435=ORIENTED_EDGE('',*,*,#345,.F.);
#436=ORIENTED_EDGE('',*,*,#344,.F.);
#437=ORIENTED_EDGE('',*,*,#346,.F.);
#438=ORIENTED_EDGE('',*,*,#347,.T.);
#439=ORIENTED_EDGE('',*,*,#348,.F.);
#440=ORIENTED_EDGE('',*,*,#347,.F.);
#441=ORIENTED_EDGE('',*,*,#349,.F.);
#442=ORIENTED_EDGE('',*,*,#350,.T.);
#443=ORIENTED_EDGE('',*,*,#351,.F.);
#444=ORIENTED_EDGE('',*,*,#350,.F.);
#445=ORIENTED_EDGE('',*,*,#352,.F.);
#446=ORIENTED_EDGE('',*,*,#353,.T.);
#447=ORIENTED_EDGE('',*,*,#354,.F.);
#448=ORIENTED_EDGE('',*,*,#353,.F.);
#449=ORIENTED_EDGE('',*,*,#355,.F.);
#450=ORIENTED_EDGE('',*,*,#356,.T.);
#451=ORIENTED_EDGE('',*,*,#357,.T.);
#452=ORIENTED_EDGE('',*,*,#356,.F.);
#453=ORIENTED_EDGE('',*,*,#358,.F.);
#454=ORIENTED_EDGE('',*,*,#359,.T.);
#455=ORIENTED_EDGE('',*,*,#355,.T.);
#456=ORIENTED_EDGE('',*,*,#359,.F.);
#457=ORIENTED_EDGE('',*,*,#360,.F.);
#458=ORIENTED_EDGE('',*,*,#361,.T.);
#459=ORIENTED_EDGE('',*,*,#358,.T.);
#460=ORIENTED_EDGE('',*,*,#361,.F.);
#461=ORIENTED_EDGE('',*,*,#362,.F.);
#462=ORIENTED_EDGE('',*,*,#363,.T.);
#463=ORIENTED_EDGE('',*,*,#360,.T.);
#464=ORIENTED_EDGE('',*,*,#363,.F.);
#465=ORIENTED_EDGE('',*,*,#364,.F.);
#466=ORIENTED_EDGE('',*,*,#365,.T.);
#467=ORIENTED_EDGE('',*,*,#362,.T.);
#468=ORIENTED_EDGE('',*,*,#365,.F.);
#469=ORIENTED_EDGE('',*,*,#364,.T.);
#470=ORIENTED_EDGE('',*,*,#366,.T.);
#471=ORIENTED_EDGE('',*,*,#367,.F.);
#472=ORIENTED_EDGE('',*,*,#366,.F.);
#473=ORIENTED_EDGE('',*,*,#367,.T.);
#474=ORIENTED_EDGE('',*,*,#368,.T.);
#475=ORIENTED_EDGE('',*,*,#369,.F.);
#476=ORIENTED_EDGE('',*,*,#368,.F.);
#477=ORIENTED_EDGE('',*,*,#369,.T.);
#478=ORIENTED_EDGE('',*,*,#370,.T.);
#479=ORIENTED_EDGE('',*,*,#371,.F.);
#480=ORIENTED_EDGE('',*,*,#370,.F.);
#481=ORIENTED_EDGE('',*,*,#371,.T.);
#482=ORIENTED_EDGE('',*,*,#372,.T.);
#483=ORIENTED_EDGE('',*,*,#373,.F.);
#484=ORIENTED_EDGE('',*,*,#372,.F.);
#485=ORIENTED_EDGE('',*,*,#373,.T.);
#486=ORIENTED_EDGE('',*,*,#374,.T.);
#487=ORIENTED_EDGE('',*,*,#375,.F.);
#488=ORIENTED_EDGE('',*,*,#374,.F.);
#489=ORIENTED_EDGE('',*,*,#375,.T.);
#490=ORIENTED_EDGE('',*,*,#376,.F.);
#491=ORIENTED_EDGE('',*,*,#354,.T.);
#492=ORIENTED_EDGE('',*,*,#351,.T.);
#493=ORIENTED_EDGE('',*,*,#348,.T.);
#494=ORIENTED_EDGE('',*,*,#345,.T.);
#495=ORIENTED_EDGE('',*,*,#342,.T.);
#496=ORIENTED_EDGE('',*,*,#339,.T.);
#497=ORIENTED_EDGE('',*,*,#336,.T.);
#498=ORIENTED_EDGE('',*,*,#333,.T.);
#499=ORIENTED_EDGE('',*,*,#330,.T.);
#500=ORIENTED_EDGE('',*,*,#327,.T.);
#501=ORIENTED_EDGE('',*,*,#324,.T.);
#502=ORIENTED_EDGE('',*,*,#321,.T.);
#503=ORIENTED_EDGE('',*,*,#376,.T.);
#504=ORIENTED_EDGE('',*,*,#377,.T.);
#505=ORIENTED_EDGE('',*,*,#378,.F.);
#506=ORIENTED_EDGE('',*,*,#377,.F.);
#507=ORIENTED_EDGE('',*,*,#379,.F.);
#508=ORIENTED_EDGE('',*,*,#378,.T.);
#509=ORIENTED_EDGE('',*,*,#352,.T.);
#510=ORIENTED_EDGE('',*,*,#349,.T.);
#511=ORIENTED_EDGE('',*,*,#346,.T.);
#512=ORIENTED_EDGE('',*,*,#343,.T.);
#513=ORIENTED_EDGE('',*,*,#340,.T.);
#514=ORIENTED_EDGE('',*,*,#337,.T.);
#515=ORIENTED_EDGE('',*,*,#334,.T.);
#516=ORIENTED_EDGE('',*,*,#331,.T.);
#517=ORIENTED_EDGE('',*,*,#328,.T.);
#518=ORIENTED_EDGE('',*,*,#325,.T.);
#519=ORIENTED_EDGE('',*,*,#322,.T.);
#520=ORIENTED_EDGE('',*,*,#319,.T.);
#521=ORIENTED_EDGE('',*,*,#379,.T.);
#522=ORIENTED_EDGE('',*,*,#380,.T.);
#523=ORIENTED_EDGE('',*,*,#381,.F.);
#524=ORIENTED_EDGE('',*,*,#380,.F.);
#525=ORIENTED_EDGE('',*,*,#381,.T.);
#526=ORIENTED_EDGE('',*,*,#382,.T.);
#527=ORIENTED_EDGE('',*,*,#383,.F.);
#528=ORIENTED_EDGE('',*,*,#382,.F.);
#529=ORIENTED_EDGE('',*,*,#383,.T.);
#530=ORIENTED_EDGE('',*,*,#384,.T.);
#531=ORIENTED_EDGE('',*,*,#385,.F.);
#532=ORIENTED_EDGE('',*,*,#384,.F.);
#533=ORIENTED_EDGE('',*,*,#385,.T.);
#534=ORIENTED_EDGE('',*,*,#386,.T.);
#535=ORIENTED_EDGE('',*,*,#387,.F.);
#536=ORIENTED_EDGE('',*,*,#386,.F.);
#537=ORIENTED_EDGE('',*,*,#387,.T.);
#538=ORIENTED_EDGE('',*,*,#388,.T.);
#539=ORIENTED_EDGE('',*,*,#389,.F.);
#540=ORIENTED_EDGE('',*,*,#388,.F.);
#541=ORIENTED_EDGE('',*,*,#390,.F.);
#542=ORIENTED_EDGE('',*,*,#391,.T.);
#543=ORIENTED_EDGE('',*,*,#389,.T.);
#544=ORIENTED_EDGE('',*,*,#391,.F.);
#545=ORIENTED_EDGE('',*,*,#392,.F.);
#546=ORIENTED_EDGE('',*,*,#393,.T.);
#547=ORIENTED_EDGE('',*,*,#390,.T.);
#548=ORIENTED_EDGE('',*,*,#393,.F.);
#549=ORIENTED_EDGE('',*,*,#394,.F.);
#550=ORIENTED_EDGE('',*,*,#395,.T.);
#551=ORIENTED_EDGE('',*,*,#392,.T.);
#552=ORIENTED_EDGE('',*,*,#395,.F.);
#553=ORIENTED_EDGE('',*,*,#396,.F.);
#554=ORIENTED_EDGE('',*,*,#397,.T.);
#555=ORIENTED_EDGE('',*,*,#394,.T.);
#556=ORIENTED_EDGE('',*,*,#397,.F.);
#557=ORIENTED_EDGE('',*,*,#398,.F.);
#558=ORIENTED_EDGE('',*,*,#399,.T.);
#559=ORIENTED_EDGE('',*,*,#396,.T.);
#560=ORIENTED_EDGE('',*,*,#399,.F.);
#561=ORIENTED_EDGE('',*,*,#357,.F.);
#562=ORIENTED_EDGE('',*,*,#400,.T.);
#563=ORIENTED_EDGE('',*,*,#398,.T.);
#564=ORIENTED_EDGE('',*,*,#400,.F.);
#565=CYLINDRICAL_SURFACE('',#635,8.);
#566=CYLINDRICAL_SURFACE('',#638,8.00000000000001);
#567=CYLINDRICAL_SURFACE('',#641,8.);
#568=CYLINDRICAL_SURFACE('',#644,8.);
#569=CYLINDRICAL_SURFACE('',#647,8.00000000000001);
#570=CYLINDRICAL_SURFACE('',#650,8.);
#571=CYLINDRICAL_SURFACE('',#653,8.00000000000001);
#572=CYLINDRICAL_SURFACE('',#656,7.99999999999999);
#573=CYLINDRICAL_SURFACE('',#659,8.);
#574=CYLINDRICAL_SURFACE('',#662,8.);
#575=CYLINDRICAL_SURFACE('',#665,8.00000000000001);
#576=CYLINDRICAL_SURFACE('',#668,8.00000000000001);
#577=CYLINDRICAL_SURFACE('',#674,169.142135623731);
#578=CYLINDRICAL_SURFACE('',#686,164.142135623731);
#579=CYLINDRICAL_SURFACE('',#690,150.);
#580=CYLINDRICAL_SURFACE('',#694,100.);
#581=CYLINDRICAL_SURFACE('',#698,150.);
#582=CYLINDRICAL_SURFACE('',#702,164.142135623731);
#583=CYLINDRICAL_SURFACE('',#714,169.142135623731);
#584=CYLINDRICAL_SURFACE('',#718,155.);
#585=ADVANCED_FACE('',(#57),#565,.F.);
#586=ADVANCED_FACE('',(#58),#566,.F.);
#587=ADVANCED_FACE('',(#59),#567,.F.);
#588=ADVANCED_FACE('',(#60),#568,.F.);
#589=ADVANCED_FACE('',(#61),#569,.F.);
#590=ADVANCED_FACE('',(#62),#570,.F.);
#591=ADVANCED_FACE('',(#63),#571,.F.);
#592=ADVANCED_FACE('',(#64),#572,.F.);
#593=ADVANCED_FACE('',(#65),#573,.F.);
#594=ADVANCED_FACE('',(#66),#574,.F.);
#595=ADVANCED_FACE('',(#67),#575,.F.);
#596=ADVANCED_FACE('',(#68),#576,.F.);
#597=ADVANCED_FACE('',(#69),#43,.T.);
#598=ADVANCED_FACE('',(#70),#577,.T.);
#599=ADVANCED_FACE('',(#71),#44,.T.);
#600=ADVANCED_FACE('',(#72),#45,.T.);
#601=ADVANCED_FACE('',(#73),#46,.T.);
#602=ADVANCED_FACE('',(#74),#47,.F.);
#603=ADVANCED_FACE('',(#75),#48,.F.);
#604=ADVANCED_FACE('',(#76),#578,.F.);
#605=ADVANCED_FACE('',(#77),#49,.F.);
#606=ADVANCED_FACE('',(#78),#579,.F.);
#607=ADVANCED_FACE('',(#79,#15,#16,#17,#18,#19,#20,#21,#22,#23,#24,#25,
#26,#27),#41,.T.);
#608=ADVANCED_FACE('',(#80),#580,.F.);
#609=ADVANCED_FACE('',(#81,#28,#29,#30,#31,#32,#33,#34,#35,#36,#37,#38,
#39,#40),#42,.T.);
#610=ADVANCED_FACE('',(#82),#581,.F.);
#611=ADVANCED_FACE('',(#83),#50,.F.);
#612=ADVANCED_FACE('',(#84),#582,.F.);
#613=ADVANCED_FACE('',(#85),#51,.F.);
#614=ADVANCED_FACE('',(#86),#52,.F.);
#615=ADVANCED_FACE('',(#87),#53,.T.);
#616=ADVANCED_FACE('',(#88),#54,.T.);
#617=ADVANCED_FACE('',(#89),#55,.T.);
#618=ADVANCED_FACE('',(#90),#583,.T.);
#619=ADVANCED_FACE('',(#91),#56,.T.);
#620=ADVANCED_FACE('',(#92),#584,.T.);
#621=CLOSED_SHELL('',(#585,#586,#587,#588,#589,#590,#591,#592,#593,#594,
#595,#596,#597,#598,#599,#600,#601,#602,#603,#604,#605,#606,#607,#608,#609,
#610,#611,#612,#613,#614,#615,#616,#617,#618,#619,#620));
#622=DERIVED_UNIT_ELEMENT(#624,1.);
#623=DERIVED_UNIT_ELEMENT(#1095,-3.);
#624=(
MASS_UNIT()
NAMED_UNIT(*)
SI_UNIT(.KILO.,.GRAM.)
);
#625=DERIVED_UNIT((#622,#623));
#626=MEASURE_REPRESENTATION_ITEM('density measure',
POSITIVE_RATIO_MEASURE(7850.),#625);
#627=PROPERTY_DEFINITION_REPRESENTATION(#632,#629);
#628=PROPERTY_DEFINITION_REPRESENTATION(#633,#630);
#629=REPRESENTATION('material name',(#631),#1092);
#630=REPRESENTATION('density',(#626),#1092);
#631=DESCRIPTIVE_REPRESENTATION_ITEM('Steel','Steel');
#632=PROPERTY_DEFINITION('material property','material name',#1102);
#633=PROPERTY_DEFINITION('material property','density of part',#1102);
#634=AXIS2_PLACEMENT_3D('',#923,#719,#720);
#635=AXIS2_PLACEMENT_3D('',#924,#721,#722);
#636=AXIS2_PLACEMENT_3D('',#926,#723,#724);
#637=AXIS2_PLACEMENT_3D('',#929,#726,#727);
#638=AXIS2_PLACEMENT_3D('',#930,#728,#729);
#639=AXIS2_PLACEMENT_3D('',#932,#730,#731);
#640=AXIS2_PLACEMENT_3D('',#935,#733,#734);
#641=AXIS2_PLACEMENT_3D('',#936,#735,#736);
#642=AXIS2_PLACEMENT_3D('',#938,#737,#738);
#643=AXIS2_PLACEMENT_3D('',#941,#740,#741);
#644=AXIS2_PLACEMENT_3D('',#942,#742,#743);
#645=AXIS2_PLACEMENT_3D('',#944,#744,#745);
#646=AXIS2_PLACEMENT_3D('',#947,#747,#748);
#647=AXIS2_PLACEMENT_3D('',#948,#749,#750);
#648=AXIS2_PLACEMENT_3D('',#950,#751,#752);
#649=AXIS2_PLACEMENT_3D('',#953,#754,#755);
#650=AXIS2_PLACEMENT_3D('',#954,#756,#757);
#651=AXIS2_PLACEMENT_3D('',#956,#758,#759);
#652=AXIS2_PLACEMENT_3D('',#959,#761,#762);
#653=AXIS2_PLACEMENT_3D('',#960,#763,#764);
#654=AXIS2_PLACEMENT_3D('',#962,#765,#766);
#655=AXIS2_PLACEMENT_3D('',#965,#768,#769);
#656=AXIS2_PLACEMENT_3D('',#966,#770,#771);
#657=AXIS2_PLACEMENT_3D('',#968,#772,#773);
#658=AXIS2_PLACEMENT_3D('',#971,#775,#776);
#659=AXIS2_PLACEMENT_3D('',#972,#777,#778);
#660=AXIS2_PLACEMENT_3D('',#974,#779,#780);
#661=AXIS2_PLACEMENT_3D('',#977,#782,#783);
#662=AXIS2_PLACEMENT_3D('',#978,#784,#785);
#663=AXIS2_PLACEMENT_3D('',#980,#786,#787);
#664=AXIS2_PLACEMENT_3D('',#983,#789,#790);
#665=AXIS2_PLACEMENT_3D('',#984,#791,#792);
#666=AXIS2_PLACEMENT_3D('',#986,#793,#794);
#667=AXIS2_PLACEMENT_3D('',#989,#796,#797);
#668=AXIS2_PLACEMENT_3D('',#990,#798,#799);
#669=AXIS2_PLACEMENT_3D('',#992,#800,#801);
#670=AXIS2_PLACEMENT_3D('',#995,#803,#804);
#671=AXIS2_PLACEMENT_3D('',#996,#805,#806);
#672=AXIS2_PLACEMENT_3D('',#998,#807,#808);
#673=AXIS2_PLACEMENT_3D('',#1001,#810,#811);
#674=AXIS2_PLACEMENT_3D('',#1002,#812,#813);
#675=AXIS2_PLACEMENT_3D('',#1004,#814,#815);
#676=AXIS2_PLACEMENT_3D('',#1006,#817,#818);
#677=AXIS2_PLACEMENT_3D('',#1008,#819,#820);
#678=AXIS2_PLACEMENT_3D('',#1010,#822,#823);
#679=AXIS2_PLACEMENT_3D('',#1012,#824,#825);
#680=AXIS2_PLACEMENT_3D('',#1014,#827,#828);
#681=AXIS2_PLACEMENT_3D('',#1016,#829,#830);
#682=AXIS2_PLACEMENT_3D('',#1018,#832,#833);
#683=AXIS2_PLACEMENT_3D('',#1021,#835,#836);
#684=AXIS2_PLACEMENT_3D('',#1022,#837,#838);
#685=AXIS2_PLACEMENT_3D('',#1025,#840,#841);
#686=AXIS2_PLACEMENT_3D('',#1026,#842,#843);
#687=AXIS2_PLACEMENT_3D('',#1029,#845,#846);
#688=AXIS2_PLACEMENT_3D('',#1030,#847,#848);
#689=AXIS2_PLACEMENT_3D('',#1033,#850,#851);
#690=AXIS2_PLACEMENT_3D('',#1034,#852,#853);
#691=AXIS2_PLACEMENT_3D('',#1037,#855,#856);
#692=AXIS2_PLACEMENT_3D('',#1038,#857,#858);
#693=AXIS2_PLACEMENT_3D('',#1040,#859,#860);
#694=AXIS2_PLACEMENT_3D('',#1041,#861,#862);
#695=AXIS2_PLACEMENT_3D('',#1044,#864,#865);
#696=AXIS2_PLACEMENT_3D('',#1045,#866,#867);
#697=AXIS2_PLACEMENT_3D('',#1047,#868,#869);
#698=AXIS2_PLACEMENT_3D('',#1048,#870,#871);
#699=AXIS2_PLACEMENT_3D('',#1051,#873,#874);
#700=AXIS2_PLACEMENT_3D('',#1052,#875,#876);
#701=AXIS2_PLACEMENT_3D('',#1055,#878,#879);
#702=AXIS2_PLACEMENT_3D('',#1056,#880,#881);
#703=AXIS2_PLACEMENT_3D('',#1059,#883,#884);
#704=AXIS2_PLACEMENT_3D('',#1060,#885,#886);
#705=AXIS2_PLACEMENT_3D('',#1063,#888,#889);
#706=AXIS2_PLACEMENT_3D('',#1064,#890,#891);
#707=AXIS2_PLACEMENT_3D('',#1067,#893,#894);
#708=AXIS2_PLACEMENT_3D('',#1068,#895,#896);
#709=AXIS2_PLACEMENT_3D('',#1070,#897,#898);
#710=AXIS2_PLACEMENT_3D('',#1072,#900,#901);
#711=AXIS2_PLACEMENT_3D('',#1074,#902,#903);
#712=AXIS2_PLACEMENT_3D('',#1076,#905,#906);
#713=AXIS2_PLACEMENT_3D('',#1078,#907,#908);
#714=AXIS2_PLACEMENT_3D('',#1080,#910,#911);
#715=AXIS2_PLACEMENT_3D('',#1082,#912,#913);
#716=AXIS2_PLACEMENT_3D('',#1084,#915,#916);
#717=AXIS2_PLACEMENT_3D('',#1086,#917,#918);
#718=AXIS2_PLACEMENT_3D('',#1088,#920,#921);
#719=DIRECTION('axis',(0.,0.,1.));
#720=DIRECTION('refdir',(1.,0.,0.));
#721=DIRECTION('center_axis',(1.,0.,0.));
#722=DIRECTION('ref_axis',(0.,-1.,0.));
#723=DIRECTION('center_axis',(1.,-1.69856204494266E-16,0.));
#724=DIRECTION('ref_axis',(0.,-1.,0.));
#725=DIRECTION('',(1.,0.,0.));
#726=DIRECTION('center_axis',(-1.,1.69856204494266E-16,0.));
#727=DIRECTION('ref_axis',(0.,-1.,0.));
#728=DIRECTION('center_axis',(1.,0.,0.));
#729=DIRECTION('ref_axis',(0.,-1.,0.));
#730=DIRECTION('center_axis',(1.,-1.69856204494266E-16,0.));
#731=DIRECTION('ref_axis',(0.,-1.,0.));
#732=DIRECTION('',(1.,0.,0.));
#733=DIRECTION('center_axis',(-1.,1.69856204494266E-16,0.));
#734=DIRECTION('ref_axis',(0.,-1.,0.));
#735=DIRECTION('center_axis',(1.,0.,0.));
#736=DIRECTION('ref_axis',(0.,-1.,0.));
#737=DIRECTION('center_axis',(1.,-1.69856204494266E-16,0.));
#738=DIRECTION('ref_axis',(0.,-1.,0.));
#739=DIRECTION('',(1.,0.,0.));
#740=DIRECTION('center_axis',(-1.,1.69856204494266E-16,0.));
#741=DIRECTION('ref_axis',(0.,-1.,0.));
#742=DIRECTION('center_axis',(1.,0.,0.));
#743=DIRECTION('ref_axis',(0.,-1.,0.));
#744=DIRECTION('center_axis',(1.,-1.69856204494266E-16,0.));
#745=DIRECTION('ref_axis',(0.,-1.,0.));
#746=DIRECTION('',(1.,0.,0.));
#747=DIRECTION('center_axis',(-1.,1.69856204494266E-16,0.));
#748=DIRECTION('ref_axis',(0.,-1.,0.));
#749=DIRECTION('center_axis',(1.,0.,0.));
#750=DIRECTION('ref_axis',(0.,-1.,0.));
#751=DIRECTION('center_axis',(1.,-1.69856204494266E-16,0.));
#752=DIRECTION('ref_axis',(0.,-1.,0.));
#753=DIRECTION('',(1.,0.,0.));
#754=DIRECTION('center_axis',(-1.,1.69856204494266E-16,0.));
#755=DIRECTION('ref_axis',(0.,-1.,0.));
#756=DIRECTION('center_axis',(1.,0.,0.));
#757=DIRECTION('ref_axis',(0.,-1.,0.));
#758=DIRECTION('center_axis',(1.,-1.69856204494266E-16,0.));
#759=DIRECTION('ref_axis',(0.,-1.,0.));
#760=DIRECTION('',(1.,0.,0.));
#761=DIRECTION('center_axis',(-1.,1.69856204494266E-16,0.));
#762=DIRECTION('ref_axis',(0.,-1.,0.));
#763=DIRECTION('center_axis',(1.,0.,0.));
#764=DIRECTION('ref_axis',(0.,-1.,0.));
#765=DIRECTION('center_axis',(1.,-1.69856204494266E-16,0.));
#766=DIRECTION('ref_axis',(0.,-1.,0.));
#767=DIRECTION('',(1.,0.,0.));
#768=DIRECTION('center_axis',(-1.,1.69856204494266E-16,0.));
#769=DIRECTION('ref_axis',(0.,-1.,0.));
#770=DIRECTION('center_axis',(1.,0.,0.));
#771=DIRECTION('ref_axis',(0.,-1.,0.));
#772=DIRECTION('center_axis',(1.,-1.69856204494266E-16,0.));
#773=DIRECTION('ref_axis',(0.,-1.,0.));
#774=DIRECTION('',(1.,0.,0.));
#775=DIRECTION('center_axis',(-1.,1.69856204494266E-16,0.));
#776=DIRECTION('ref_axis',(0.,-1.,0.));
#777=DIRECTION('center_axis',(1.,0.,0.));
#778=DIRECTION('ref_axis',(0.,-1.,0.));
#779=DIRECTION('center_axis',(1.,-1.69856204494266E-16,0.));
#780=DIRECTION('ref_axis',(0.,-1.,0.));
#781=DIRECTION('',(1.,0.,0.));
#782=DIRECTION('center_axis',(-1.,1.69856204494266E-16,0.));
#783=DIRECTION('ref_axis',(0.,-1.,0.));
#784=DIRECTION('center_axis',(1.,0.,0.));
#785=DIRECTION('ref_axis',(0.,-1.,0.));
#786=DIRECTION('center_axis',(1.,-1.69856204494266E-16,0.));
#787=DIRECTION('ref_axis',(0.,-1.,0.));
#788=DIRECTION('',(1.,0.,0.));
#789=DIRECTION('center_axis',(-1.,1.69856204494266E-16,0.));
#790=DIRECTION('ref_axis',(0.,-1.,0.));
#791=DIRECTION('center_axis',(1.,0.,0.));
#792=DIRECTION('ref_axis',(0.,-1.,0.));
#793=DIRECTION('center_axis',(1.,-1.69856204494266E-16,0.));
#794=DIRECTION('ref_axis',(0.,-1.,0.));
#795=DIRECTION('',(1.,0.,0.));
#796=DIRECTION('center_axis',(-1.,1.69856204494266E-16,0.));
#797=DIRECTION('ref_axis',(0.,-1.,0.));
#798=DIRECTION('center_axis',(1.,0.,0.));
#799=DIRECTION('ref_axis',(0.,-1.,0.));
#800=DIRECTION('center_axis',(1.,-1.69856204494266E-16,0.));
#801=DIRECTION('ref_axis',(0.,-1.,0.));
#802=DIRECTION('',(1.,0.,0.));
#803=DIRECTION('center_axis',(-1.,1.69856204494266E-16,0.));
#804=DIRECTION('ref_axis',(0.,-1.,0.));
#805=DIRECTION('center_axis',(1.,-1.69856204494266E-16,0.));
#806=DIRECTION('ref_axis',(1.71905500587121E-16,1.,0.));
#807=DIRECTION('center_axis',(1.,-1.69856204494266E-16,0.));
#808=DIRECTION('ref_axis',(0.,0.,-1.));
#809=DIRECTION('',(-0.707106781186547,0.707106781186548,8.65956056235494E-17));
#810=DIRECTION('center_axis',(1.,-1.69856204494266E-16,0.));
#811=DIRECTION('ref_axis',(0.,0.,-1.));
#812=DIRECTION('center_axis',(1.,-1.69856204494266E-16,0.));
#813=DIRECTION('ref_axis',(1.71905500587121E-16,1.,0.));
#814=DIRECTION('center_axis',(1.,-1.69856204494266E-16,0.));
#815=DIRECTION('ref_axis',(0.,0.,-1.));
#816=DIRECTION('',(-1.,1.69856204494266E-16,0.));
#817=DIRECTION('center_axis',(1.,-1.69856204494266E-16,0.));
#818=DIRECTION('ref_axis',(1.71905500587121E-16,1.,0.));
#819=DIRECTION('center_axis',(1.,-1.69856204494266E-16,0.));
#820=DIRECTION('ref_axis',(0.,0.,-1.));
#821=DIRECTION('',(-0.782383428792366,0.622797053903679,7.62706418581541E-17));
#822=DIRECTION('center_axis',(1.,-1.69856204494266E-16,0.));
#823=DIRECTION('ref_axis',(1.71905500587121E-16,1.,0.));
#824=DIRECTION('center_axis',(1.,-1.69856204494266E-16,0.));
#825=DIRECTION('ref_axis',(0.,0.,-1.));
#826=DIRECTION('',(-0.112844607868767,0.993612648105359,1.21682454909455E-16));
#827=DIRECTION('center_axis',(-1.,1.69856204494266E-16,0.));
#828=DIRECTION('ref_axis',(1.71905500587121E-16,1.,0.));
#829=DIRECTION('center_axis',(1.,-1.69856204494266E-16,0.));
#830=DIRECTION('ref_axis',(0.,0.,-1.));
#831=DIRECTION('',(-0.993612648105358,-0.112844607868773,-1.38194787827531E-17));
#832=DIRECTION('center_axis',(1.,-1.69856204494266E-16,0.));
#833=DIRECTION('ref_axis',(1.71905500587121E-16,1.,0.));
#834=DIRECTION('',(-0.112844607868776,0.993612648105358,1.21682454909455E-16));
#835=DIRECTION('center_axis',(1.,-1.69856204494266E-16,0.));
#836=DIRECTION('ref_axis',(0.,0.,-1.));
#837=DIRECTION('center_axis',(1.,-1.69856204494266E-16,0.));
#838=DIRECTION('ref_axis',(1.71905500587121E-16,1.,0.));
#839=DIRECTION('',(-0.782383428792365,0.622797053903679,7.62706418581542E-17));
#840=DIRECTION('center_axis',(1.,-1.69856204494266E-16,0.));
#841=DIRECTION('ref_axis',(0.,0.,-1.));
#842=DIRECTION('center_axis',(1.,-1.69856204494266E-16,0.));
#843=DIRECTION('ref_axis',(1.71905500587121E-16,1.,0.));
#844=DIRECTION('',(-1.,1.69856204494266E-16,0.));
#845=DIRECTION('center_axis',(1.,-1.69856204494266E-16,0.));
#846=DIRECTION('ref_axis',(0.,0.,-1.));
#847=DIRECTION('center_axis',(1.,-1.69856204494266E-16,0.));
#848=DIRECTION('ref_axis',(1.71905500587121E-16,1.,0.));
#849=DIRECTION('',(-0.707106781186547,0.707106781186548,8.65956056235493E-17));
#850=DIRECTION('center_axis',(1.,-1.69856204494266E-16,0.));
#851=DIRECTION('ref_axis',(0.,0.,-1.));
#852=DIRECTION('center_axis',(1.,-1.69856204494266E-16,0.));
#853=DIRECTION('ref_axis',(1.71905500587121E-16,1.,0.));
#854=DIRECTION('',(-1.,1.69856204494266E-16,0.));
#855=DIRECTION('center_axis',(1.,-1.69856204494266E-16,0.));
#856=DIRECTION('ref_axis',(0.,0.,-1.));
#857=DIRECTION('center_axis',(1.,-1.69856204494266E-16,0.));
#858=DIRECTION('ref_axis',(0.,0.,-1.));
#859=DIRECTION('center_axis',(1.,-1.69856204494266E-16,0.));
#860=DIRECTION('ref_axis',(0.,0.,-1.));
#861=DIRECTION('center_axis',(1.,-1.69856204494266E-16,0.));
#862=DIRECTION('ref_axis',(1.71905500587121E-16,1.,0.));
#863=DIRECTION('',(-1.,1.69856204494266E-16,0.));
#864=DIRECTION('center_axis',(1.,-1.69856204494266E-16,0.));
#865=DIRECTION('ref_axis',(0.,0.,-1.));
#866=DIRECTION('center_axis',(-1.,1.69856204494266E-16,0.));
#867=DIRECTION('ref_axis',(0.,0.,1.));
#868=DIRECTION('center_axis',(1.,-1.69856204494266E-16,0.));
#869=DIRECTION('ref_axis',(0.,0.,-1.));
#870=DIRECTION('center_axis',(1.,-1.69856204494266E-16,0.));
#871=DIRECTION('ref_axis',(1.71905500587121E-16,1.,0.));
#872=DIRECTION('',(-1.,1.69856204494266E-16,0.));
#873=DIRECTION('center_axis',(1.,-1.69856204494266E-16,0.));
#874=DIRECTION('ref_axis',(0.,0.,-1.));
#875=DIRECTION('center_axis',(-1.,1.69856204494266E-16,0.));
#876=DIRECTION('ref_axis',(1.71905500587121E-16,1.,0.));
#877=DIRECTION('',(-0.707106781186547,-0.707106781186548,-8.65956056235494E-17));
#878=DIRECTION('center_axis',(1.,-1.69856204494266E-16,0.));
#879=DIRECTION('ref_axis',(0.,0.,-1.));
#880=DIRECTION('center_axis',(1.,-1.69856204494266E-16,0.));
#881=DIRECTION('ref_axis',(1.71905500587121E-16,1.,0.));
#882=DIRECTION('',(-1.,1.69856204494266E-16,0.));
#883=DIRECTION('center_axis',(1.,-1.69856204494266E-16,0.));
#884=DIRECTION('ref_axis',(0.,0.,-1.));
#885=DIRECTION('center_axis',(-1.,1.69856204494266E-16,0.));
#886=DIRECTION('ref_axis',(1.71905500587121E-16,1.,0.));
#887=DIRECTION('',(-0.782383428792365,-0.622797053903679,-7.62706418581542E-17));
#888=DIRECTION('center_axis',(1.,-1.69856204494266E-16,0.));
#889=DIRECTION('ref_axis',(0.,0.,-1.));
#890=DIRECTION('center_axis',(-1.,1.69856204494266E-16,0.));
#891=DIRECTION('ref_axis',(1.71905500587121E-16,1.,0.));
#892=DIRECTION('',(-0.112844607868773,-0.993612648105358,-1.21682454909455E-16));
#893=DIRECTION('center_axis',(1.,-1.69856204494266E-16,0.));
#894=DIRECTION('ref_axis',(0.,0.,-1.));
#895=DIRECTION('center_axis',(1.,-1.69856204494266E-16,0.));
#896=DIRECTION('ref_axis',(1.71905500587121E-16,1.,0.));
#897=DIRECTION('center_axis',(1.,-1.69856204494266E-16,0.));
#898=DIRECTION('ref_axis',(0.,0.,-1.));
#899=DIRECTION('',(-0.993612648105359,0.112844607868768,1.38194787827525E-17));
#900=DIRECTION('center_axis',(-1.,1.69856204494266E-16,0.));
#901=DIRECTION('ref_axis',(1.71905500587121E-16,1.,0.));
#902=DIRECTION('center_axis',(1.,-1.69856204494266E-16,0.));
#903=DIRECTION('ref_axis',(0.,0.,-1.));
#904=DIRECTION('',(-0.112844607868761,-0.99361264810536,-1.21682454909455E-16));
#905=DIRECTION('center_axis',(-1.,1.69856204494266E-16,0.));
#906=DIRECTION('ref_axis',(1.71905500587121E-16,1.,0.));
#907=DIRECTION('center_axis',(1.,-1.69856204494266E-16,0.));
#908=DIRECTION('ref_axis',(0.,0.,-1.));
#909=DIRECTION('',(-0.782383428792365,-0.622797053903679,-7.62706418581542E-17));
#910=DIRECTION('center_axis',(1.,-1.69856204494266E-16,0.));
#911=DIRECTION('ref_axis',(1.71905500587121E-16,1.,0.));
#912=DIRECTION('center_axis',(1.,-1.69856204494266E-16,0.));
#913=DIRECTION('ref_axis',(0.,0.,-1.));
#914=DIRECTION('',(-1.,1.69856204494266E-16,0.));
#915=DIRECTION('center_axis',(-1.,1.69856204494266E-16,0.));
#916=DIRECTION('ref_axis',(1.71905500587121E-16,1.,0.));
#917=DIRECTION('center_axis',(1.,-1.69856204494266E-16,0.));
#918=DIRECTION('ref_axis',(0.,0.,-1.));
#919=DIRECTION('',(-0.707106781186548,-0.707106781186547,-8.65956056235493E-17));
#920=DIRECTION('center_axis',(1.,-1.69856204494266E-16,0.));
#921=DIRECTION('ref_axis',(1.71905500587121E-16,1.,0.));
#922=DIRECTION('',(-1.,1.69856204494266E-16,0.));
#923=CARTESIAN_POINT('',(0.,0.,0.));
#924=CARTESIAN_POINT('Origin',(-93.5690939348375,87.5,-108.253175473055));
#925=CARTESIAN_POINT('',(-93.5690939348375,95.5,-108.253175473055));
#926=CARTESIAN_POINT('Origin',(-93.5690939348375,87.5,-108.253175473055));
#927=CARTESIAN_POINT('',(-80.4007715515449,95.5,-108.253175473055));
#928=CARTESIAN_POINT('',(-93.5690939348375,95.5,-108.253175473055));
#929=CARTESIAN_POINT('Origin',(-80.4007715515449,87.5,-108.253175473055));
#930=CARTESIAN_POINT('Origin',(-93.5690939348375,150.,2.66453525910038E-14));
#931=CARTESIAN_POINT('',(-93.5690939348375,158.,2.56656351516859E-14));
#932=CARTESIAN_POINT('Origin',(-93.5690939348375,150.,2.66453525910038E-14));
#933=CARTESIAN_POINT('',(-80.4007715515449,158.,2.56656351516859E-14));
#934=CARTESIAN_POINT('',(-93.5690939348375,158.,2.76250700303216E-14));
#935=CARTESIAN_POINT('Origin',(-80.4007715515449,150.,2.66453525910038E-14));
#936=CARTESIAN_POINT('Origin',(-93.5690939348375,24.9999999999999,125.));
#937=CARTESIAN_POINT('',(-93.5690939348375,32.9999999999999,125.));
#938=CARTESIAN_POINT('Origin',(-93.5690939348375,24.9999999999999,125.));
#939=CARTESIAN_POINT('',(-80.4007715515449,32.9999999999999,125.));
#940=CARTESIAN_POINT('',(-93.5690939348375,32.9999999999999,125.));
#941=CARTESIAN_POINT('Origin',(-80.4007715515449,24.9999999999999,125.));
#942=CARTESIAN_POINT('Origin',(-93.5690939348375,87.4999999999999,108.253175473055));
#943=CARTESIAN_POINT('',(-93.5690939348375,95.4999999999999,108.253175473055));
#944=CARTESIAN_POINT('Origin',(-93.5690939348375,87.4999999999999,108.253175473055));
#945=CARTESIAN_POINT('',(-80.4007715515449,95.4999999999999,108.253175473055));
#946=CARTESIAN_POINT('',(-93.5690939348375,95.4999999999999,108.253175473055));
#947=CARTESIAN_POINT('Origin',(-80.4007715515449,87.4999999999999,108.253175473055));
#948=CARTESIAN_POINT('Origin',(-93.5690939348375,-83.2531754730549,62.5));
#949=CARTESIAN_POINT('',(-93.5690939348375,-75.2531754730549,62.5));
#950=CARTESIAN_POINT('Origin',(-93.5690939348375,-83.2531754730549,62.5));
#951=CARTESIAN_POINT('',(-80.4007715515449,-75.2531754730549,62.5));
#952=CARTESIAN_POINT('',(-93.5690939348375,-75.2531754730549,62.5));
#953=CARTESIAN_POINT('Origin',(-80.4007715515449,-83.2531754730549,62.5));
#954=CARTESIAN_POINT('Origin',(-93.5690939348375,-37.5,-108.253175473055));
#955=CARTESIAN_POINT('',(-93.5690939348375,-29.5,-108.253175473055));
#956=CARTESIAN_POINT('Origin',(-93.5690939348375,-37.5,-108.253175473055));
#957=CARTESIAN_POINT('',(-80.4007715515449,-29.5,-108.253175473055));
#958=CARTESIAN_POINT('',(-93.5690939348375,-29.5,-108.253175473055));
#959=CARTESIAN_POINT('Origin',(-80.4007715515449,-37.5,-108.253175473055));
#960=CARTESIAN_POINT('Origin',(-93.5690939348375,133.253175473055,62.5));
#961=CARTESIAN_POINT('',(-93.5690939348375,141.253175473055,62.5));
#962=CARTESIAN_POINT('Origin',(-93.5690939348375,133.253175473055,62.5));
#963=CARTESIAN_POINT('',(-80.4007715515449,141.253175473055,62.5));
#964=CARTESIAN_POINT('',(-93.5690939348375,141.253175473055,62.5));
#965=CARTESIAN_POINT('Origin',(-80.4007715515449,133.253175473055,62.5));
#966=CARTESIAN_POINT('Origin',(-93.5690939348375,-83.2531754730549,-62.5));
#967=CARTESIAN_POINT('',(-93.5690939348375,-75.2531754730549,-62.5));
#968=CARTESIAN_POINT('Origin',(-93.5690939348375,-83.2531754730549,-62.5));
#969=CARTESIAN_POINT('',(-80.4007715515449,-75.2531754730549,-62.5));
#970=CARTESIAN_POINT('',(-93.5690939348375,-75.2531754730549,-62.5));
#971=CARTESIAN_POINT('Origin',(-80.4007715515449,-83.2531754730549,-62.5));
#972=CARTESIAN_POINT('Origin',(-93.5690939348375,-37.5000000000001,108.253175473055));
#973=CARTESIAN_POINT('',(-93.5690939348375,-29.5000000000001,108.253175473055));
#974=CARTESIAN_POINT('Origin',(-93.5690939348375,-37.5000000000001,108.253175473055));
#975=CARTESIAN_POINT('',(-80.4007715515449,-29.5000000000001,108.253175473055));
#976=CARTESIAN_POINT('',(-93.5690939348375,-29.5000000000001,108.253175473055));
#977=CARTESIAN_POINT('Origin',(-80.4007715515449,-37.5000000000001,108.253175473055));
#978=CARTESIAN_POINT('Origin',(-93.5690939348375,25.,-125.));
#979=CARTESIAN_POINT('',(-93.5690939348375,33.,-125.));
#980=CARTESIAN_POINT('Origin',(-93.5690939348375,25.,-125.));
#981=CARTESIAN_POINT('',(-80.4007715515449,33.,-125.));
#982=CARTESIAN_POINT('',(-93.5690939348375,33.,-125.));
#983=CARTESIAN_POINT('Origin',(-80.4007715515449,25.,-125.));
#984=CARTESIAN_POINT('Origin',(-93.5690939348375,133.253175473055,-62.4999999999999));
#985=CARTESIAN_POINT('',(-93.5690939348375,141.253175473055,-62.4999999999999));
#986=CARTESIAN_POINT('Origin',(-93.5690939348375,133.253175473055,-62.4999999999999));
#987=CARTESIAN_POINT('',(-80.4007715515449,141.253175473055,-62.4999999999999));
#988=CARTESIAN_POINT('',(-93.5690939348375,141.253175473055,-62.4999999999999));
#989=CARTESIAN_POINT('Origin',(-80.4007715515449,133.253175473055,-62.4999999999999));
#990=CARTESIAN_POINT('Origin',(-93.5690939348375,-100.,2.66453525910038E-14));
#991=CARTESIAN_POINT('',(-93.5690939348375,-92.0000000000001,2.56656351516859E-14));
#992=CARTESIAN_POINT('Origin',(-93.5690939348375,-100.,2.66453525910038E-14));
#993=CARTESIAN_POINT('',(-80.4007715515449,-92.0000000000001,2.56656351516859E-14));
#994=CARTESIAN_POINT('',(-93.5690939348375,-92.0000000000001,2.76250700303216E-14));
#995=CARTESIAN_POINT('Origin',(-80.4007715515449,-100.,2.66453525910038E-14));
#996=CARTESIAN_POINT('Origin',(-35.4007715515448,25.,0.));
#997=CARTESIAN_POINT('',(-28.3297037396794,-144.142135623731,-2.0713937499255E-14));
#998=CARTESIAN_POINT('Origin',(-28.3297037396793,25.,0.));
#999=CARTESIAN_POINT('',(-42.4718393634103,-130.,-1.8982025386784E-14));
#1000=CARTESIAN_POINT('',(-35.4007715515448,-137.071067811866,-1.98479814430195E-14));
#1001=CARTESIAN_POINT('Origin',(-42.4718393634103,25.,0.));
#1002=CARTESIAN_POINT('Origin',(1.83228488435283,25.,0.));
#1003=CARTESIAN_POINT('',(31.994273508385,-144.142135623731,-2.0713937499255E-14));
#1004=CARTESIAN_POINT('Origin',(31.994273508385,25.,0.));
#1005=CARTESIAN_POINT('',(1.8322848843528,-144.142135623731,-2.0713937499255E-14));
#1006=CARTESIAN_POINT('Origin',(49.344262247506,25.,0.));
#1007=CARTESIAN_POINT('',(66.6942509866269,-171.764197836028,-2.40966645066688E-14));
#1008=CARTESIAN_POINT('Origin',(66.6942509866269,24.9999999999999,0.));
#1009=CARTESIAN_POINT('',(49.3442622475059,-157.953166729879,-2.24053010029619E-14));
#1010=CARTESIAN_POINT('Origin',(67.4237311280929,24.9999999999999,0.));
#1011=CARTESIAN_POINT('',(68.1532112695588,-184.610548384655,-2.56698887146789E-14));
#1012=CARTESIAN_POINT('Origin',(68.1532112695589,24.9999999999999,0.));
#1013=CARTESIAN_POINT('',(67.4237311280929,-178.187373110342,-2.48832766106739E-14));
#1014=CARTESIAN_POINT('Origin',(70.6372428898224,24.9999999999999,0.));
#1015=CARTESIAN_POINT('',(73.1212745100859,-184.046325345311,-2.56007913207652E-14));
#1016=CARTESIAN_POINT('Origin',(73.121274510086,24.9999999999999,0.));
#1017=CARTESIAN_POINT('',(70.6372428898224,-184.328436864983,-2.56353400177221E-14));
#1018=CARTESIAN_POINT('Origin',(72.2749399510701,24.9999999999999,0.));
#1019=CARTESIAN_POINT('',(71.4286053920543,-169.142135623731,-2.37755544971233E-14));
#1020=CARTESIAN_POINT('',(72.2749399510701,-176.594230484521,-2.46881729089443E-14));
#1021=CARTESIAN_POINT('Origin',(71.4286053920543,24.9999999999999,0.));
#1022=CARTESIAN_POINT('Origin',(52.5849847321202,24.9999999999999,0.));
#1023=CARTESIAN_POINT('',(33.741364072186,-139.142135623731,-2.01016140996813E-14));
#1024=CARTESIAN_POINT('',(52.5849847321201,-154.142135623731,-2.19385842984023E-14));
#1025=CARTESIAN_POINT('Origin',(33.741364072186,25.,0.));
#1026=CARTESIAN_POINT('Origin',(3.74136407218604,25.,0.));
#1027=CARTESIAN_POINT('',(-26.258635927814,-139.142135623731,-2.01016140996813E-14));
#1028=CARTESIAN_POINT('',(3.74136407218601,-139.142135623731,-2.01016140996813E-14));
#1029=CARTESIAN_POINT('Origin',(-26.258635927814,25.,0.));
#1030=CARTESIAN_POINT('Origin',(-33.3297037396794,25.,0.));
#1031=CARTESIAN_POINT('',(-40.4007715515449,-125.,-1.83697019872103E-14));
#1032=CARTESIAN_POINT('',(-33.3297037396795,-132.071067811865,-1.92356580434458E-14));
#1033=CARTESIAN_POINT('Origin',(-40.4007715515449,25.,0.));
#1034=CARTESIAN_POINT('Origin',(-60.4007715515449,25.,0.));
#1035=CARTESIAN_POINT('',(-80.4007715515449,-125.,-1.83697019872103E-14));
#1036=CARTESIAN_POINT('',(-60.4007715515449,-125.,-1.83697019872103E-14));
#1037=CARTESIAN_POINT('Origin',(-80.4007715515449,25.,0.));
#1038=CARTESIAN_POINT('Origin',(-80.4007715515449,125.,0.));
#1039=CARTESIAN_POINT('',(-80.400771551545,-75.,-1.22464679914735E-14));
#1040=CARTESIAN_POINT('Origin',(-80.400771551545,25.,0.));
#1041=CARTESIAN_POINT('Origin',(-86.9849327431913,25.,0.));
#1042=CARTESIAN_POINT('',(-93.5690939348375,-75.,-1.22464679914735E-14));
#1043=CARTESIAN_POINT('',(-86.9849327431913,-75.,-1.22464679914735E-14));
#1044=CARTESIAN_POINT('Origin',(-93.5690939348375,25.,0.));
#1045=CARTESIAN_POINT('Origin',(-93.5690939348375,175.,0.));
#1046=CARTESIAN_POINT('',(-93.5690939348375,-125.,-1.83697019872103E-14));
#1047=CARTESIAN_POINT('Origin',(-93.5690939348376,25.,0.));
#1048=CARTESIAN_POINT('Origin',(-113.569093934838,25.,0.));
#1049=CARTESIAN_POINT('',(-133.569093934838,-125.,-1.83697019872103E-14));
#1050=CARTESIAN_POINT('',(-113.569093934838,-125.,-1.83697019872103E-14));
#1051=CARTESIAN_POINT('Origin',(-133.569093934838,25.,0.));
#1052=CARTESIAN_POINT('Origin',(-140.640161746703,25.,0.));
#1053=CARTESIAN_POINT('',(-147.711229558569,-139.142135623731,-2.01016140996813E-14));
#1054=CARTESIAN_POINT('',(-140.640161746703,-132.071067811866,-1.92356580434458E-14));
#1055=CARTESIAN_POINT('Origin',(-147.711229558569,25.,0.));
#1056=CARTESIAN_POINT('Origin',(-177.711229558569,25.,0.));
#1057=CARTESIAN_POINT('',(-207.711229558569,-139.142135623731,-2.01016140996813E-14));
#1058=CARTESIAN_POINT('',(-177.711229558569,-139.142135623731,-2.01016140996813E-14));
#1059=CARTESIAN_POINT('Origin',(-207.711229558569,25.,0.));
#1060=CARTESIAN_POINT('Origin',(-226.554850218503,25.,0.));
#1061=CARTESIAN_POINT('',(-245.398470878437,-169.142135623731,-2.37755544971233E-14));
#1062=CARTESIAN_POINT('',(-226.554850218503,-154.142135623731,-2.19385842984023E-14));
#1063=CARTESIAN_POINT('Origin',(-245.398470878437,25.,0.));
#1064=CARTESIAN_POINT('Origin',(-246.244805437453,25.,0.));
#1065=CARTESIAN_POINT('',(-247.091139996468,-184.046325345311,-2.56007913207652E-14));
#1066=CARTESIAN_POINT('',(-246.244805437453,-176.594230484521,-2.46881729089443E-14));
#1067=CARTESIAN_POINT('Origin',(-247.091139996468,25.,0.));
#1068=CARTESIAN_POINT('Origin',(-244.607108376205,25.,0.));
#1069=CARTESIAN_POINT('',(-242.123076755941,-184.610548384655,-2.56698887146789E-14));
#1070=CARTESIAN_POINT('Origin',(-242.123076755941,25.,0.));
#1071=CARTESIAN_POINT('',(-244.607108376205,-184.328436864983,-2.56353400177221E-14));
#1072=CARTESIAN_POINT('Origin',(-241.393596614475,25.,0.));
#1073=CARTESIAN_POINT('',(-240.664116473009,-171.764197836028,-2.40966645066688E-14));
#1074=CARTESIAN_POINT('Origin',(-240.664116473009,25.,0.));
#1075=CARTESIAN_POINT('',(-241.393596614475,-178.187373110342,-2.48832766106739E-14));
#1076=CARTESIAN_POINT('Origin',(-223.314127733889,25.,0.));
#1077=CARTESIAN_POINT('',(-205.964138994768,-144.142135623731,-2.0713937499255E-14));
#1078=CARTESIAN_POINT('Origin',(-205.964138994768,25.,0.));
#1079=CARTESIAN_POINT('',(-223.314127733889,-157.953166729879,-2.24053010029619E-14));
#1080=CARTESIAN_POINT('Origin',(-175.802150370735,25.,0.));
#1081=CARTESIAN_POINT('',(-145.640161746703,-144.142135623731,-2.0713937499255E-14));
#1082=CARTESIAN_POINT('Origin',(-145.640161746703,25.,0.));
#1083=CARTESIAN_POINT('',(-175.802150370735,-144.142135623731,-2.0713937499255E-14));
#1084=CARTESIAN_POINT('Origin',(-138.569093934838,25.,0.));
#1085=CARTESIAN_POINT('',(-131.498026122972,-130.,-1.8982025386784E-14));
#1086=CARTESIAN_POINT('Origin',(-131.498026122972,25.,0.));
#1087=CARTESIAN_POINT('',(-138.569093934838,-137.071067811865,-1.98479814430195E-14));
#1088=CARTESIAN_POINT('Origin',(-86.9849327431912,25.,0.));
#1089=CARTESIAN_POINT('',(-86.9849327431913,-130.,-1.8982025386784E-14));
#1090=UNCERTAINTY_MEASURE_WITH_UNIT(LENGTH_MEASURE(0.01),#1094,
'DISTANCE_ACCURACY_VALUE',
'Maximum model space distance between geometric entities at asserted c
onnectivities');
#1091=UNCERTAINTY_MEASURE_WITH_UNIT(LENGTH_MEASURE(0.01),#1094,
'DISTANCE_ACCURACY_VALUE',
'Maximum model space distance between geometric entities at asserted c
onnectivities');
#1092=(
GEOMETRIC_REPRESENTATION_CONTEXT(3)
GLOBAL_UNCERTAINTY_ASSIGNED_CONTEXT((#1090))
GLOBAL_UNIT_ASSIGNED_CONTEXT((#1094,#1096,#1097))
REPRESENTATION_CONTEXT('','3D')
);
#1093=(
GEOMETRIC_REPRESENTATION_CONTEXT(3)
GLOBAL_UNCERTAINTY_ASSIGNED_CONTEXT((#1091))
GLOBAL_UNIT_ASSIGNED_CONTEXT((#1094,#1096,#1097))
REPRESENTATION_CONTEXT('','3D')
);
#1094=(
LENGTH_UNIT()
NAMED_UNIT(*)
SI_UNIT(.MILLI.,.METRE.)
);
#1095=(
LENGTH_UNIT()
NAMED_UNIT(*)
SI_UNIT($,.METRE.)
);
#1096=(
NAMED_UNIT(*)
PLANE_ANGLE_UNIT()
SI_UNIT($,.RADIAN.)
);
#1097=(
NAMED_UNIT(*)
SI_UNIT($,.STERADIAN.)
SOLID_ANGLE_UNIT()
);
#1098=SHAPE_DEFINITION_REPRESENTATION(#1099,#1100);
#1099=PRODUCT_DEFINITION_SHAPE('',$,#1102);
#1100=SHAPE_REPRESENTATION('',(#634),#1092);
#1101=PRODUCT_DEFINITION_CONTEXT('part definition',#1106,'design');
#1102=PRODUCT_DEFINITION('2026-09-26-21-07-27-495','Rim',#1103,#1101);
#1103=PRODUCT_DEFINITION_FORMATION('',$,#1108);
#1104=PRODUCT_RELATED_PRODUCT_CATEGORY('Rim','Rim',(#1108));
#1105=APPLICATION_PROTOCOL_DEFINITION('international standard',
'automotive_design',2009,#1106);
#1106=APPLICATION_CONTEXT(
'Core Data for Automotive Mechanical Design Process');
#1107=PRODUCT_CONTEXT('part definition',#1106,'mechanical');
#1108=PRODUCT('2026-09-26-21-07-27-495','Rim',$,(#1107));
#1109=PRESENTATION_STYLE_ASSIGNMENT((#1110));
#1110=SURFACE_STYLE_USAGE(.BOTH.,#1111);
#1111=SURFACE_SIDE_STYLE('',(#1112));
#1112=SURFACE_STYLE_FILL_AREA(#1113);
#1113=FILL_AREA_STYLE('Steel - Satin',(#1114));
#1114=FILL_AREA_STYLE_COLOUR('Steel - Satin',#1115);
#1115=COLOUR_RGB('Steel - Satin',0.627450980392157,0.627450980392157,0.627450980392157);
ENDSEC;
END-ISO-10303-21;
