ISO-10303-21;
HEADER;
/* Generated by software containing ST-Developer
 * from STEP Tools, Inc. (www.steptools.com) 
 */

FILE_DESCRIPTION(
/* description */ (''),
/* implementation_level */ '2;1');

FILE_NAME(
/* name */ 'Stepper Mount.step',
/* time_stamp */ '2026-09-27T17:28:56+05:30',
/* author */ (''),
/* organization */ (''),
/* preprocessor_version */ 'ST-DEVELOPER v20.2',
/* originating_system */ 'Autodesk Translation Framework v15.15.0.0',
/* authorisation */ '');

FILE_SCHEMA (('AUTOMOTIVE_DESIGN { 1 0 10303 214 3 1 1 }'));
ENDSEC;

DATA;
#10=MECHANICAL_DESIGN_GEOMETRIC_PRESENTATION_REPRESENTATION('',(#13),#1747);
#11=SHAPE_REPRESENTATION_RELATIONSHIP('SRR','None',#1754,#12);
#12=ADVANCED_BREP_SHAPE_REPRESENTATION('',(#14),#1746);
#13=STYLED_ITEM('',(#1763),#14);
#14=MANIFOLD_SOLID_BREP('Body1',#951);
#15=FACE_BOUND('',#166,.T.);
#16=FACE_BOUND('',#167,.T.);
#17=FACE_BOUND('',#168,.T.);
#18=FACE_BOUND('',#184,.T.);
#19=FACE_BOUND('',#185,.T.);
#20=FACE_BOUND('',#186,.T.);
#21=SPHERICAL_SURFACE('',#1007,0.999999999999996);
#22=SPHERICAL_SURFACE('',#1013,0.999999999999996);
#23=B_SPLINE_SURFACE_WITH_KNOTS('',3,3,((#1433,#1434,#1435,#1436,#1437,
#1438),(#1439,#1440,#1441,#1442,#1443,#1444),(#1445,#1446,#1447,#1448,#1449,
#1450),(#1451,#1452,#1453,#1454,#1455,#1456),(#1457,#1458,#1459,#1460,#1461,
#1462)),.UNSPECIFIED.,.F.,.F.,.F.,(4,1,4),(4,1,1,4),(0.,0.571428571428571,
1.),(-1.57079632679491,-0.897597901025665,-0.448798950512832,3.57454887180445E-16),
 .UNSPECIFIED.);
#24=PLANE('',#980);
#25=PLANE('',#1000);
#26=PLANE('',#1040);
#27=PLANE('',#1041);
#28=PLANE('',#1042);
#29=PLANE('',#1044);
#30=PLANE('',#1046);
#31=PLANE('',#1047);
#32=PLANE('',#1049);
#33=PLANE('',#1051);
#34=PLANE('',#1063);
#35=PLANE('',#1065);
#36=PLANE('',#1066);
#37=PLANE('',#1067);
#38=PLANE('',#1079);
#39=PLANE('',#1080);
#40=B_SPLINE_CURVE_WITH_KNOTS('',3,(#1401,#1402,#1403,#1404,#1405,#1406),
 .UNSPECIFIED.,.F.,.F.,(4,2,4),(0.577555515914041,0.581995466601177,0.699558285734087),
 .UNSPECIFIED.);
#41=B_SPLINE_CURVE_WITH_KNOTS('',3,(#1416,#1417,#1418,#1419,#1420,#1421),
 .UNSPECIFIED.,.F.,.F.,(4,2,4),(0.,0.117562819132909,0.122002769820048),
 .UNSPECIFIED.);
#42=B_SPLINE_CURVE_WITH_KNOTS('',3,(#1465,#1466,#1467,#1468,#1469,#1470,
#1471,#1472,#1473,#1474),.UNSPECIFIED.,.F.,.F.,(4,2,2,2,4),(-0.00157437219013649,
0.,0.16436479589152,0.242265234310521,0.294609963747383),.UNSPECIFIED.);
#43=B_SPLINE_CURVE_WITH_KNOTS('',3,(#1498,#1499,#1500,#1501,#1502,#1503),
 .UNSPECIFIED.,.F.,.F.,(4,2,4),(0.573817322766894,0.581995466601177,0.699558285734086),
 .UNSPECIFIED.);
#44=B_SPLINE_CURVE_WITH_KNOTS('',3,(#1513,#1514,#1515,#1516,#1517,#1518),
 .UNSPECIFIED.,.F.,.F.,(4,2,4),(0.,0.117562819132909,0.118299634719548),
 .UNSPECIFIED.);
#45=B_SPLINE_CURVE_WITH_KNOTS('',3,(#1616,#1617,#1618,#1619,#1620,#1621,
#1622,#1623),.UNSPECIFIED.,.F.,.F.,(4,2,2,4),(0.61644740316626,0.666875321102139,
0.734115528669226,0.868595943803399),.UNSPECIFIED.);
#46=B_SPLINE_CURVE_WITH_KNOTS('',3,(#1636,#1637,#1638,#1639,#1640,#1641,
#1642,#1643),.UNSPECIFIED.,.F.,.F.,(4,2,2,4),(0.,0.134480415134173,0.201720622701259,
0.252148540637127),.UNSPECIFIED.);
#47=B_SPLINE_CURVE_WITH_KNOTS('',3,(#1688,#1689,#1690,#1691,#1692,#1693,
#1694,#1695),.UNSPECIFIED.,.F.,.F.,(4,2,2,4),(0.616447414095897,0.666875321102139,
0.734115528669225,0.868595943803399),.UNSPECIFIED.);
#48=B_SPLINE_CURVE_WITH_KNOTS('',3,(#1705,#1706,#1707,#1708,#1709,#1710,
#1711,#1712),.UNSPECIFIED.,.F.,.F.,(4,2,2,4),(0.,0.134480415134174,0.201720622701261,
0.252148529707493),.UNSPECIFIED.);
#49=TOROIDAL_SURFACE('',#971,2.,1.);
#50=TOROIDAL_SURFACE('',#976,2.,1.);
#51=TOROIDAL_SURFACE('',#991,2.,1.);
#52=TOROIDAL_SURFACE('',#996,2.,1.);
#53=TOROIDAL_SURFACE('',#1001,2.,1.);
#54=TOROIDAL_SURFACE('',#1019,1.99999999999999,1.);
#55=TOROIDAL_SURFACE('',#1023,2.,1.00000000000001);
#56=ELLIPSE('',#969,1.41421356237309,1.);
#57=ELLIPSE('',#974,1.4142135623731,1.);
#58=ELLIPSE('',#981,2.82842712474619,2.);
#59=ELLIPSE('',#982,2.23606797749979,0.999999999999996);
#60=ELLIPSE('',#989,1.39093572677752,1.);
#61=ELLIPSE('',#994,1.43870062008318,1.);
#62=ELLIPSE('',#1006,1.4142135623731,1.);
#63=ELLIPSE('',#1012,1.4142135623731,1.);
#64=ELLIPSE('',#1029,1.4142135623731,1.);
#65=ELLIPSE('',#1036,1.41421356237309,1.);
#66=ELLIPSE('',#1038,1.41421356237309,1.);
#67=ELLIPSE('',#1059,1.4142135623731,1.);
#68=ELLIPSE('',#1061,1.4142135623731,1.);
#69=FACE_OUTER_BOUND('',#125,.T.);
#70=FACE_OUTER_BOUND('',#126,.T.);
#71=FACE_OUTER_BOUND('',#127,.T.);
#72=FACE_OUTER_BOUND('',#128,.T.);
#73=FACE_OUTER_BOUND('',#129,.T.);
#74=FACE_OUTER_BOUND('',#130,.T.);
#75=FACE_OUTER_BOUND('',#131,.T.);
#76=FACE_OUTER_BOUND('',#132,.T.);
#77=FACE_OUTER_BOUND('',#133,.T.);
#78=FACE_OUTER_BOUND('',#134,.T.);
#79=FACE_OUTER_BOUND('',#135,.T.);
#80=FACE_OUTER_BOUND('',#136,.T.);
#81=FACE_OUTER_BOUND('',#137,.T.);
#82=FACE_OUTER_BOUND('',#138,.T.);
#83=FACE_OUTER_BOUND('',#139,.T.);
#84=FACE_OUTER_BOUND('',#140,.T.);
#85=FACE_OUTER_BOUND('',#141,.T.);
#86=FACE_OUTER_BOUND('',#142,.T.);
#87=FACE_OUTER_BOUND('',#143,.T.);
#88=FACE_OUTER_BOUND('',#144,.T.);
#89=FACE_OUTER_BOUND('',#145,.T.);
#90=FACE_OUTER_BOUND('',#146,.T.);
#91=FACE_OUTER_BOUND('',#147,.T.);
#92=FACE_OUTER_BOUND('',#148,.T.);
#93=FACE_OUTER_BOUND('',#149,.T.);
#94=FACE_OUTER_BOUND('',#150,.T.);
#95=FACE_OUTER_BOUND('',#151,.T.);
#96=FACE_OUTER_BOUND('',#152,.T.);
#97=FACE_OUTER_BOUND('',#153,.T.);
#98=FACE_OUTER_BOUND('',#154,.T.);
#99=FACE_OUTER_BOUND('',#155,.T.);
#100=FACE_OUTER_BOUND('',#156,.T.);
#101=FACE_OUTER_BOUND('',#157,.T.);
#102=FACE_OUTER_BOUND('',#158,.T.);
#103=FACE_OUTER_BOUND('',#159,.T.);
#104=FACE_OUTER_BOUND('',#160,.T.);
#105=FACE_OUTER_BOUND('',#161,.T.);
#106=FACE_OUTER_BOUND('',#162,.T.);
#107=FACE_OUTER_BOUND('',#163,.T.);
#108=FACE_OUTER_BOUND('',#164,.T.);
#109=FACE_OUTER_BOUND('',#165,.T.);
#110=FACE_OUTER_BOUND('',#169,.T.);
#111=FACE_OUTER_BOUND('',#170,.T.);
#112=FACE_OUTER_BOUND('',#171,.T.);
#113=FACE_OUTER_BOUND('',#172,.T.);
#114=FACE_OUTER_BOUND('',#173,.T.);
#115=FACE_OUTER_BOUND('',#174,.T.);
#116=FACE_OUTER_BOUND('',#175,.T.);
#117=FACE_OUTER_BOUND('',#176,.T.);
#118=FACE_OUTER_BOUND('',#177,.T.);
#119=FACE_OUTER_BOUND('',#178,.T.);
#120=FACE_OUTER_BOUND('',#179,.T.);
#121=FACE_OUTER_BOUND('',#180,.T.);
#122=FACE_OUTER_BOUND('',#181,.T.);
#123=FACE_OUTER_BOUND('',#182,.T.);
#124=FACE_OUTER_BOUND('',#183,.T.);
#125=EDGE_LOOP('',(#589,#590,#591,#592));
#126=EDGE_LOOP('',(#593,#594,#595,#596));
#127=EDGE_LOOP('',(#597,#598,#599));
#128=EDGE_LOOP('',(#600,#601,#602,#603));
#129=EDGE_LOOP('',(#604,#605,#606));
#130=EDGE_LOOP('',(#607,#608,#609,#610));
#131=EDGE_LOOP('',(#611,#612,#613,#614,#615,#616));
#132=EDGE_LOOP('',(#617,#618,#619,#620));
#133=EDGE_LOOP('',(#621,#622,#623,#624));
#134=EDGE_LOOP('',(#625,#626,#627,#628));
#135=EDGE_LOOP('',(#629,#630,#631,#632));
#136=EDGE_LOOP('',(#633,#634,#635));
#137=EDGE_LOOP('',(#636,#637,#638,#639));
#138=EDGE_LOOP('',(#640,#641,#642));
#139=EDGE_LOOP('',(#643,#644,#645,#646));
#140=EDGE_LOOP('',(#647,#648,#649,#650,#651,#652));
#141=EDGE_LOOP('',(#653,#654,#655,#656));
#142=EDGE_LOOP('',(#657,#658,#659,#660,#661));
#143=EDGE_LOOP('',(#662,#663,#664));
#144=EDGE_LOOP('',(#665,#666,#667,#668,#669,#670));
#145=EDGE_LOOP('',(#671,#672,#673));
#146=EDGE_LOOP('',(#674,#675,#676,#677));
#147=EDGE_LOOP('',(#678,#679,#680,#681,#682,#683));
#148=EDGE_LOOP('',(#684,#685,#686,#687));
#149=EDGE_LOOP('',(#688,#689,#690,#691));
#150=EDGE_LOOP('',(#692,#693,#694,#695));
#151=EDGE_LOOP('',(#696,#697,#698,#699));
#152=EDGE_LOOP('',(#700,#701,#702,#703));
#153=EDGE_LOOP('',(#704,#705,#706,#707));
#154=EDGE_LOOP('',(#708,#709,#710,#711,#712));
#155=EDGE_LOOP('',(#713,#714,#715,#716,#717,#718));
#156=EDGE_LOOP('',(#719,#720,#721,#722,#723,#724));
#157=EDGE_LOOP('',(#725,#726,#727,#728));
#158=EDGE_LOOP('',(#729,#730,#731,#732));
#159=EDGE_LOOP('',(#733,#734,#735,#736,#737,#738,#739,#740,#741,#742,#743,
#744,#745));
#160=EDGE_LOOP('',(#746,#747,#748));
#161=EDGE_LOOP('',(#749,#750,#751));
#162=EDGE_LOOP('',(#752,#753,#754,#755,#756,#757,#758,#759,#760,#761));
#163=EDGE_LOOP('',(#762,#763,#764));
#164=EDGE_LOOP('',(#765,#766,#767));
#165=EDGE_LOOP('',(#768,#769,#770,#771,#772,#773,#774,#775,#776,#777,#778,
#779,#780,#781,#782));
#166=EDGE_LOOP('',(#783));
#167=EDGE_LOOP('',(#784));
#168=EDGE_LOOP('',(#785));
#169=EDGE_LOOP('',(#786,#787,#788,#789,#790));
#170=EDGE_LOOP('',(#791,#792,#793,#794,#795));
#171=EDGE_LOOP('',(#796,#797,#798,#799));
#172=EDGE_LOOP('',(#800,#801,#802,#803,#804,#805,#806,#807,#808));
#173=EDGE_LOOP('',(#809,#810,#811,#812,#813,#814));
#174=EDGE_LOOP('',(#815,#816,#817,#818));
#175=EDGE_LOOP('',(#819,#820,#821));
#176=EDGE_LOOP('',(#822,#823,#824));
#177=EDGE_LOOP('',(#825,#826,#827,#828));
#178=EDGE_LOOP('',(#829,#830,#831,#832,#833,#834,#835,#836));
#179=EDGE_LOOP('',(#837,#838,#839,#840,#841,#842));
#180=EDGE_LOOP('',(#843,#844,#845,#846));
#181=EDGE_LOOP('',(#847,#848,#849,#850));
#182=EDGE_LOOP('',(#851,#852,#853,#854));
#183=EDGE_LOOP('',(#855,#856,#857,#858,#859,#860,#861));
#184=EDGE_LOOP('',(#862));
#185=EDGE_LOOP('',(#863));
#186=EDGE_LOOP('',(#864));
#187=LINE('',#1389,#255);
#188=LINE('',#1392,#256);
#189=LINE('',#1397,#257);
#190=LINE('',#1413,#258);
#191=LINE('',#1425,#259);
#192=LINE('',#1428,#260);
#193=LINE('',#1431,#261);
#194=LINE('',#1432,#262);
#195=LINE('',#1480,#263);
#196=LINE('',#1486,#264);
#197=LINE('',#1489,#265);
#198=LINE('',#1494,#266);
#199=LINE('',#1510,#267);
#200=LINE('',#1522,#268);
#201=LINE('',#1525,#269);
#202=LINE('',#1528,#270);
#203=LINE('',#1529,#271);
#204=LINE('',#1538,#272);
#205=LINE('',#1540,#273);
#206=LINE('',#1542,#274);
#207=LINE('',#1553,#275);
#208=LINE('',#1555,#276);
#209=LINE('',#1557,#277);
#210=LINE('',#1559,#278);
#211=LINE('',#1569,#279);
#212=LINE('',#1570,#280);
#213=LINE('',#1573,#281);
#214=LINE('',#1575,#282);
#215=LINE('',#1576,#283);
#216=LINE('',#1577,#284);
#217=LINE('',#1594,#285);
#218=LINE('',#1596,#286);
#219=LINE('',#1599,#287);
#220=LINE('',#1601,#288);
#221=LINE('',#1604,#289);
#222=LINE('',#1607,#290);
#223=LINE('',#1609,#291);
#224=LINE('',#1611,#292);
#225=LINE('',#1612,#293);
#226=LINE('',#1625,#294);
#227=LINE('',#1626,#295);
#228=LINE('',#1628,#296);
#229=LINE('',#1632,#297);
#230=LINE('',#1634,#298);
#231=LINE('',#1646,#299);
#232=LINE('',#1648,#300);
#233=LINE('',#1651,#301);
#234=LINE('',#1653,#302);
#235=LINE('',#1654,#303);
#236=LINE('',#1656,#304);
#237=LINE('',#1658,#305);
#238=LINE('',#1660,#306);
#239=LINE('',#1661,#307);
#240=LINE('',#1667,#308);
#241=LINE('',#1668,#309);
#242=LINE('',#1674,#310);
#243=LINE('',#1679,#311);
#244=LINE('',#1697,#312);
#245=LINE('',#1700,#313);
#246=LINE('',#1704,#314);
#247=LINE('',#1714,#315);
#248=LINE('',#1717,#316);
#249=LINE('',#1718,#317);
#250=LINE('',#1724,#318);
#251=LINE('',#1728,#319);
#252=LINE('',#1732,#320);
#253=LINE('',#1736,#321);
#254=LINE('',#1740,#322);
#255=VECTOR('',#1087,10.);
#256=VECTOR('',#1090,10.);
#257=VECTOR('',#1095,10.);
#258=VECTOR('',#1108,10.);
#259=VECTOR('',#1115,10.);
#260=VECTOR('',#1118,10.);
#261=VECTOR('',#1121,10.);
#262=VECTOR('',#1122,10.);
#263=VECTOR('',#1131,10.);
#264=VECTOR('',#1136,10.);
#265=VECTOR('',#1139,10.);
#266=VECTOR('',#1144,10.);
#267=VECTOR('',#1157,10.);
#268=VECTOR('',#1164,10.);
#269=VECTOR('',#1167,10.);
#270=VECTOR('',#1170,10.);
#271=VECTOR('',#1171,10.);
#272=VECTOR('',#1182,10.);
#273=VECTOR('',#1183,10.);
#274=VECTOR('',#1184,10.);
#275=VECTOR('',#1197,10.);
#276=VECTOR('',#1198,10.);
#277=VECTOR('',#1199,10.);
#278=VECTOR('',#1200,10.);
#279=VECTOR('',#1213,10.);
#280=VECTOR('',#1214,10.);
#281=VECTOR('',#1217,10.);
#282=VECTOR('',#1218,10.);
#283=VECTOR('',#1219,10.);
#284=VECTOR('',#1220,10.);
#285=VECTOR('',#1241,10.);
#286=VECTOR('',#1242,10.);
#287=VECTOR('',#1247,10.);
#288=VECTOR('',#1250,10.);
#289=VECTOR('',#1253,10.);
#290=VECTOR('',#1256,10.);
#291=VECTOR('',#1259,10.);
#292=VECTOR('',#1260,10.);
#293=VECTOR('',#1261,10.);
#294=VECTOR('',#1264,10.);
#295=VECTOR('',#1265,10.);
#296=VECTOR('',#1266,10.);
#297=VECTOR('',#1271,10.);
#298=VECTOR('',#1272,10.);
#299=VECTOR('',#1275,10.);
#300=VECTOR('',#1278,10.);
#301=VECTOR('',#1281,10.);
#302=VECTOR('',#1282,10.);
#303=VECTOR('',#1283,10.);
#304=VECTOR('',#1286,10.);
#305=VECTOR('',#1287,10.);
#306=VECTOR('',#1288,10.);
#307=VECTOR('',#1289,10.);
#308=VECTOR('',#1300,10.);
#309=VECTOR('',#1301,10.);
#310=VECTOR('',#1312,10.);
#311=VECTOR('',#1319,10.);
#312=VECTOR('',#1328,10.);
#313=VECTOR('',#1333,10.);
#314=VECTOR('',#1336,10.);
#315=VECTOR('',#1339,10.);
#316=VECTOR('',#1344,10.);
#317=VECTOR('',#1345,10.);
#318=VECTOR('',#1354,2.00000002980232);
#319=VECTOR('',#1359,2.00000002980232);
#320=VECTOR('',#1366,2.00000002980232);
#321=VECTOR('',#1371,2.00000002980232);
#322=VECTOR('',#1376,10.);
#323=CIRCLE('',#966,0.999999999999979);
#324=CIRCLE('',#967,0.999999999999998);
#325=CIRCLE('',#970,0.999999999999996);
#326=CIRCLE('',#972,1.);
#327=CIRCLE('',#975,0.999999999999996);
#328=CIRCLE('',#977,1.);
#329=CIRCLE('',#979,1.);
#330=CIRCLE('',#984,1.);
#331=CIRCLE('',#986,0.999999999999979);
#332=CIRCLE('',#987,0.999999999999995);
#333=CIRCLE('',#990,0.999999999999996);
#334=CIRCLE('',#992,1.);
#335=CIRCLE('',#995,0.999999999999996);
#336=CIRCLE('',#997,1.);
#337=CIRCLE('',#999,0.999999999999993);
#338=CIRCLE('',#1002,0.999999999999999);
#339=CIRCLE('',#1003,0.999999999999996);
#340=CIRCLE('',#1004,2.00000000000002);
#341=CIRCLE('',#1008,1.);
#342=CIRCLE('',#1009,0.999999999999996);
#343=CIRCLE('',#1010,1.00000000000001);
#344=CIRCLE('',#1014,1.00000000000001);
#345=CIRCLE('',#1015,0.999999999999996);
#346=CIRCLE('',#1016,1.);
#347=CIRCLE('',#1020,0.999999999999996);
#348=CIRCLE('',#1021,2.00000000000001);
#349=CIRCLE('',#1022,1.);
#350=CIRCLE('',#1024,0.999999999999996);
#351=CIRCLE('',#1025,0.999999999999996);
#352=CIRCLE('',#1026,1.99999999999999);
#353=CIRCLE('',#1027,1.00000000000001);
#354=CIRCLE('',#1033,1.);
#355=CIRCLE('',#1043,2.00000002980232);
#356=CIRCLE('',#1045,2.00000002980232);
#357=CIRCLE('',#1048,2.00000002980232);
#358=CIRCLE('',#1050,2.00000002980232);
#359=CIRCLE('',#1052,2.00000002980232);
#360=CIRCLE('',#1053,2.00000002980232);
#361=CIRCLE('',#1054,2.00000002980232);
#362=CIRCLE('',#1055,10.);
#363=CIRCLE('',#1056,2.00000002980232);
#364=CIRCLE('',#1057,2.00000002980232);
#365=CIRCLE('',#1069,2.00000002980232);
#366=CIRCLE('',#1071,2.00000002980232);
#367=CIRCLE('',#1072,2.00000002980232);
#368=CIRCLE('',#1074,2.00000002980232);
#369=CIRCLE('',#1076,2.00000002980232);
#370=CIRCLE('',#1078,10.);
#371=VERTEX_POINT('',#1385);
#372=VERTEX_POINT('',#1386);
#373=VERTEX_POINT('',#1388);
#374=VERTEX_POINT('',#1390);
#375=VERTEX_POINT('',#1394);
#376=VERTEX_POINT('',#1396);
#377=VERTEX_POINT('',#1400);
#378=VERTEX_POINT('',#1409);
#379=VERTEX_POINT('',#1411);
#380=VERTEX_POINT('',#1415);
#381=VERTEX_POINT('',#1424);
#382=VERTEX_POINT('',#1426);
#383=VERTEX_POINT('',#1430);
#384=VERTEX_POINT('',#1463);
#385=VERTEX_POINT('',#1464);
#386=VERTEX_POINT('',#1478);
#387=VERTEX_POINT('',#1482);
#388=VERTEX_POINT('',#1483);
#389=VERTEX_POINT('',#1485);
#390=VERTEX_POINT('',#1487);
#391=VERTEX_POINT('',#1491);
#392=VERTEX_POINT('',#1493);
#393=VERTEX_POINT('',#1497);
#394=VERTEX_POINT('',#1506);
#395=VERTEX_POINT('',#1508);
#396=VERTEX_POINT('',#1512);
#397=VERTEX_POINT('',#1521);
#398=VERTEX_POINT('',#1523);
#399=VERTEX_POINT('',#1527);
#400=VERTEX_POINT('',#1531);
#401=VERTEX_POINT('',#1533);
#402=VERTEX_POINT('',#1537);
#403=VERTEX_POINT('',#1539);
#404=VERTEX_POINT('',#1541);
#405=VERTEX_POINT('',#1545);
#406=VERTEX_POINT('',#1546);
#407=VERTEX_POINT('',#1548);
#408=VERTEX_POINT('',#1552);
#409=VERTEX_POINT('',#1554);
#410=VERTEX_POINT('',#1556);
#411=VERTEX_POINT('',#1558);
#412=VERTEX_POINT('',#1562);
#413=VERTEX_POINT('',#1563);
#414=VERTEX_POINT('',#1565);
#415=VERTEX_POINT('',#1572);
#416=VERTEX_POINT('',#1574);
#417=VERTEX_POINT('',#1579);
#418=VERTEX_POINT('',#1581);
#419=VERTEX_POINT('',#1585);
#420=VERTEX_POINT('',#1587);
#421=VERTEX_POINT('',#1589);
#422=VERTEX_POINT('',#1593);
#423=VERTEX_POINT('',#1595);
#424=VERTEX_POINT('',#1603);
#425=VERTEX_POINT('',#1605);
#426=VERTEX_POINT('',#1610);
#427=VERTEX_POINT('',#1614);
#428=VERTEX_POINT('',#1615);
#429=VERTEX_POINT('',#1624);
#430=VERTEX_POINT('',#1627);
#431=VERTEX_POINT('',#1631);
#432=VERTEX_POINT('',#1633);
#433=VERTEX_POINT('',#1635);
#434=VERTEX_POINT('',#1644);
#435=VERTEX_POINT('',#1650);
#436=VERTEX_POINT('',#1652);
#437=VERTEX_POINT('',#1657);
#438=VERTEX_POINT('',#1659);
#439=VERTEX_POINT('',#1676);
#440=VERTEX_POINT('',#1680);
#441=VERTEX_POINT('',#1682);
#442=VERTEX_POINT('',#1684);
#443=VERTEX_POINT('',#1687);
#444=VERTEX_POINT('',#1696);
#445=VERTEX_POINT('',#1701);
#446=VERTEX_POINT('',#1703);
#447=VERTEX_POINT('',#1723);
#448=VERTEX_POINT('',#1727);
#449=VERTEX_POINT('',#1735);
#450=VERTEX_POINT('',#1739);
#451=EDGE_CURVE('',#371,#372,#323,.T.);
#452=EDGE_CURVE('',#372,#373,#187,.T.);
#453=EDGE_CURVE('',#373,#374,#324,.T.);
#454=EDGE_CURVE('',#374,#371,#188,.T.);
#455=EDGE_CURVE('',#375,#374,#56,.F.);
#456=EDGE_CURVE('',#373,#376,#189,.T.);
#457=EDGE_CURVE('',#376,#375,#325,.T.);
#458=EDGE_CURVE('',#377,#375,#40,.F.);
#459=EDGE_CURVE('',#376,#377,#326,.T.);
#460=EDGE_CURVE('',#378,#371,#57,.T.);
#461=EDGE_CURVE('',#378,#379,#327,.T.);
#462=EDGE_CURVE('',#379,#372,#190,.T.);
#463=EDGE_CURVE('',#380,#378,#41,.T.);
#464=EDGE_CURVE('',#380,#379,#328,.T.);
#465=EDGE_CURVE('',#376,#381,#191,.T.);
#466=EDGE_CURVE('',#381,#382,#329,.T.);
#467=EDGE_CURVE('',#382,#377,#192,.T.);
#468=EDGE_CURVE('',#383,#379,#193,.T.);
#469=EDGE_CURVE('',#381,#383,#194,.T.);
#470=EDGE_CURVE('',#384,#385,#42,.T.);
#471=EDGE_CURVE('',#385,#382,#58,.T.);
#472=EDGE_CURVE('',#381,#384,#59,.T.);
#473=EDGE_CURVE('',#383,#386,#330,.T.);
#474=EDGE_CURVE('',#386,#384,#195,.T.);
#475=EDGE_CURVE('',#387,#388,#331,.T.);
#476=EDGE_CURVE('',#388,#389,#196,.T.);
#477=EDGE_CURVE('',#389,#390,#332,.T.);
#478=EDGE_CURVE('',#390,#387,#197,.T.);
#479=EDGE_CURVE('',#391,#390,#60,.F.);
#480=EDGE_CURVE('',#389,#392,#198,.T.);
#481=EDGE_CURVE('',#392,#391,#333,.T.);
#482=EDGE_CURVE('',#393,#391,#43,.F.);
#483=EDGE_CURVE('',#392,#393,#334,.T.);
#484=EDGE_CURVE('',#394,#387,#61,.T.);
#485=EDGE_CURVE('',#394,#395,#335,.T.);
#486=EDGE_CURVE('',#395,#388,#199,.T.);
#487=EDGE_CURVE('',#396,#394,#44,.T.);
#488=EDGE_CURVE('',#396,#395,#336,.T.);
#489=EDGE_CURVE('',#392,#397,#200,.T.);
#490=EDGE_CURVE('',#397,#398,#337,.F.);
#491=EDGE_CURVE('',#398,#393,#201,.T.);
#492=EDGE_CURVE('',#399,#395,#202,.T.);
#493=EDGE_CURVE('',#397,#399,#203,.T.);
#494=EDGE_CURVE('',#400,#383,#338,.F.);
#495=EDGE_CURVE('',#401,#400,#339,.T.);
#496=EDGE_CURVE('',#401,#386,#340,.T.);
#497=EDGE_CURVE('',#402,#401,#204,.T.);
#498=EDGE_CURVE('',#400,#403,#205,.T.);
#499=EDGE_CURVE('',#403,#404,#206,.T.);
#500=EDGE_CURVE('',#404,#402,#62,.T.);
#501=EDGE_CURVE('',#405,#406,#341,.F.);
#502=EDGE_CURVE('',#407,#405,#342,.F.);
#503=EDGE_CURVE('',#406,#407,#343,.F.);
#504=EDGE_CURVE('',#408,#407,#207,.T.);
#505=EDGE_CURVE('',#405,#409,#208,.T.);
#506=EDGE_CURVE('',#409,#410,#209,.T.);
#507=EDGE_CURVE('',#410,#411,#210,.T.);
#508=EDGE_CURVE('',#411,#408,#63,.T.);
#509=EDGE_CURVE('',#412,#413,#344,.F.);
#510=EDGE_CURVE('',#414,#412,#345,.F.);
#511=EDGE_CURVE('',#413,#414,#346,.F.);
#512=EDGE_CURVE('',#412,#406,#211,.T.);
#513=EDGE_CURVE('',#407,#414,#212,.T.);
#514=EDGE_CURVE('',#404,#415,#213,.T.);
#515=EDGE_CURVE('',#415,#416,#214,.T.);
#516=EDGE_CURVE('',#416,#413,#215,.T.);
#517=EDGE_CURVE('',#414,#402,#216,.T.);
#518=EDGE_CURVE('',#417,#397,#347,.T.);
#519=EDGE_CURVE('',#417,#418,#348,.T.);
#520=EDGE_CURVE('',#398,#418,#349,.T.);
#521=EDGE_CURVE('',#419,#399,#350,.F.);
#522=EDGE_CURVE('',#420,#419,#351,.T.);
#523=EDGE_CURVE('',#420,#421,#352,.T.);
#524=EDGE_CURVE('',#399,#421,#353,.T.);
#525=EDGE_CURVE('',#422,#420,#217,.T.);
#526=EDGE_CURVE('',#419,#423,#218,.T.);
#527=EDGE_CURVE('',#423,#422,#64,.T.);
#528=EDGE_CURVE('',#421,#417,#219,.T.);
#529=EDGE_CURVE('',#396,#419,#220,.T.);
#530=EDGE_CURVE('',#423,#424,#221,.T.);
#531=EDGE_CURVE('',#424,#425,#354,.T.);
#532=EDGE_CURVE('',#425,#422,#222,.T.);
#533=EDGE_CURVE('',#418,#412,#223,.T.);
#534=EDGE_CURVE('',#413,#426,#224,.T.);
#535=EDGE_CURVE('',#426,#398,#225,.T.);
#536=EDGE_CURVE('',#427,#428,#45,.T.);
#537=EDGE_CURVE('',#428,#429,#226,.T.);
#538=EDGE_CURVE('',#429,#405,#227,.T.);
#539=EDGE_CURVE('',#406,#430,#228,.T.);
#540=EDGE_CURVE('',#430,#427,#65,.T.);
#541=EDGE_CURVE('',#411,#431,#229,.T.);
#542=EDGE_CURVE('',#431,#432,#230,.T.);
#543=EDGE_CURVE('',#432,#433,#46,.T.);
#544=EDGE_CURVE('',#433,#434,#66,.T.);
#545=EDGE_CURVE('',#434,#408,#231,.T.);
#546=EDGE_CURVE('',#380,#400,#232,.T.);
#547=EDGE_CURVE('',#435,#425,#233,.T.);
#548=EDGE_CURVE('',#436,#435,#234,.T.);
#549=EDGE_CURVE('',#436,#422,#235,.T.);
#550=EDGE_CURVE('',#385,#424,#236,.T.);
#551=EDGE_CURVE('',#387,#437,#237,.T.);
#552=EDGE_CURVE('',#438,#437,#238,.T.);
#553=EDGE_CURVE('',#438,#374,#239,.T.);
#554=EDGE_CURVE('',#431,#410,#355,.T.);
#555=EDGE_CURVE('',#409,#429,#356,.T.);
#556=EDGE_CURVE('',#408,#402,#240,.T.);
#557=EDGE_CURVE('',#435,#434,#241,.T.);
#558=EDGE_CURVE('',#416,#426,#357,.T.);
#559=EDGE_CURVE('',#403,#415,#358,.T.);
#560=EDGE_CURVE('',#437,#390,#242,.T.);
#561=EDGE_CURVE('',#426,#416,#359,.T.);
#562=EDGE_CURVE('',#415,#439,#360,.T.);
#563=EDGE_CURVE('',#439,#403,#361,.T.);
#564=EDGE_CURVE('',#371,#438,#243,.T.);
#565=EDGE_CURVE('',#440,#440,#362,.T.);
#566=EDGE_CURVE('',#441,#441,#363,.T.);
#567=EDGE_CURVE('',#442,#442,#364,.T.);
#568=EDGE_CURVE('',#433,#443,#47,.T.);
#569=EDGE_CURVE('',#443,#444,#244,.T.);
#570=EDGE_CURVE('',#444,#435,#67,.T.);
#571=EDGE_CURVE('',#430,#436,#245,.T.);
#572=EDGE_CURVE('',#436,#445,#68,.T.);
#573=EDGE_CURVE('',#445,#446,#246,.T.);
#574=EDGE_CURVE('',#446,#427,#48,.T.);
#575=EDGE_CURVE('',#444,#445,#247,.T.);
#576=EDGE_CURVE('',#446,#443,#248,.T.);
#577=EDGE_CURVE('',#432,#428,#249,.T.);
#578=EDGE_CURVE('',#442,#447,#250,.T.);
#579=EDGE_CURVE('',#447,#447,#365,.T.);
#580=EDGE_CURVE('',#439,#448,#251,.T.);
#581=EDGE_CURVE('',#448,#431,#366,.T.);
#582=EDGE_CURVE('',#410,#448,#367,.T.);
#583=EDGE_CURVE('',#426,#429,#252,.T.);
#584=EDGE_CURVE('',#429,#409,#368,.T.);
#585=EDGE_CURVE('',#441,#449,#253,.T.);
#586=EDGE_CURVE('',#449,#449,#369,.T.);
#587=EDGE_CURVE('',#440,#450,#254,.T.);
#588=EDGE_CURVE('',#450,#450,#370,.T.);
#589=ORIENTED_EDGE('',*,*,#451,.T.);
#590=ORIENTED_EDGE('',*,*,#452,.T.);
#591=ORIENTED_EDGE('',*,*,#453,.T.);
#592=ORIENTED_EDGE('',*,*,#454,.T.);
#593=ORIENTED_EDGE('',*,*,#455,.T.);
#594=ORIENTED_EDGE('',*,*,#453,.F.);
#595=ORIENTED_EDGE('',*,*,#456,.T.);
#596=ORIENTED_EDGE('',*,*,#457,.T.);
#597=ORIENTED_EDGE('',*,*,#458,.T.);
#598=ORIENTED_EDGE('',*,*,#457,.F.);
#599=ORIENTED_EDGE('',*,*,#459,.T.);
#600=ORIENTED_EDGE('',*,*,#460,.F.);
#601=ORIENTED_EDGE('',*,*,#461,.T.);
#602=ORIENTED_EDGE('',*,*,#462,.T.);
#603=ORIENTED_EDGE('',*,*,#451,.F.);
#604=ORIENTED_EDGE('',*,*,#463,.F.);
#605=ORIENTED_EDGE('',*,*,#464,.T.);
#606=ORIENTED_EDGE('',*,*,#461,.F.);
#607=ORIENTED_EDGE('',*,*,#459,.F.);
#608=ORIENTED_EDGE('',*,*,#465,.T.);
#609=ORIENTED_EDGE('',*,*,#466,.T.);
#610=ORIENTED_EDGE('',*,*,#467,.T.);
#611=ORIENTED_EDGE('',*,*,#456,.F.);
#612=ORIENTED_EDGE('',*,*,#452,.F.);
#613=ORIENTED_EDGE('',*,*,#462,.F.);
#614=ORIENTED_EDGE('',*,*,#468,.F.);
#615=ORIENTED_EDGE('',*,*,#469,.F.);
#616=ORIENTED_EDGE('',*,*,#465,.F.);
#617=ORIENTED_EDGE('',*,*,#470,.T.);
#618=ORIENTED_EDGE('',*,*,#471,.T.);
#619=ORIENTED_EDGE('',*,*,#466,.F.);
#620=ORIENTED_EDGE('',*,*,#472,.T.);
#621=ORIENTED_EDGE('',*,*,#472,.F.);
#622=ORIENTED_EDGE('',*,*,#469,.T.);
#623=ORIENTED_EDGE('',*,*,#473,.T.);
#624=ORIENTED_EDGE('',*,*,#474,.T.);
#625=ORIENTED_EDGE('',*,*,#475,.T.);
#626=ORIENTED_EDGE('',*,*,#476,.T.);
#627=ORIENTED_EDGE('',*,*,#477,.T.);
#628=ORIENTED_EDGE('',*,*,#478,.T.);
#629=ORIENTED_EDGE('',*,*,#479,.T.);
#630=ORIENTED_EDGE('',*,*,#477,.F.);
#631=ORIENTED_EDGE('',*,*,#480,.T.);
#632=ORIENTED_EDGE('',*,*,#481,.T.);
#633=ORIENTED_EDGE('',*,*,#482,.T.);
#634=ORIENTED_EDGE('',*,*,#481,.F.);
#635=ORIENTED_EDGE('',*,*,#483,.T.);
#636=ORIENTED_EDGE('',*,*,#484,.F.);
#637=ORIENTED_EDGE('',*,*,#485,.T.);
#638=ORIENTED_EDGE('',*,*,#486,.T.);
#639=ORIENTED_EDGE('',*,*,#475,.F.);
#640=ORIENTED_EDGE('',*,*,#487,.F.);
#641=ORIENTED_EDGE('',*,*,#488,.T.);
#642=ORIENTED_EDGE('',*,*,#485,.F.);
#643=ORIENTED_EDGE('',*,*,#483,.F.);
#644=ORIENTED_EDGE('',*,*,#489,.T.);
#645=ORIENTED_EDGE('',*,*,#490,.T.);
#646=ORIENTED_EDGE('',*,*,#491,.T.);
#647=ORIENTED_EDGE('',*,*,#480,.F.);
#648=ORIENTED_EDGE('',*,*,#476,.F.);
#649=ORIENTED_EDGE('',*,*,#486,.F.);
#650=ORIENTED_EDGE('',*,*,#492,.F.);
#651=ORIENTED_EDGE('',*,*,#493,.F.);
#652=ORIENTED_EDGE('',*,*,#489,.F.);
#653=ORIENTED_EDGE('',*,*,#494,.F.);
#654=ORIENTED_EDGE('',*,*,#495,.F.);
#655=ORIENTED_EDGE('',*,*,#496,.T.);
#656=ORIENTED_EDGE('',*,*,#473,.F.);
#657=ORIENTED_EDGE('',*,*,#497,.T.);
#658=ORIENTED_EDGE('',*,*,#495,.T.);
#659=ORIENTED_EDGE('',*,*,#498,.T.);
#660=ORIENTED_EDGE('',*,*,#499,.T.);
#661=ORIENTED_EDGE('',*,*,#500,.T.);
#662=ORIENTED_EDGE('',*,*,#501,.F.);
#663=ORIENTED_EDGE('',*,*,#502,.F.);
#664=ORIENTED_EDGE('',*,*,#503,.F.);
#665=ORIENTED_EDGE('',*,*,#504,.T.);
#666=ORIENTED_EDGE('',*,*,#502,.T.);
#667=ORIENTED_EDGE('',*,*,#505,.T.);
#668=ORIENTED_EDGE('',*,*,#506,.T.);
#669=ORIENTED_EDGE('',*,*,#507,.T.);
#670=ORIENTED_EDGE('',*,*,#508,.T.);
#671=ORIENTED_EDGE('',*,*,#509,.F.);
#672=ORIENTED_EDGE('',*,*,#510,.F.);
#673=ORIENTED_EDGE('',*,*,#511,.F.);
#674=ORIENTED_EDGE('',*,*,#510,.T.);
#675=ORIENTED_EDGE('',*,*,#512,.T.);
#676=ORIENTED_EDGE('',*,*,#503,.T.);
#677=ORIENTED_EDGE('',*,*,#513,.T.);
#678=ORIENTED_EDGE('',*,*,#514,.T.);
#679=ORIENTED_EDGE('',*,*,#515,.T.);
#680=ORIENTED_EDGE('',*,*,#516,.T.);
#681=ORIENTED_EDGE('',*,*,#511,.T.);
#682=ORIENTED_EDGE('',*,*,#517,.T.);
#683=ORIENTED_EDGE('',*,*,#500,.F.);
#684=ORIENTED_EDGE('',*,*,#490,.F.);
#685=ORIENTED_EDGE('',*,*,#518,.F.);
#686=ORIENTED_EDGE('',*,*,#519,.T.);
#687=ORIENTED_EDGE('',*,*,#520,.F.);
#688=ORIENTED_EDGE('',*,*,#521,.F.);
#689=ORIENTED_EDGE('',*,*,#522,.F.);
#690=ORIENTED_EDGE('',*,*,#523,.T.);
#691=ORIENTED_EDGE('',*,*,#524,.F.);
#692=ORIENTED_EDGE('',*,*,#525,.T.);
#693=ORIENTED_EDGE('',*,*,#522,.T.);
#694=ORIENTED_EDGE('',*,*,#526,.T.);
#695=ORIENTED_EDGE('',*,*,#527,.T.);
#696=ORIENTED_EDGE('',*,*,#518,.T.);
#697=ORIENTED_EDGE('',*,*,#493,.T.);
#698=ORIENTED_EDGE('',*,*,#524,.T.);
#699=ORIENTED_EDGE('',*,*,#528,.T.);
#700=ORIENTED_EDGE('',*,*,#488,.F.);
#701=ORIENTED_EDGE('',*,*,#529,.T.);
#702=ORIENTED_EDGE('',*,*,#521,.T.);
#703=ORIENTED_EDGE('',*,*,#492,.T.);
#704=ORIENTED_EDGE('',*,*,#530,.T.);
#705=ORIENTED_EDGE('',*,*,#531,.T.);
#706=ORIENTED_EDGE('',*,*,#532,.T.);
#707=ORIENTED_EDGE('',*,*,#527,.F.);
#708=ORIENTED_EDGE('',*,*,#520,.T.);
#709=ORIENTED_EDGE('',*,*,#533,.T.);
#710=ORIENTED_EDGE('',*,*,#509,.T.);
#711=ORIENTED_EDGE('',*,*,#534,.T.);
#712=ORIENTED_EDGE('',*,*,#535,.T.);
#713=ORIENTED_EDGE('',*,*,#536,.T.);
#714=ORIENTED_EDGE('',*,*,#537,.T.);
#715=ORIENTED_EDGE('',*,*,#538,.T.);
#716=ORIENTED_EDGE('',*,*,#501,.T.);
#717=ORIENTED_EDGE('',*,*,#539,.T.);
#718=ORIENTED_EDGE('',*,*,#540,.T.);
#719=ORIENTED_EDGE('',*,*,#541,.T.);
#720=ORIENTED_EDGE('',*,*,#542,.T.);
#721=ORIENTED_EDGE('',*,*,#543,.T.);
#722=ORIENTED_EDGE('',*,*,#544,.T.);
#723=ORIENTED_EDGE('',*,*,#545,.T.);
#724=ORIENTED_EDGE('',*,*,#508,.F.);
#725=ORIENTED_EDGE('',*,*,#464,.F.);
#726=ORIENTED_EDGE('',*,*,#546,.T.);
#727=ORIENTED_EDGE('',*,*,#494,.T.);
#728=ORIENTED_EDGE('',*,*,#468,.T.);
#729=ORIENTED_EDGE('',*,*,#532,.F.);
#730=ORIENTED_EDGE('',*,*,#547,.F.);
#731=ORIENTED_EDGE('',*,*,#548,.F.);
#732=ORIENTED_EDGE('',*,*,#549,.T.);
#733=ORIENTED_EDGE('',*,*,#471,.F.);
#734=ORIENTED_EDGE('',*,*,#550,.T.);
#735=ORIENTED_EDGE('',*,*,#530,.F.);
#736=ORIENTED_EDGE('',*,*,#526,.F.);
#737=ORIENTED_EDGE('',*,*,#529,.F.);
#738=ORIENTED_EDGE('',*,*,#487,.T.);
#739=ORIENTED_EDGE('',*,*,#484,.T.);
#740=ORIENTED_EDGE('',*,*,#551,.T.);
#741=ORIENTED_EDGE('',*,*,#552,.F.);
#742=ORIENTED_EDGE('',*,*,#553,.T.);
#743=ORIENTED_EDGE('',*,*,#455,.F.);
#744=ORIENTED_EDGE('',*,*,#458,.F.);
#745=ORIENTED_EDGE('',*,*,#467,.F.);
#746=ORIENTED_EDGE('',*,*,#507,.F.);
#747=ORIENTED_EDGE('',*,*,#554,.F.);
#748=ORIENTED_EDGE('',*,*,#541,.F.);
#749=ORIENTED_EDGE('',*,*,#538,.F.);
#750=ORIENTED_EDGE('',*,*,#555,.F.);
#751=ORIENTED_EDGE('',*,*,#505,.F.);
#752=ORIENTED_EDGE('',*,*,#531,.F.);
#753=ORIENTED_EDGE('',*,*,#550,.F.);
#754=ORIENTED_EDGE('',*,*,#470,.F.);
#755=ORIENTED_EDGE('',*,*,#474,.F.);
#756=ORIENTED_EDGE('',*,*,#496,.F.);
#757=ORIENTED_EDGE('',*,*,#497,.F.);
#758=ORIENTED_EDGE('',*,*,#556,.F.);
#759=ORIENTED_EDGE('',*,*,#545,.F.);
#760=ORIENTED_EDGE('',*,*,#557,.F.);
#761=ORIENTED_EDGE('',*,*,#547,.T.);
#762=ORIENTED_EDGE('',*,*,#534,.F.);
#763=ORIENTED_EDGE('',*,*,#516,.F.);
#764=ORIENTED_EDGE('',*,*,#558,.T.);
#765=ORIENTED_EDGE('',*,*,#514,.F.);
#766=ORIENTED_EDGE('',*,*,#499,.F.);
#767=ORIENTED_EDGE('',*,*,#559,.T.);
#768=ORIENTED_EDGE('',*,*,#560,.T.);
#769=ORIENTED_EDGE('',*,*,#479,.F.);
#770=ORIENTED_EDGE('',*,*,#482,.F.);
#771=ORIENTED_EDGE('',*,*,#491,.F.);
#772=ORIENTED_EDGE('',*,*,#535,.F.);
#773=ORIENTED_EDGE('',*,*,#561,.T.);
#774=ORIENTED_EDGE('',*,*,#515,.F.);
#775=ORIENTED_EDGE('',*,*,#562,.T.);
#776=ORIENTED_EDGE('',*,*,#563,.T.);
#777=ORIENTED_EDGE('',*,*,#498,.F.);
#778=ORIENTED_EDGE('',*,*,#546,.F.);
#779=ORIENTED_EDGE('',*,*,#463,.T.);
#780=ORIENTED_EDGE('',*,*,#460,.T.);
#781=ORIENTED_EDGE('',*,*,#564,.T.);
#782=ORIENTED_EDGE('',*,*,#552,.T.);
#783=ORIENTED_EDGE('',*,*,#565,.T.);
#784=ORIENTED_EDGE('',*,*,#566,.T.);
#785=ORIENTED_EDGE('',*,*,#567,.T.);
#786=ORIENTED_EDGE('',*,*,#544,.F.);
#787=ORIENTED_EDGE('',*,*,#568,.T.);
#788=ORIENTED_EDGE('',*,*,#569,.T.);
#789=ORIENTED_EDGE('',*,*,#570,.T.);
#790=ORIENTED_EDGE('',*,*,#557,.T.);
#791=ORIENTED_EDGE('',*,*,#540,.F.);
#792=ORIENTED_EDGE('',*,*,#571,.T.);
#793=ORIENTED_EDGE('',*,*,#572,.T.);
#794=ORIENTED_EDGE('',*,*,#573,.T.);
#795=ORIENTED_EDGE('',*,*,#574,.T.);
#796=ORIENTED_EDGE('',*,*,#575,.T.);
#797=ORIENTED_EDGE('',*,*,#572,.F.);
#798=ORIENTED_EDGE('',*,*,#548,.T.);
#799=ORIENTED_EDGE('',*,*,#570,.F.);
#800=ORIENTED_EDGE('',*,*,#525,.F.);
#801=ORIENTED_EDGE('',*,*,#549,.F.);
#802=ORIENTED_EDGE('',*,*,#571,.F.);
#803=ORIENTED_EDGE('',*,*,#539,.F.);
#804=ORIENTED_EDGE('',*,*,#512,.F.);
#805=ORIENTED_EDGE('',*,*,#533,.F.);
#806=ORIENTED_EDGE('',*,*,#519,.F.);
#807=ORIENTED_EDGE('',*,*,#528,.F.);
#808=ORIENTED_EDGE('',*,*,#523,.F.);
#809=ORIENTED_EDGE('',*,*,#536,.F.);
#810=ORIENTED_EDGE('',*,*,#574,.F.);
#811=ORIENTED_EDGE('',*,*,#576,.T.);
#812=ORIENTED_EDGE('',*,*,#568,.F.);
#813=ORIENTED_EDGE('',*,*,#543,.F.);
#814=ORIENTED_EDGE('',*,*,#577,.T.);
#815=ORIENTED_EDGE('',*,*,#569,.F.);
#816=ORIENTED_EDGE('',*,*,#576,.F.);
#817=ORIENTED_EDGE('',*,*,#573,.F.);
#818=ORIENTED_EDGE('',*,*,#575,.F.);
#819=ORIENTED_EDGE('',*,*,#478,.F.);
#820=ORIENTED_EDGE('',*,*,#560,.F.);
#821=ORIENTED_EDGE('',*,*,#551,.F.);
#822=ORIENTED_EDGE('',*,*,#454,.F.);
#823=ORIENTED_EDGE('',*,*,#553,.F.);
#824=ORIENTED_EDGE('',*,*,#564,.F.);
#825=ORIENTED_EDGE('',*,*,#567,.F.);
#826=ORIENTED_EDGE('',*,*,#578,.T.);
#827=ORIENTED_EDGE('',*,*,#579,.T.);
#828=ORIENTED_EDGE('',*,*,#578,.F.);
#829=ORIENTED_EDGE('',*,*,#562,.F.);
#830=ORIENTED_EDGE('',*,*,#559,.F.);
#831=ORIENTED_EDGE('',*,*,#563,.F.);
#832=ORIENTED_EDGE('',*,*,#580,.T.);
#833=ORIENTED_EDGE('',*,*,#581,.T.);
#834=ORIENTED_EDGE('',*,*,#554,.T.);
#835=ORIENTED_EDGE('',*,*,#582,.T.);
#836=ORIENTED_EDGE('',*,*,#580,.F.);
#837=ORIENTED_EDGE('',*,*,#561,.F.);
#838=ORIENTED_EDGE('',*,*,#583,.T.);
#839=ORIENTED_EDGE('',*,*,#584,.T.);
#840=ORIENTED_EDGE('',*,*,#555,.T.);
#841=ORIENTED_EDGE('',*,*,#583,.F.);
#842=ORIENTED_EDGE('',*,*,#558,.F.);
#843=ORIENTED_EDGE('',*,*,#566,.F.);
#844=ORIENTED_EDGE('',*,*,#585,.T.);
#845=ORIENTED_EDGE('',*,*,#586,.T.);
#846=ORIENTED_EDGE('',*,*,#585,.F.);
#847=ORIENTED_EDGE('',*,*,#565,.F.);
#848=ORIENTED_EDGE('',*,*,#587,.T.);
#849=ORIENTED_EDGE('',*,*,#588,.T.);
#850=ORIENTED_EDGE('',*,*,#587,.F.);
#851=ORIENTED_EDGE('',*,*,#504,.F.);
#852=ORIENTED_EDGE('',*,*,#556,.T.);
#853=ORIENTED_EDGE('',*,*,#517,.F.);
#854=ORIENTED_EDGE('',*,*,#513,.F.);
#855=ORIENTED_EDGE('',*,*,#537,.F.);
#856=ORIENTED_EDGE('',*,*,#577,.F.);
#857=ORIENTED_EDGE('',*,*,#542,.F.);
#858=ORIENTED_EDGE('',*,*,#581,.F.);
#859=ORIENTED_EDGE('',*,*,#582,.F.);
#860=ORIENTED_EDGE('',*,*,#506,.F.);
#861=ORIENTED_EDGE('',*,*,#584,.F.);
#862=ORIENTED_EDGE('',*,*,#588,.F.);
#863=ORIENTED_EDGE('',*,*,#586,.F.);
#864=ORIENTED_EDGE('',*,*,#579,.F.);
#865=CYLINDRICAL_SURFACE('',#965,1.);
#866=CYLINDRICAL_SURFACE('',#968,1.);
#867=CYLINDRICAL_SURFACE('',#973,1.);
#868=CYLINDRICAL_SURFACE('',#978,1.);
#869=CYLINDRICAL_SURFACE('',#983,1.);
#870=CYLINDRICAL_SURFACE('',#985,1.);
#871=CYLINDRICAL_SURFACE('',#988,1.);
#872=CYLINDRICAL_SURFACE('',#993,1.);
#873=CYLINDRICAL_SURFACE('',#998,1.);
#874=CYLINDRICAL_SURFACE('',#1005,1.);
#875=CYLINDRICAL_SURFACE('',#1011,1.);
#876=CYLINDRICAL_SURFACE('',#1017,1.);
#877=CYLINDRICAL_SURFACE('',#1018,1.);
#878=CYLINDRICAL_SURFACE('',#1028,1.);
#879=CYLINDRICAL_SURFACE('',#1030,1.);
#880=CYLINDRICAL_SURFACE('',#1031,1.);
#881=CYLINDRICAL_SURFACE('',#1032,1.);
#882=CYLINDRICAL_SURFACE('',#1034,1.);
#883=CYLINDRICAL_SURFACE('',#1035,1.);
#884=CYLINDRICAL_SURFACE('',#1037,1.);
#885=CYLINDRICAL_SURFACE('',#1039,1.);
#886=CYLINDRICAL_SURFACE('',#1058,1.);
#887=CYLINDRICAL_SURFACE('',#1060,1.);
#888=CYLINDRICAL_SURFACE('',#1062,1.);
#889=CYLINDRICAL_SURFACE('',#1064,3.);
#890=CYLINDRICAL_SURFACE('',#1068,2.00000002980232);
#891=CYLINDRICAL_SURFACE('',#1070,2.00000002980232);
#892=CYLINDRICAL_SURFACE('',#1073,2.00000002980232);
#893=CYLINDRICAL_SURFACE('',#1075,2.00000002980232);
#894=CYLINDRICAL_SURFACE('',#1077,10.);
#895=ADVANCED_FACE('',(#69),#865,.T.);
#896=ADVANCED_FACE('',(#70),#866,.T.);
#897=ADVANCED_FACE('',(#71),#49,.T.);
#898=ADVANCED_FACE('',(#72),#867,.T.);
#899=ADVANCED_FACE('',(#73),#50,.T.);
#900=ADVANCED_FACE('',(#74),#868,.F.);
#901=ADVANCED_FACE('',(#75),#24,.T.);
#902=ADVANCED_FACE('',(#76),#23,.T.);
#903=ADVANCED_FACE('',(#77),#869,.T.);
#904=ADVANCED_FACE('',(#78),#870,.T.);
#905=ADVANCED_FACE('',(#79),#871,.T.);
#906=ADVANCED_FACE('',(#80),#51,.T.);
#907=ADVANCED_FACE('',(#81),#872,.T.);
#908=ADVANCED_FACE('',(#82),#52,.T.);
#909=ADVANCED_FACE('',(#83),#873,.F.);
#910=ADVANCED_FACE('',(#84),#25,.T.);
#911=ADVANCED_FACE('',(#85),#53,.T.);
#912=ADVANCED_FACE('',(#86),#874,.T.);
#913=ADVANCED_FACE('',(#87),#21,.T.);
#914=ADVANCED_FACE('',(#88),#875,.T.);
#915=ADVANCED_FACE('',(#89),#22,.T.);
#916=ADVANCED_FACE('',(#90),#876,.T.);
#917=ADVANCED_FACE('',(#91),#877,.T.);
#918=ADVANCED_FACE('',(#92),#54,.T.);
#919=ADVANCED_FACE('',(#93),#55,.T.);
#920=ADVANCED_FACE('',(#94),#878,.T.);
#921=ADVANCED_FACE('',(#95),#879,.T.);
#922=ADVANCED_FACE('',(#96),#880,.F.);
#923=ADVANCED_FACE('',(#97),#881,.T.);
#924=ADVANCED_FACE('',(#98),#882,.T.);
#925=ADVANCED_FACE('',(#99),#883,.T.);
#926=ADVANCED_FACE('',(#100),#884,.T.);
#927=ADVANCED_FACE('',(#101),#885,.F.);
#928=ADVANCED_FACE('',(#102),#26,.T.);
#929=ADVANCED_FACE('',(#103),#27,.T.);
#930=ADVANCED_FACE('',(#104),#28,.F.);
#931=ADVANCED_FACE('',(#105),#29,.F.);
#932=ADVANCED_FACE('',(#106),#30,.T.);
#933=ADVANCED_FACE('',(#107),#31,.T.);
#934=ADVANCED_FACE('',(#108),#32,.T.);
#935=ADVANCED_FACE('',(#109,#15,#16,#17),#33,.T.);
#936=ADVANCED_FACE('',(#110),#886,.T.);
#937=ADVANCED_FACE('',(#111),#887,.T.);
#938=ADVANCED_FACE('',(#112),#888,.T.);
#939=ADVANCED_FACE('',(#113),#34,.T.);
#940=ADVANCED_FACE('',(#114),#889,.T.);
#941=ADVANCED_FACE('',(#115),#35,.T.);
#942=ADVANCED_FACE('',(#116),#36,.T.);
#943=ADVANCED_FACE('',(#117),#37,.T.);
#944=ADVANCED_FACE('',(#118),#890,.F.);
#945=ADVANCED_FACE('',(#119),#891,.F.);
#946=ADVANCED_FACE('',(#120),#892,.F.);
#947=ADVANCED_FACE('',(#121),#893,.F.);
#948=ADVANCED_FACE('',(#122),#894,.F.);
#949=ADVANCED_FACE('',(#123),#38,.T.);
#950=ADVANCED_FACE('',(#124,#18,#19,#20),#39,.F.);
#951=CLOSED_SHELL('',(#895,#896,#897,#898,#899,#900,#901,#902,#903,#904,
#905,#906,#907,#908,#909,#910,#911,#912,#913,#914,#915,#916,#917,#918,#919,
#920,#921,#922,#923,#924,#925,#926,#927,#928,#929,#930,#931,#932,#933,#934,
#935,#936,#937,#938,#939,#940,#941,#942,#943,#944,#945,#946,#947,#948,#949,
#950));
#952=DERIVED_UNIT_ELEMENT(#954,1.);
#953=DERIVED_UNIT_ELEMENT(#1749,-3.);
#954=(
MASS_UNIT()
NAMED_UNIT(*)
SI_UNIT(.KILO.,.GRAM.)
);
#955=DERIVED_UNIT((#952,#953));
#956=MEASURE_REPRESENTATION_ITEM('density measure',
POSITIVE_RATIO_MEASURE(7850.),#955);
#957=PROPERTY_DEFINITION_REPRESENTATION(#962,#959);
#958=PROPERTY_DEFINITION_REPRESENTATION(#963,#960);
#959=REPRESENTATION('material name',(#961),#1746);
#960=REPRESENTATION('density',(#956),#1746);
#961=DESCRIPTIVE_REPRESENTATION_ITEM('Steel','Steel');
#962=PROPERTY_DEFINITION('material property','material name',#1756);
#963=PROPERTY_DEFINITION('material property','density of part',#1756);
#964=AXIS2_PLACEMENT_3D('',#1383,#1081,#1082);
#965=AXIS2_PLACEMENT_3D('',#1384,#1083,#1084);
#966=AXIS2_PLACEMENT_3D('',#1387,#1085,#1086);
#967=AXIS2_PLACEMENT_3D('',#1391,#1088,#1089);
#968=AXIS2_PLACEMENT_3D('',#1393,#1091,#1092);
#969=AXIS2_PLACEMENT_3D('',#1395,#1093,#1094);
#970=AXIS2_PLACEMENT_3D('',#1398,#1096,#1097);
#971=AXIS2_PLACEMENT_3D('',#1399,#1098,#1099);
#972=AXIS2_PLACEMENT_3D('',#1407,#1100,#1101);
#973=AXIS2_PLACEMENT_3D('',#1408,#1102,#1103);
#974=AXIS2_PLACEMENT_3D('',#1410,#1104,#1105);
#975=AXIS2_PLACEMENT_3D('',#1412,#1106,#1107);
#976=AXIS2_PLACEMENT_3D('',#1414,#1109,#1110);
#977=AXIS2_PLACEMENT_3D('',#1422,#1111,#1112);
#978=AXIS2_PLACEMENT_3D('',#1423,#1113,#1114);
#979=AXIS2_PLACEMENT_3D('',#1427,#1116,#1117);
#980=AXIS2_PLACEMENT_3D('',#1429,#1119,#1120);
#981=AXIS2_PLACEMENT_3D('',#1475,#1123,#1124);
#982=AXIS2_PLACEMENT_3D('',#1476,#1125,#1126);
#983=AXIS2_PLACEMENT_3D('',#1477,#1127,#1128);
#984=AXIS2_PLACEMENT_3D('',#1479,#1129,#1130);
#985=AXIS2_PLACEMENT_3D('',#1481,#1132,#1133);
#986=AXIS2_PLACEMENT_3D('',#1484,#1134,#1135);
#987=AXIS2_PLACEMENT_3D('',#1488,#1137,#1138);
#988=AXIS2_PLACEMENT_3D('',#1490,#1140,#1141);
#989=AXIS2_PLACEMENT_3D('',#1492,#1142,#1143);
#990=AXIS2_PLACEMENT_3D('',#1495,#1145,#1146);
#991=AXIS2_PLACEMENT_3D('',#1496,#1147,#1148);
#992=AXIS2_PLACEMENT_3D('',#1504,#1149,#1150);
#993=AXIS2_PLACEMENT_3D('',#1505,#1151,#1152);
#994=AXIS2_PLACEMENT_3D('',#1507,#1153,#1154);
#995=AXIS2_PLACEMENT_3D('',#1509,#1155,#1156);
#996=AXIS2_PLACEMENT_3D('',#1511,#1158,#1159);
#997=AXIS2_PLACEMENT_3D('',#1519,#1160,#1161);
#998=AXIS2_PLACEMENT_3D('',#1520,#1162,#1163);
#999=AXIS2_PLACEMENT_3D('',#1524,#1165,#1166);
#1000=AXIS2_PLACEMENT_3D('',#1526,#1168,#1169);
#1001=AXIS2_PLACEMENT_3D('',#1530,#1172,#1173);
#1002=AXIS2_PLACEMENT_3D('',#1532,#1174,#1175);
#1003=AXIS2_PLACEMENT_3D('',#1534,#1176,#1177);
#1004=AXIS2_PLACEMENT_3D('',#1535,#1178,#1179);
#1005=AXIS2_PLACEMENT_3D('',#1536,#1180,#1181);
#1006=AXIS2_PLACEMENT_3D('',#1543,#1185,#1186);
#1007=AXIS2_PLACEMENT_3D('',#1544,#1187,#1188);
#1008=AXIS2_PLACEMENT_3D('',#1547,#1189,#1190);
#1009=AXIS2_PLACEMENT_3D('',#1549,#1191,#1192);
#1010=AXIS2_PLACEMENT_3D('',#1550,#1193,#1194);
#1011=AXIS2_PLACEMENT_3D('',#1551,#1195,#1196);
#1012=AXIS2_PLACEMENT_3D('',#1560,#1201,#1202);
#1013=AXIS2_PLACEMENT_3D('',#1561,#1203,#1204);
#1014=AXIS2_PLACEMENT_3D('',#1564,#1205,#1206);
#1015=AXIS2_PLACEMENT_3D('',#1566,#1207,#1208);
#1016=AXIS2_PLACEMENT_3D('',#1567,#1209,#1210);
#1017=AXIS2_PLACEMENT_3D('',#1568,#1211,#1212);
#1018=AXIS2_PLACEMENT_3D('',#1571,#1215,#1216);
#1019=AXIS2_PLACEMENT_3D('',#1578,#1221,#1222);
#1020=AXIS2_PLACEMENT_3D('',#1580,#1223,#1224);
#1021=AXIS2_PLACEMENT_3D('',#1582,#1225,#1226);
#1022=AXIS2_PLACEMENT_3D('',#1583,#1227,#1228);
#1023=AXIS2_PLACEMENT_3D('',#1584,#1229,#1230);
#1024=AXIS2_PLACEMENT_3D('',#1586,#1231,#1232);
#1025=AXIS2_PLACEMENT_3D('',#1588,#1233,#1234);
#1026=AXIS2_PLACEMENT_3D('',#1590,#1235,#1236);
#1027=AXIS2_PLACEMENT_3D('',#1591,#1237,#1238);
#1028=AXIS2_PLACEMENT_3D('',#1592,#1239,#1240);
#1029=AXIS2_PLACEMENT_3D('',#1597,#1243,#1244);
#1030=AXIS2_PLACEMENT_3D('',#1598,#1245,#1246);
#1031=AXIS2_PLACEMENT_3D('',#1600,#1248,#1249);
#1032=AXIS2_PLACEMENT_3D('',#1602,#1251,#1252);
#1033=AXIS2_PLACEMENT_3D('',#1606,#1254,#1255);
#1034=AXIS2_PLACEMENT_3D('',#1608,#1257,#1258);
#1035=AXIS2_PLACEMENT_3D('',#1613,#1262,#1263);
#1036=AXIS2_PLACEMENT_3D('',#1629,#1267,#1268);
#1037=AXIS2_PLACEMENT_3D('',#1630,#1269,#1270);
#1038=AXIS2_PLACEMENT_3D('',#1645,#1273,#1274);
#1039=AXIS2_PLACEMENT_3D('',#1647,#1276,#1277);
#1040=AXIS2_PLACEMENT_3D('',#1649,#1279,#1280);
#1041=AXIS2_PLACEMENT_3D('',#1655,#1284,#1285);
#1042=AXIS2_PLACEMENT_3D('',#1662,#1290,#1291);
#1043=AXIS2_PLACEMENT_3D('',#1663,#1292,#1293);
#1044=AXIS2_PLACEMENT_3D('',#1664,#1294,#1295);
#1045=AXIS2_PLACEMENT_3D('',#1665,#1296,#1297);
#1046=AXIS2_PLACEMENT_3D('',#1666,#1298,#1299);
#1047=AXIS2_PLACEMENT_3D('',#1669,#1302,#1303);
#1048=AXIS2_PLACEMENT_3D('',#1670,#1304,#1305);
#1049=AXIS2_PLACEMENT_3D('',#1671,#1306,#1307);
#1050=AXIS2_PLACEMENT_3D('',#1672,#1308,#1309);
#1051=AXIS2_PLACEMENT_3D('',#1673,#1310,#1311);
#1052=AXIS2_PLACEMENT_3D('',#1675,#1313,#1314);
#1053=AXIS2_PLACEMENT_3D('',#1677,#1315,#1316);
#1054=AXIS2_PLACEMENT_3D('',#1678,#1317,#1318);
#1055=AXIS2_PLACEMENT_3D('',#1681,#1320,#1321);
#1056=AXIS2_PLACEMENT_3D('',#1683,#1322,#1323);
#1057=AXIS2_PLACEMENT_3D('',#1685,#1324,#1325);
#1058=AXIS2_PLACEMENT_3D('',#1686,#1326,#1327);
#1059=AXIS2_PLACEMENT_3D('',#1698,#1329,#1330);
#1060=AXIS2_PLACEMENT_3D('',#1699,#1331,#1332);
#1061=AXIS2_PLACEMENT_3D('',#1702,#1334,#1335);
#1062=AXIS2_PLACEMENT_3D('',#1713,#1337,#1338);
#1063=AXIS2_PLACEMENT_3D('',#1715,#1340,#1341);
#1064=AXIS2_PLACEMENT_3D('',#1716,#1342,#1343);
#1065=AXIS2_PLACEMENT_3D('',#1719,#1346,#1347);
#1066=AXIS2_PLACEMENT_3D('',#1720,#1348,#1349);
#1067=AXIS2_PLACEMENT_3D('',#1721,#1350,#1351);
#1068=AXIS2_PLACEMENT_3D('',#1722,#1352,#1353);
#1069=AXIS2_PLACEMENT_3D('',#1725,#1355,#1356);
#1070=AXIS2_PLACEMENT_3D('',#1726,#1357,#1358);
#1071=AXIS2_PLACEMENT_3D('',#1729,#1360,#1361);
#1072=AXIS2_PLACEMENT_3D('',#1730,#1362,#1363);
#1073=AXIS2_PLACEMENT_3D('',#1731,#1364,#1365);
#1074=AXIS2_PLACEMENT_3D('',#1733,#1367,#1368);
#1075=AXIS2_PLACEMENT_3D('',#1734,#1369,#1370);
#1076=AXIS2_PLACEMENT_3D('',#1737,#1372,#1373);
#1077=AXIS2_PLACEMENT_3D('',#1738,#1374,#1375);
#1078=AXIS2_PLACEMENT_3D('',#1741,#1377,#1378);
#1079=AXIS2_PLACEMENT_3D('',#1742,#1379,#1380);
#1080=AXIS2_PLACEMENT_3D('',#1743,#1381,#1382);
#1081=DIRECTION('axis',(0.,0.,1.));
#1082=DIRECTION('refdir',(1.,0.,0.));
#1083=DIRECTION('center_axis',(0.,0.707106781186548,0.707106781186547));
#1084=DIRECTION('ref_axis',(-0.70710678118654,-0.500000000000004,0.500000000000006));
#1085=DIRECTION('center_axis',(1.17756934401286E-15,0.707106781186548,0.707106781186547));
#1086=DIRECTION('ref_axis',(-1.,0.,1.66533453693777E-15));
#1087=DIRECTION('',(0.,0.707106781186548,0.707106781186547));
#1088=DIRECTION('center_axis',(3.14018491736762E-15,-0.707106781186548,
-0.707106781186548));
#1089=DIRECTION('ref_axis',(0.,-0.707106781186548,0.707106781186548));
#1090=DIRECTION('',(0.,-0.707106781186548,-0.707106781186547));
#1091=DIRECTION('center_axis',(0.,-0.707106781186548,-0.707106781186547));
#1092=DIRECTION('ref_axis',(-0.707106781186541,-0.500000000000005,0.500000000000005));
#1093=DIRECTION('center_axis',(0.,1.,0.));
#1094=DIRECTION('ref_axis',(1.96261557335472E-16,3.46944695195358E-17,1.));
#1095=DIRECTION('',(0.,0.707106781186548,0.707106781186547));
#1096=DIRECTION('center_axis',(0.,-0.707106781186546,-0.707106781186549));
#1097=DIRECTION('ref_axis',(0.,-0.707106781186549,0.707106781186546));
#1098=DIRECTION('center_axis',(-1.,0.,0.));
#1099=DIRECTION('ref_axis',(0.,0.,1.));
#1100=DIRECTION('center_axis',(1.,0.,0.));
#1101=DIRECTION('ref_axis',(0.,0.923879532511285,-0.382683432365093));
#1102=DIRECTION('center_axis',(0.,-0.707106781186548,-0.707106781186547));
#1103=DIRECTION('ref_axis',(-0.707106781186541,-0.500000000000005,0.500000000000005));
#1104=DIRECTION('center_axis',(0.,0.,-1.));
#1105=DIRECTION('ref_axis',(4.9065389333868E-17,-1.,0.));
#1106=DIRECTION('center_axis',(0.,0.707106781186549,0.707106781186546));
#1107=DIRECTION('ref_axis',(-1.,0.,0.));
#1108=DIRECTION('',(0.,0.707106781186548,0.707106781186547));
#1109=DIRECTION('center_axis',(-1.,0.,0.));
#1110=DIRECTION('ref_axis',(0.,0.,1.));
#1111=DIRECTION('center_axis',(1.,0.,0.));
#1112=DIRECTION('ref_axis',(0.,0.382683432365082,-0.92387953251129));
#1113=DIRECTION('center_axis',(1.,0.,0.));
#1114=DIRECTION('ref_axis',(0.,0.923879532511285,-0.382683432365094));
#1115=DIRECTION('',(1.,0.,0.));
#1116=DIRECTION('center_axis',(1.,0.,0.));
#1117=DIRECTION('ref_axis',(0.,0.707106781186546,-0.707106781186549));
#1118=DIRECTION('',(-1.,0.,0.));
#1119=DIRECTION('center_axis',(0.,-0.707106781186547,0.707106781186548));
#1120=DIRECTION('ref_axis',(0.,0.707106781186548,0.707106781186547));
#1121=DIRECTION('',(-1.,0.,0.));
#1122=DIRECTION('',(0.,-0.707106781186548,-0.707106781186547));
#1123=DIRECTION('center_axis',(0.,-1.,0.));
#1124=DIRECTION('ref_axis',(-9.81307786677359E-17,0.,1.));
#1125=DIRECTION('center_axis',(-1.61498339554529E-14,0.948683298050514,
-0.316227766016837));
#1126=DIRECTION('ref_axis',(0.,0.316227766016837,0.948683298050514));
#1127=DIRECTION('center_axis',(0.,-0.707106781186548,-0.707106781186547));
#1128=DIRECTION('ref_axis',(0.707106781186553,-0.499999999999996,0.499999999999997));
#1129=DIRECTION('center_axis',(-2.04112019628888E-14,0.70710678118655,0.707106781186545));
#1130=DIRECTION('ref_axis',(0.,-0.707106781186545,0.70710678118655));
#1131=DIRECTION('',(0.,0.707106781186548,0.707106781186547));
#1132=DIRECTION('center_axis',(0.,-0.695071640368227,-0.718940480676824));
#1133=DIRECTION('ref_axis',(0.707106781186539,-0.508367689156111,0.491489870314831));
#1134=DIRECTION('center_axis',(0.,-0.695071640368229,-0.718940480676821));
#1135=DIRECTION('ref_axis',(1.,0.,0.));
#1136=DIRECTION('',(0.,-0.695071640368227,-0.718940480676824));
#1137=DIRECTION('center_axis',(-3.19273709993001E-15,0.695071640368229,
0.718940480676821));
#1138=DIRECTION('ref_axis',(0.,-0.718940480676821,0.695071640368229));
#1139=DIRECTION('',(0.,0.695071640368227,0.718940480676824));
#1140=DIRECTION('center_axis',(0.,0.695071640368227,0.718940480676824));
#1141=DIRECTION('ref_axis',(0.707106781186539,-0.508367689156111,0.491489870314831));
#1142=DIRECTION('center_axis',(0.,0.,-1.));
#1143=DIRECTION('ref_axis',(1.49659551559216E-16,-1.,0.));
#1144=DIRECTION('',(0.,-0.695071640368227,-0.718940480676824));
#1145=DIRECTION('center_axis',(0.,0.695071640368231,0.71894048067682));
#1146=DIRECTION('ref_axis',(0.,-0.71894048067682,0.69507164036823));
#1147=DIRECTION('center_axis',(1.,0.,0.));
#1148=DIRECTION('ref_axis',(0.,0.,-1.));
#1149=DIRECTION('center_axis',(-1.,0.,0.));
#1150=DIRECTION('ref_axis',(0.,0.390466618055746,-0.920617086624025));
#1151=DIRECTION('center_axis',(0.,0.695071640368227,0.718940480676824));
#1152=DIRECTION('ref_axis',(0.707106781186539,-0.508367689156111,0.491489870314831));
#1153=DIRECTION('center_axis',(0.,1.,0.));
#1154=DIRECTION('ref_axis',(0.,0.,1.));
#1155=DIRECTION('center_axis',(0.,-0.695071640368229,-0.718940480676821));
#1156=DIRECTION('ref_axis',(1.,0.,0.));
#1157=DIRECTION('',(0.,-0.695071640368227,-0.718940480676824));
#1158=DIRECTION('center_axis',(1.,0.,0.));
#1159=DIRECTION('ref_axis',(0.,0.,-1.));
#1160=DIRECTION('center_axis',(-1.,0.,0.));
#1161=DIRECTION('ref_axis',(0.,0.927076178282246,-0.374872991373859));
#1162=DIRECTION('center_axis',(-1.,0.,0.));
#1163=DIRECTION('ref_axis',(0.,0.390466618055729,-0.920617086624033));
#1164=DIRECTION('',(-1.,0.,0.));
#1165=DIRECTION('center_axis',(1.,1.7173817519343E-14,1.77635683940025E-14));
#1166=DIRECTION('ref_axis',(0.,0.718940480676822,-0.695071640368228));
#1167=DIRECTION('',(1.,0.,0.));
#1168=DIRECTION('center_axis',(0.,-0.718940480676824,0.695071640368227));
#1169=DIRECTION('ref_axis',(0.,-0.695071640368227,-0.718940480676824));
#1170=DIRECTION('',(1.,0.,0.));
#1171=DIRECTION('',(0.,0.695071640368227,0.718940480676824));
#1172=DIRECTION('center_axis',(-1.,0.,-2.88657986402538E-14));
#1173=DIRECTION('ref_axis',(-2.8421709430404E-14,0.,1.));
#1174=DIRECTION('center_axis',(-1.,-2.51214793389404E-14,0.));
#1175=DIRECTION('ref_axis',(0.,0.,-1.));
#1176=DIRECTION('center_axis',(0.,-1.,0.));
#1177=DIRECTION('ref_axis',(1.,0.,0.));
#1178=DIRECTION('center_axis',(1.,0.,0.));
#1179=DIRECTION('ref_axis',(0.,0.382683432365093,-0.923879532511285));
#1180=DIRECTION('center_axis',(0.,1.,0.));
#1181=DIRECTION('ref_axis',(0.70710678118654,0.,0.707106781186555));
#1182=DIRECTION('',(0.,1.,0.));
#1183=DIRECTION('',(0.,-1.,0.));
#1184=DIRECTION('',(0.,-1.,0.));
#1185=DIRECTION('center_axis',(0.707106781186548,0.707106781186548,0.));
#1186=DIRECTION('ref_axis',(0.707106781186548,-0.707106781186548,0.));
#1187=DIRECTION('center_axis',(0.408248290463862,0.408248290463854,-0.816496580927731));
#1188=DIRECTION('ref_axis',(-0.57735026918963,-0.577350269189623,-0.577350269189625));
#1189=DIRECTION('center_axis',(0.,-1.,0.));
#1190=DIRECTION('ref_axis',(0.,0.,-1.));
#1191=DIRECTION('center_axis',(-1.,0.,1.77635683940025E-14));
#1192=DIRECTION('ref_axis',(0.,-1.,0.));
#1193=DIRECTION('center_axis',(0.,0.,-1.));
#1194=DIRECTION('ref_axis',(-1.,0.,0.));
#1195=DIRECTION('center_axis',(-1.,0.,0.));
#1196=DIRECTION('ref_axis',(0.,-0.707106781186546,-0.707106781186549));
#1197=DIRECTION('',(-1.,0.,0.));
#1198=DIRECTION('',(1.,0.,0.));
#1199=DIRECTION('',(1.,0.,0.));
#1200=DIRECTION('',(1.,0.,0.));
#1201=DIRECTION('center_axis',(-0.707106781186548,-0.707106781186548,0.));
#1202=DIRECTION('ref_axis',(0.707106781186547,-0.707106781186547,0.));
#1203=DIRECTION('center_axis',(-0.408248290463861,-0.408248290463861,-0.816496580927728));
#1204=DIRECTION('ref_axis',(-0.577350269189626,-0.577350269189626,0.577350269189625));
#1205=DIRECTION('center_axis',(0.,-1.,0.));
#1206=DIRECTION('ref_axis',(-1.,0.,0.));
#1207=DIRECTION('center_axis',(0.,0.,1.));
#1208=DIRECTION('ref_axis',(0.,-1.,0.));
#1209=DIRECTION('center_axis',(-1.,0.,0.));
#1210=DIRECTION('ref_axis',(0.,0.,1.));
#1211=DIRECTION('center_axis',(0.,0.,1.));
#1212=DIRECTION('ref_axis',(-0.707106781186554,-0.707106781186541,0.));
#1213=DIRECTION('',(0.,0.,-1.));
#1214=DIRECTION('',(0.,0.,1.));
#1215=DIRECTION('center_axis',(1.,0.,0.));
#1216=DIRECTION('ref_axis',(0.,-0.707106781186546,0.707106781186549));
#1217=DIRECTION('',(-1.,0.,0.));
#1218=DIRECTION('',(-1.,0.,0.));
#1219=DIRECTION('',(-1.,0.,0.));
#1220=DIRECTION('',(1.,0.,0.));
#1221=DIRECTION('center_axis',(1.,0.,0.));
#1222=DIRECTION('ref_axis',(0.,0.,-1.));
#1223=DIRECTION('center_axis',(0.,0.695071640368224,0.718940480676827));
#1224=DIRECTION('ref_axis',(-1.,0.,0.));
#1225=DIRECTION('center_axis',(-1.,0.,0.));
#1226=DIRECTION('ref_axis',(0.,0.390466618055735,-0.92061708662403));
#1227=DIRECTION('center_axis',(0.,-1.,0.));
#1228=DIRECTION('ref_axis',(0.,0.,1.));
#1229=DIRECTION('center_axis',(1.,-2.29669642271592E-15,0.));
#1230=DIRECTION('ref_axis',(0.,0.,-1.));
#1231=DIRECTION('center_axis',(1.,0.,0.));
#1232=DIRECTION('ref_axis',(0.,1.,0.));
#1233=DIRECTION('center_axis',(0.,0.,1.));
#1234=DIRECTION('ref_axis',(-1.,0.,0.));
#1235=DIRECTION('center_axis',(-1.,0.,0.));
#1236=DIRECTION('ref_axis',(0.,0.927076178282244,-0.374872991373864));
#1237=DIRECTION('center_axis',(-1.59636854996499E-15,-0.695071640368224,
-0.718940480676827));
#1238=DIRECTION('ref_axis',(0.,-0.718940480676826,0.695071640368224));
#1239=DIRECTION('center_axis',(0.,0.,-1.));
#1240=DIRECTION('ref_axis',(-0.707106781186535,-0.70710678118656,0.));
#1241=DIRECTION('',(0.,0.,-1.));
#1242=DIRECTION('',(0.,0.,1.));
#1243=DIRECTION('center_axis',(-0.707106781186548,0.,-0.707106781186548));
#1244=DIRECTION('ref_axis',(-0.707106781186548,0.,0.707106781186548));
#1245=DIRECTION('center_axis',(0.,-0.695071640368227,-0.718940480676824));
#1246=DIRECTION('ref_axis',(-0.707106781186535,-0.508367689156108,0.491489870314838));
#1247=DIRECTION('',(0.,-0.695071640368227,-0.718940480676824));
#1248=DIRECTION('center_axis',(1.,0.,0.));
#1249=DIRECTION('ref_axis',(0.,0.927076178282245,-0.374872991373862));
#1250=DIRECTION('',(-1.,0.,0.));
#1251=DIRECTION('center_axis',(-1.,0.,0.));
#1252=DIRECTION('ref_axis',(0.,-0.707106781186554,0.707106781186541));
#1253=DIRECTION('',(1.,0.,0.));
#1254=DIRECTION('center_axis',(-1.,0.,0.));
#1255=DIRECTION('ref_axis',(0.,-0.707106781186554,0.707106781186541));
#1256=DIRECTION('',(-1.,0.,0.));
#1257=DIRECTION('center_axis',(0.,1.,0.));
#1258=DIRECTION('ref_axis',(-0.707106781186553,0.,0.707106781186542));
#1259=DIRECTION('',(0.,-1.,0.));
#1260=DIRECTION('',(0.,1.,0.));
#1261=DIRECTION('',(0.,1.,0.));
#1262=DIRECTION('center_axis',(0.,1.,0.));
#1263=DIRECTION('ref_axis',(-0.70710678118654,0.,-0.707106781186555));
#1264=DIRECTION('',(0.,-1.,0.));
#1265=DIRECTION('',(0.,-1.,0.));
#1266=DIRECTION('',(0.,1.,0.));
#1267=DIRECTION('center_axis',(0.,-0.707106781186549,-0.707106781186546));
#1268=DIRECTION('ref_axis',(-4.90653893338681E-17,0.707106781186546,-0.707106781186549));
#1269=DIRECTION('center_axis',(0.,-1.,0.));
#1270=DIRECTION('ref_axis',(0.70710678118654,0.,-0.707106781186555));
#1271=DIRECTION('',(0.,1.,0.));
#1272=DIRECTION('',(0.,1.,0.));
#1273=DIRECTION('center_axis',(0.,-0.707106781186549,-0.707106781186546));
#1274=DIRECTION('ref_axis',(4.90653893338681E-17,0.707106781186546,-0.707106781186549));
#1275=DIRECTION('',(0.,-1.,0.));
#1276=DIRECTION('center_axis',(-1.,0.,0.));
#1277=DIRECTION('ref_axis',(0.,0.382683432365089,-0.923879532511287));
#1278=DIRECTION('',(1.,0.,0.));
#1279=DIRECTION('center_axis',(0.,0.,1.));
#1280=DIRECTION('ref_axis',(-1.,0.,0.));
#1281=DIRECTION('',(0.,-1.,0.));
#1282=DIRECTION('',(1.,0.,0.));
#1283=DIRECTION('',(0.,-1.,0.));
#1284=DIRECTION('center_axis',(0.,-1.,0.));
#1285=DIRECTION('ref_axis',(0.,0.,-1.));
#1286=DIRECTION('',(0.,0.,1.));
#1287=DIRECTION('',(0.,0.,-1.));
#1288=DIRECTION('',(-1.,0.,0.));
#1289=DIRECTION('',(0.,0.,1.));
#1290=DIRECTION('center_axis',(0.,0.,1.));
#1291=DIRECTION('ref_axis',(1.,0.,0.));
#1292=DIRECTION('center_axis',(0.,0.,-1.));
#1293=DIRECTION('ref_axis',(1.,0.,0.));
#1294=DIRECTION('center_axis',(0.,0.,1.));
#1295=DIRECTION('ref_axis',(1.,0.,0.));
#1296=DIRECTION('center_axis',(0.,0.,-1.));
#1297=DIRECTION('ref_axis',(1.,0.,0.));
#1298=DIRECTION('center_axis',(1.,0.,0.));
#1299=DIRECTION('ref_axis',(0.,1.,0.));
#1300=DIRECTION('',(0.,0.,1.));
#1301=DIRECTION('',(0.,0.,-1.));
#1302=DIRECTION('center_axis',(0.,0.,1.));
#1303=DIRECTION('ref_axis',(1.,0.,0.));
#1304=DIRECTION('center_axis',(0.,0.,-1.));
#1305=DIRECTION('ref_axis',(1.,0.,0.));
#1306=DIRECTION('center_axis',(0.,0.,1.));
#1307=DIRECTION('ref_axis',(1.,0.,0.));
#1308=DIRECTION('center_axis',(0.,0.,-1.));
#1309=DIRECTION('ref_axis',(1.,0.,0.));
#1310=DIRECTION('center_axis',(0.,0.,1.));
#1311=DIRECTION('ref_axis',(1.,0.,0.));
#1312=DIRECTION('',(0.,-1.,0.));
#1313=DIRECTION('center_axis',(0.,0.,-1.));
#1314=DIRECTION('ref_axis',(1.,0.,0.));
#1315=DIRECTION('center_axis',(0.,0.,-1.));
#1316=DIRECTION('ref_axis',(1.,0.,0.));
#1317=DIRECTION('center_axis',(0.,0.,-1.));
#1318=DIRECTION('ref_axis',(1.,0.,0.));
#1319=DIRECTION('',(0.,1.,0.));
#1320=DIRECTION('center_axis',(0.,0.,-1.));
#1321=DIRECTION('ref_axis',(1.,0.,0.));
#1322=DIRECTION('center_axis',(0.,0.,-1.));
#1323=DIRECTION('ref_axis',(1.,0.,0.));
#1324=DIRECTION('center_axis',(0.,0.,-1.));
#1325=DIRECTION('ref_axis',(1.,0.,0.));
#1326=DIRECTION('center_axis',(0.,0.,-1.));
#1327=DIRECTION('ref_axis',(0.707106781186548,0.707106781186548,0.));
#1328=DIRECTION('',(0.,0.,1.));
#1329=DIRECTION('center_axis',(0.707106781186548,0.,-0.707106781186548));
#1330=DIRECTION('ref_axis',(0.707106781186548,0.,0.707106781186548));
#1331=DIRECTION('center_axis',(0.,0.,1.));
#1332=DIRECTION('ref_axis',(-0.707106781186535,0.70710678118656,0.));
#1333=DIRECTION('',(0.,0.,1.));
#1334=DIRECTION('center_axis',(-0.707106781186548,0.,-0.707106781186548));
#1335=DIRECTION('ref_axis',(0.707106781186548,0.,-0.707106781186548));
#1336=DIRECTION('',(0.,0.,-1.));
#1337=DIRECTION('center_axis',(1.,0.,0.));
#1338=DIRECTION('ref_axis',(0.,0.707106781186554,0.707106781186541));
#1339=DIRECTION('',(-1.,0.,0.));
#1340=DIRECTION('center_axis',(-1.,0.,0.));
#1341=DIRECTION('ref_axis',(0.,-1.,0.));
#1342=DIRECTION('center_axis',(-1.,0.,0.));
#1343=DIRECTION('ref_axis',(0.,0.707106781186548,-0.707106781186547));
#1344=DIRECTION('',(1.,0.,0.));
#1345=DIRECTION('',(-1.,0.,0.));
#1346=DIRECTION('center_axis',(0.,1.,0.));
#1347=DIRECTION('ref_axis',(0.,0.,1.));
#1348=DIRECTION('center_axis',(1.,0.,0.));
#1349=DIRECTION('ref_axis',(0.,0.,-1.));
#1350=DIRECTION('center_axis',(-1.,0.,0.));
#1351=DIRECTION('ref_axis',(0.,0.,1.));
#1352=DIRECTION('center_axis',(0.,0.,1.));
#1353=DIRECTION('ref_axis',(1.,0.,0.));
#1354=DIRECTION('',(0.,0.,-1.));
#1355=DIRECTION('center_axis',(0.,0.,-1.));
#1356=DIRECTION('ref_axis',(1.,0.,0.));
#1357=DIRECTION('center_axis',(0.,0.,1.));
#1358=DIRECTION('ref_axis',(1.,0.,0.));
#1359=DIRECTION('',(0.,0.,-1.));
#1360=DIRECTION('center_axis',(0.,0.,-1.));
#1361=DIRECTION('ref_axis',(1.,0.,0.));
#1362=DIRECTION('center_axis',(0.,0.,-1.));
#1363=DIRECTION('ref_axis',(1.,0.,0.));
#1364=DIRECTION('center_axis',(0.,0.,1.));
#1365=DIRECTION('ref_axis',(1.,0.,0.));
#1366=DIRECTION('',(0.,0.,-1.));
#1367=DIRECTION('center_axis',(0.,0.,-1.));
#1368=DIRECTION('ref_axis',(1.,0.,0.));
#1369=DIRECTION('center_axis',(0.,0.,1.));
#1370=DIRECTION('ref_axis',(1.,0.,0.));
#1371=DIRECTION('',(0.,0.,-1.));
#1372=DIRECTION('center_axis',(0.,0.,-1.));
#1373=DIRECTION('ref_axis',(1.,0.,0.));
#1374=DIRECTION('center_axis',(0.,0.,1.));
#1375=DIRECTION('ref_axis',(1.,0.,0.));
#1376=DIRECTION('',(0.,0.,-1.));
#1377=DIRECTION('center_axis',(0.,0.,-1.));
#1378=DIRECTION('ref_axis',(1.,0.,0.));
#1379=DIRECTION('center_axis',(0.,-1.,0.));
#1380=DIRECTION('ref_axis',(1.,0.,0.));
#1381=DIRECTION('center_axis',(0.,0.,1.));
#1382=DIRECTION('ref_axis',(1.,0.,0.));
#1383=CARTESIAN_POINT('',(0.,0.,0.));
#1384=CARTESIAN_POINT('Origin',(-102.,89.8256430226299,7.92004780499899));
#1385=CARTESIAN_POINT('',(-103.,86.9055952176309,5.));
#1386=CARTESIAN_POINT('',(-102.,86.1984884364444,5.70710678118655));
#1387=CARTESIAN_POINT('Origin',(-102.,86.9055952176309,5.));
#1388=CARTESIAN_POINT('',(-102.,99.2928932188134,18.8015115635556));
#1389=CARTESIAN_POINT('',(-102.,89.1185362414434,8.62715458618554));
#1390=CARTESIAN_POINT('',(-103.,100.,18.0944047823691));
#1391=CARTESIAN_POINT('Origin',(-102.,100.,18.0944047823691));
#1392=CARTESIAN_POINT('',(-103.,89.8256430226299,7.92004780499899));
#1393=CARTESIAN_POINT('Origin',(-102.,89.8256430226299,7.92004780499899));
#1394=CARTESIAN_POINT('',(-102.810465452374,100.,18.9228319071153));
#1395=CARTESIAN_POINT('Origin',(-102.,100.,18.0944047823691));
#1396=CARTESIAN_POINT('',(-102.,99.7071067811866,19.2157251259287));
#1397=CARTESIAN_POINT('',(-102.,89.1185362414434,8.62715458618554));
#1398=CARTESIAN_POINT('Origin',(-102.,100.414213562373,18.5086183447422));
#1399=CARTESIAN_POINT('Origin',(-102.,99.,19.9228319071153));
#1400=CARTESIAN_POINT('',(-102.,100.,19.9228319071153));
#1401=CARTESIAN_POINT('Ctrl Pts',(-102.810465452374,100.,18.9228319071153));
#1402=CARTESIAN_POINT('Ctrl Pts',(-102.80360012555,100.,18.9362648574477));
#1403=CARTESIAN_POINT('Ctrl Pts',(-102.796648250717,100.,18.9495048777642));
#1404=CARTESIAN_POINT('Ctrl Pts',(-102.603912716189,100.,19.3076086349113));
#1405=CARTESIAN_POINT('Ctrl Pts',(-102.277098222081,100.,19.6457336850343));
#1406=CARTESIAN_POINT('Ctrl Pts',(-102.,100.,19.9228319071153));
#1407=CARTESIAN_POINT('Origin',(-102.,99.,19.9228319071153));
#1408=CARTESIAN_POINT('Origin',(-102.,89.8256430226299,7.92004780499899));
#1409=CARTESIAN_POINT('',(-102.810465452374,86.0771680928847,5.));
#1410=CARTESIAN_POINT('Origin',(-102.,86.9055952176309,5.));
#1411=CARTESIAN_POINT('',(-102.,85.7842748740713,5.29289321881345));
#1412=CARTESIAN_POINT('Origin',(-102.,86.4913816552578,4.5857864376269));
#1413=CARTESIAN_POINT('',(-102.,89.1185362414434,8.62715458618554));
#1414=CARTESIAN_POINT('Origin',(-102.,85.0771680928847,6.));
#1415=CARTESIAN_POINT('',(-102.,85.0771680928847,5.));
#1416=CARTESIAN_POINT('Ctrl Pts',(-102.,85.0771680928847,5.));
#1417=CARTESIAN_POINT('Ctrl Pts',(-102.277098222081,85.3542663149657,5.));
#1418=CARTESIAN_POINT('Ctrl Pts',(-102.603912716189,85.6923913650887,5.));
#1419=CARTESIAN_POINT('Ctrl Pts',(-102.796648250717,86.0504951222358,5.));
#1420=CARTESIAN_POINT('Ctrl Pts',(-102.80360012555,86.0637351425524,5.));
#1421=CARTESIAN_POINT('Ctrl Pts',(-102.810465452374,86.0771680928847,5.));
#1422=CARTESIAN_POINT('Origin',(-102.,85.0771680928847,6.));
#1423=CARTESIAN_POINT('Origin',(-112.5,99.,19.9228319071153));
#1424=CARTESIAN_POINT('',(-101.,99.7071067811866,19.2157251259287));
#1425=CARTESIAN_POINT('',(-112.5,99.7071067811866,19.2157251259287));
#1426=CARTESIAN_POINT('',(-101.,100.,19.9228319071153));
#1427=CARTESIAN_POINT('Origin',(-101.,99.,19.9228319071153));
#1428=CARTESIAN_POINT('',(-112.5,100.,19.9228319071153));
#1429=CARTESIAN_POINT('Origin',(-100.,85.4913816552578,5.));
#1430=CARTESIAN_POINT('',(-101.,85.7842748740713,5.29289321881345));
#1431=CARTESIAN_POINT('',(-112.5,85.7842748740713,5.29289321881345));
#1432=CARTESIAN_POINT('',(-101.,75.3685362414434,-5.12284541381445));
#1433=CARTESIAN_POINT('Ctrl Pts',(-100.,99.,17.0944047823691));
#1434=CARTESIAN_POINT('Ctrl Pts',(-100.,99.1586743906485,17.5704279543146));
#1435=CARTESIAN_POINT('Ctrl Pts',(-100.131194904361,99.4221371042642,18.3608160951616));
#1436=CARTESIAN_POINT('Ctrl Pts',(-100.55167352137,99.6587141057755,19.0705470996954));
#1437=CARTESIAN_POINT('Ctrl Pts',(-100.850400349829,99.7071067811866,19.2157251259287));
#1438=CARTESIAN_POINT('Ctrl Pts',(-101.,99.7071067811866,19.2157251259287));
#1439=CARTESIAN_POINT('Ctrl Pts',(-100.,99.2991993003419,17.0944047823691));
#1440=CARTESIAN_POINT('Ctrl Pts',(-99.9510735857337,99.4275020280773,17.5699208558834));
#1441=CARTESIAN_POINT('Ctrl Pts',(-100.033840421219,99.621210755462,18.3984500630654));
#1442=CARTESIAN_POINT('Ctrl Pts',(-100.484161162276,99.7808636839985,19.1633832737595));
#1443=CARTESIAN_POINT('Ctrl Pts',(-100.828045657449,99.8128897082856,19.3215080530277));
#1444=CARTESIAN_POINT('Ctrl Pts',(-101.,99.8128897082856,19.3215080530277));
#1445=CARTESIAN_POINT('Ctrl Pts',(-99.7486911913184,99.8169844004884,17.0944047823691));
#1446=CARTESIAN_POINT('Ctrl Pts',(-99.6732481181577,99.8556311970152,17.6104230334911));
#1447=CARTESIAN_POINT('Ctrl Pts',(-99.7663021055055,99.9077922851806,18.5253344828781));
#1448=CARTESIAN_POINT('Ctrl Pts',(-100.341269714874,99.9479583880196,19.3732383886929));
#1449=CARTESIAN_POINT('Ctrl Pts',(-100.77992804582,99.9555835535992,19.5487954296667));
#1450=CARTESIAN_POINT('Ctrl Pts',(-101.,99.9555835535992,19.5487954296667));
#1451=CARTESIAN_POINT('Ctrl Pts',(-99.2243994752564,100.,17.094404782369));
#1452=CARTESIAN_POINT('Ctrl Pts',(-99.201928107608,99.9995908484768,17.6935687304234));
#1453=CARTESIAN_POINT('Ctrl Pts',(-99.4135370625538,99.9999317359865,18.7057161593079));
#1454=CARTESIAN_POINT('Ctrl Pts',(-100.174777115722,99.9997811518097,19.6224726168018));
#1455=CARTESIAN_POINT('Ctrl Pts',(-100.724534385142,100.,19.8106321694871));
#1456=CARTESIAN_POINT('Ctrl Pts',(-101.,100.,19.8106321694871));
#1457=CARTESIAN_POINT('Ctrl Pts',(-99.,100.,17.094404782369));
#1458=CARTESIAN_POINT('Ctrl Pts',(-99.,100.,17.7291023449631));
#1459=CARTESIAN_POINT('Ctrl Pts',(-99.2623898087223,100.,18.7829531994258));
#1460=CARTESIAN_POINT('Ctrl Pts',(-100.10334704274,100.,19.7292612054708));
#1461=CARTESIAN_POINT('Ctrl Pts',(-100.700800699658,100.,19.9228319071153));
#1462=CARTESIAN_POINT('Ctrl Pts',(-101.,100.,19.9228319071153));
#1463=CARTESIAN_POINT('',(-100.,99.0000000000001,17.0944047823691));
#1464=CARTESIAN_POINT('',(-100.,100.,19.5438945251522));
#1465=CARTESIAN_POINT('Ctrl Pts',(-100.,99.,17.0944047823691));
#1466=CARTESIAN_POINT('Ctrl Pts',(-100.,99.0026239536502,17.098949603408));
#1467=CARTESIAN_POINT('Ctrl Pts',(-100.,99.0052477135009,17.1034940887674));
#1468=CARTESIAN_POINT('Ctrl Pts',(-100.,99.2818087092385,17.5825216791457));
#1469=CARTESIAN_POINT('Ctrl Pts',(-100.,99.5465204255313,18.0420443340486));
#1470=CARTESIAN_POINT('Ctrl Pts',(-100.,99.8195053310768,18.6699351626747));
#1471=CARTESIAN_POINT('Ctrl Pts',(-100.,99.8984657367372,18.8850979622683));
#1472=CARTESIAN_POINT('Ctrl Pts',(-100.,99.980092294723,19.2466443062721));
#1473=CARTESIAN_POINT('Ctrl Pts',(-100.,100.,19.395076552941));
#1474=CARTESIAN_POINT('Ctrl Pts',(-100.,100.,19.5438945251522));
#1475=CARTESIAN_POINT('Origin',(-101.,100.,17.0944047823691));
#1476=CARTESIAN_POINT('Origin',(-101.,99.,17.0944047823691));
#1477=CARTESIAN_POINT('Origin',(-101.,76.0756430226299,-5.829952195001));
#1478=CARTESIAN_POINT('',(-100.,86.4913816552578,4.58578643762691));
#1479=CARTESIAN_POINT('Origin',(-101.,86.4913816552578,4.5857864376269));
#1480=CARTESIAN_POINT('',(-100.,76.0756430226299,-5.829952195001));
#1481=CARTESIAN_POINT('Origin',(-148.,97.0934419840431,15.5549285831492));
#1482=CARTESIAN_POINT('',(-147.,100.,18.5612981366532));
#1483=CARTESIAN_POINT('',(-148.,99.2810595193232,19.2563697770214));
#1484=CARTESIAN_POINT('Origin',(-148.,100.,18.5612981366532));
#1485=CARTESIAN_POINT('',(-148.,86.1699967892176,5.69507164036822));
#1486=CARTESIAN_POINT('',(-148.,96.3745015033663,16.2500002235174));
#1487=CARTESIAN_POINT('',(-147.,86.8889372698944,5.));
#1488=CARTESIAN_POINT('Origin',(-148.,86.8889372698944,5.));
#1489=CARTESIAN_POINT('',(-147.,97.0934419840431,15.5549285831492));
#1490=CARTESIAN_POINT('Origin',(-148.,97.0934419840431,15.5549285831492));
#1491=CARTESIAN_POINT('',(-147.172387164125,86.10820590895,5.));
#1492=CARTESIAN_POINT('Origin',(-148.,86.8889372698944,5.));
#1493=CARTESIAN_POINT('',(-148.,85.7928062742742,5.30492835963178));
#1494=CARTESIAN_POINT('',(-148.,96.3745015033663,16.2500002235174));
#1495=CARTESIAN_POINT('Origin',(-148.,86.511746754951,4.60985671926355));
#1496=CARTESIAN_POINT('Origin',(-148.,85.0738657935974,6.));
#1497=CARTESIAN_POINT('',(-148.,85.0738657935974,5.));
#1498=CARTESIAN_POINT('Ctrl Pts',(-147.172387164125,86.10820590895,5.));
#1499=CARTESIAN_POINT('Ctrl Pts',(-147.184736658822,86.0828786083083,5.));
#1500=CARTESIAN_POINT('Ctrl Pts',(-147.197446287829,86.0581652050748,5.));
#1501=CARTESIAN_POINT('Ctrl Pts',(-147.396087283811,85.6890890658014,5.));
#1502=CARTESIAN_POINT('Ctrl Pts',(-147.722901777919,85.3509640156784,5.));
#1503=CARTESIAN_POINT('Ctrl Pts',(-148.,85.0738657935974,5.));
#1504=CARTESIAN_POINT('Origin',(-148.,85.0738657935974,6.));
#1505=CARTESIAN_POINT('Origin',(-148.,97.0934419840431,15.5549285831492));
#1506=CARTESIAN_POINT('',(-147.206879132109,100.,19.4375592842089));
#1507=CARTESIAN_POINT('Origin',(-148.,100.,18.5612981366532));
#1508=CARTESIAN_POINT('',(-148.,99.7189404806768,19.7092876210986));
#1509=CARTESIAN_POINT('Origin',(-148.,100.437880961354,19.0142159807304));
#1510=CARTESIAN_POINT('',(-148.,96.3745015033663,16.2500002235174));
#1511=CARTESIAN_POINT('Origin',(-148.,99.,20.4043592614669));
#1512=CARTESIAN_POINT('',(-148.,100.,20.4043592614669));
#1513=CARTESIAN_POINT('Ctrl Pts',(-148.,100.,20.4043592614669));
#1514=CARTESIAN_POINT('Ctrl Pts',(-147.722901777919,100.,20.1272610393859));
#1515=CARTESIAN_POINT('Ctrl Pts',(-147.396087283811,100.,19.7891359892629));
#1516=CARTESIAN_POINT('Ctrl Pts',(-147.20920182731,100.,19.4419017115109));
#1517=CARTESIAN_POINT('Ctrl Pts',(-147.208039559913,100.,19.4397333105834));
#1518=CARTESIAN_POINT('Ctrl Pts',(-147.206879132109,100.,19.4375592842089));
#1519=CARTESIAN_POINT('Origin',(-148.,99.,20.4043592614669));
#1520=CARTESIAN_POINT('Origin',(-137.5,85.0738657935974,6.));
#1521=CARTESIAN_POINT('',(-149.,85.7928062742742,5.30492835963178));
#1522=CARTESIAN_POINT('',(-137.5,85.7928062742742,5.30492835963178));
#1523=CARTESIAN_POINT('',(-149.,85.0738657935974,5.));
#1524=CARTESIAN_POINT('Origin',(-149.,85.0738657935974,6.));
#1525=CARTESIAN_POINT('',(-137.5,85.0738657935974,5.));
#1526=CARTESIAN_POINT('Origin',(-150.,100.000001490116,20.0000002980232));
#1527=CARTESIAN_POINT('',(-149.,99.7189404806768,19.7092876210986));
#1528=CARTESIAN_POINT('',(-137.5,99.7189404806768,19.7092876210986));
#1529=CARTESIAN_POINT('',(-149.,95.0028496633853,14.8312457011278));
#1530=CARTESIAN_POINT('Origin',(-101.,85.0771680928847,6.));
#1531=CARTESIAN_POINT('',(-101.,85.0771680928847,5.));
#1532=CARTESIAN_POINT('Origin',(-101.,85.0771680928847,6.));
#1533=CARTESIAN_POINT('',(-100.,85.0771680928847,4.));
#1534=CARTESIAN_POINT('Origin',(-101.,85.0771680928847,4.));
#1535=CARTESIAN_POINT('Origin',(-100.,85.0771680928847,6.00000000000002));
#1536=CARTESIAN_POINT('Origin',(-101.,62.5,4.));
#1537=CARTESIAN_POINT('',(-100.,50.,4.));
#1538=CARTESIAN_POINT('',(-100.,62.5,4.));
#1539=CARTESIAN_POINT('',(-101.,53.0000008046627,5.));
#1540=CARTESIAN_POINT('',(-101.,62.5,5.));
#1541=CARTESIAN_POINT('',(-101.,51.,5.));
#1542=CARTESIAN_POINT('',(-101.,62.5,5.));
#1543=CARTESIAN_POINT('Origin',(-101.,51.,4.));
#1544=CARTESIAN_POINT('Origin',(-149.,51.,1.));
#1545=CARTESIAN_POINT('',(-149.,51.,0.));
#1546=CARTESIAN_POINT('',(-150.,51.,1.));
#1547=CARTESIAN_POINT('Origin',(-149.,51.,1.));
#1548=CARTESIAN_POINT('',(-149.,50.,1.));
#1549=CARTESIAN_POINT('Origin',(-149.,51.,1.));
#1550=CARTESIAN_POINT('Origin',(-149.,51.,1.));
#1551=CARTESIAN_POINT('Origin',(-137.5,51.,1.));
#1552=CARTESIAN_POINT('',(-100.,50.,1.));
#1553=CARTESIAN_POINT('',(-137.5,50.,1.));
#1554=CARTESIAN_POINT('',(-147.000002190471,51.,0.));
#1555=CARTESIAN_POINT('',(-137.5,51.,0.));
#1556=CARTESIAN_POINT('',(-103.00000153482,51.,0.));
#1557=CARTESIAN_POINT('',(-137.5,51.,0.));
#1558=CARTESIAN_POINT('',(-101.,51.,0.));
#1559=CARTESIAN_POINT('',(-137.5,51.,0.));
#1560=CARTESIAN_POINT('Origin',(-101.,51.,1.));
#1561=CARTESIAN_POINT('Origin',(-149.,51.,4.));
#1562=CARTESIAN_POINT('',(-150.,51.,4.));
#1563=CARTESIAN_POINT('',(-149.,51.,5.));
#1564=CARTESIAN_POINT('Origin',(-149.,51.,4.));
#1565=CARTESIAN_POINT('',(-149.,50.,4.));
#1566=CARTESIAN_POINT('Origin',(-149.,51.,4.));
#1567=CARTESIAN_POINT('Origin',(-149.,51.,4.));
#1568=CARTESIAN_POINT('Origin',(-149.,51.,0.));
#1569=CARTESIAN_POINT('',(-150.,51.,0.));
#1570=CARTESIAN_POINT('',(-149.,50.,0.));
#1571=CARTESIAN_POINT('Origin',(-137.5,51.,4.));
#1572=CARTESIAN_POINT('',(-103.00000153482,51.,5.));
#1573=CARTESIAN_POINT('',(-137.5,51.,5.));
#1574=CARTESIAN_POINT('',(-147.000002190471,51.,5.));
#1575=CARTESIAN_POINT('',(-137.5,51.,5.));
#1576=CARTESIAN_POINT('',(-137.5,51.,5.));
#1577=CARTESIAN_POINT('',(-137.5,50.,4.));
#1578=CARTESIAN_POINT('Origin',(-149.,85.0738657935974,5.99999999999999));
#1579=CARTESIAN_POINT('',(-150.,86.5117467549511,4.60985671926355));
#1580=CARTESIAN_POINT('Origin',(-149.,86.5117467549511,4.60985671926355));
#1581=CARTESIAN_POINT('',(-150.,85.0738657935974,4.));
#1582=CARTESIAN_POINT('Origin',(-150.,85.0738657935974,6.00000000000001));
#1583=CARTESIAN_POINT('Origin',(-149.,85.0738657935974,4.));
#1584=CARTESIAN_POINT('Origin',(-149.,99.,20.4043592614669));
#1585=CARTESIAN_POINT('',(-149.,100.,20.4043592614669));
#1586=CARTESIAN_POINT('Origin',(-149.,99.,20.4043592614669));
#1587=CARTESIAN_POINT('',(-150.,101.,20.4043592614669));
#1588=CARTESIAN_POINT('Origin',(-149.,101.,20.4043592614669));
#1589=CARTESIAN_POINT('',(-150.,100.437880961354,19.0142159807304));
#1590=CARTESIAN_POINT('Origin',(-150.,99.,20.4043592614669));
#1591=CARTESIAN_POINT('Origin',(-149.,100.437880961354,19.0142159807304));
#1592=CARTESIAN_POINT('Origin',(-149.,101.,15.));
#1593=CARTESIAN_POINT('',(-150.,101.,55.));
#1594=CARTESIAN_POINT('',(-150.,101.,15.));
#1595=CARTESIAN_POINT('',(-149.,100.,54.));
#1596=CARTESIAN_POINT('',(-149.,100.,15.));
#1597=CARTESIAN_POINT('Origin',(-149.,101.,54.));
#1598=CARTESIAN_POINT('Origin',(-149.,95.7217901440621,14.1361740607595));
#1599=CARTESIAN_POINT('',(-150.,95.7217901440621,14.1361740607595));
#1600=CARTESIAN_POINT('Origin',(-137.5,99.,20.4043592614669));
#1601=CARTESIAN_POINT('',(-137.5,100.,20.4043592614669));
#1602=CARTESIAN_POINT('Origin',(-112.5,101.,54.));
#1603=CARTESIAN_POINT('',(-100.,100.,54.));
#1604=CARTESIAN_POINT('',(-112.5,100.,54.));
#1605=CARTESIAN_POINT('',(-100.,101.,55.));
#1606=CARTESIAN_POINT('Origin',(-100.,101.,54.));
#1607=CARTESIAN_POINT('',(-112.5,101.,55.));
#1608=CARTESIAN_POINT('Origin',(-149.,87.5,4.));
#1609=CARTESIAN_POINT('',(-150.,87.5,4.));
#1610=CARTESIAN_POINT('',(-149.000002220273,53.0000008046627,5.));
#1611=CARTESIAN_POINT('',(-149.,87.5,5.));
#1612=CARTESIAN_POINT('',(-149.,87.5,5.));
#1613=CARTESIAN_POINT('Origin',(-149.,87.5,1.));
#1614=CARTESIAN_POINT('',(-149.992613406166,104.121320381991,0.878679694305602));
#1615=CARTESIAN_POINT('',(-149.,102.,0.));
#1616=CARTESIAN_POINT('Ctrl Pts',(-149.992613410863,104.121320381421,0.878679694301415));
#1617=CARTESIAN_POINT('Ctrl Pts',(-149.978271187349,104.003975780188,0.761335088879658));
#1618=CARTESIAN_POINT('Ctrl Pts',(-149.94469613363,103.878933965478,0.655688377582931));
#1619=CARTESIAN_POINT('Ctrl Pts',(-149.83735868086,103.571983305314,0.435739427117394));
#1620=CARTESIAN_POINT('Ctrl Pts',(-149.753700246381,103.385118808037,0.330532801098099));
#1621=CARTESIAN_POINT('Ctrl Pts',(-149.465539067954,102.803658125889,0.0789544201530283));
#1622=CARTESIAN_POINT('Ctrl Pts',(-149.224134025224,102.388211519392,1.38777878078145E-16));
#1623=CARTESIAN_POINT('Ctrl Pts',(-149.,102.,1.38777878078145E-16));
#1624=CARTESIAN_POINT('',(-149.000002220273,53.0000008046627,0.));
#1625=CARTESIAN_POINT('',(-149.,87.5,0.));
#1626=CARTESIAN_POINT('',(-149.,87.5,0.));
#1627=CARTESIAN_POINT('',(-150.,104.,1.));
#1628=CARTESIAN_POINT('',(-150.,87.5,1.));
#1629=CARTESIAN_POINT('Origin',(-149.,104.,1.));
#1630=CARTESIAN_POINT('Origin',(-101.,62.5,1.));
#1631=CARTESIAN_POINT('',(-101.,53.0000008046627,0.));
#1632=CARTESIAN_POINT('',(-101.,62.5,0.));
#1633=CARTESIAN_POINT('',(-101.,102.,0.));
#1634=CARTESIAN_POINT('',(-101.,62.5,0.));
#1635=CARTESIAN_POINT('',(-100.007386593834,104.12132038199,0.878679694305545));
#1636=CARTESIAN_POINT('Ctrl Pts',(-101.,102.,1.38777878078145E-16));
#1637=CARTESIAN_POINT('Ctrl Pts',(-100.775865974776,102.388211519392,1.38777878078145E-16));
#1638=CARTESIAN_POINT('Ctrl Pts',(-100.534460932046,102.803658125889,0.0789544201530283));
#1639=CARTESIAN_POINT('Ctrl Pts',(-100.246299753619,103.385118808037,0.330532801098099));
#1640=CARTESIAN_POINT('Ctrl Pts',(-100.16264131914,103.571983305314,0.435739427117394));
#1641=CARTESIAN_POINT('Ctrl Pts',(-100.05530386637,103.878933965478,0.65568837758291));
#1642=CARTESIAN_POINT('Ctrl Pts',(-100.021728812651,104.003975780188,0.761335088879619));
#1643=CARTESIAN_POINT('Ctrl Pts',(-100.007386589137,104.121320381421,0.878679694301353));
#1644=CARTESIAN_POINT('',(-100.,104.,1.));
#1645=CARTESIAN_POINT('Origin',(-101.,104.,1.));
#1646=CARTESIAN_POINT('',(-100.,62.5,1.));
#1647=CARTESIAN_POINT('Origin',(-112.5,85.0771680928847,6.));
#1648=CARTESIAN_POINT('',(-112.5,85.0771680928847,5.));
#1649=CARTESIAN_POINT('Origin',(-100.,105.,55.));
#1650=CARTESIAN_POINT('',(-100.,104.,55.));
#1651=CARTESIAN_POINT('',(-100.,105.,55.));
#1652=CARTESIAN_POINT('',(-150.,104.,55.));
#1653=CARTESIAN_POINT('',(-100.,104.,55.));
#1654=CARTESIAN_POINT('',(-150.,105.,55.));
#1655=CARTESIAN_POINT('Origin',(-125.,100.,30.));
#1656=CARTESIAN_POINT('',(-100.,100.,55.));
#1657=CARTESIAN_POINT('',(-147.,100.,5.));
#1658=CARTESIAN_POINT('',(-147.,100.,21.2500000745058));
#1659=CARTESIAN_POINT('',(-103.,100.,5.));
#1660=CARTESIAN_POINT('',(-125.,100.,5.));
#1661=CARTESIAN_POINT('',(-103.,100.,21.1271545861855));
#1662=CARTESIAN_POINT('Origin',(-125.,75.,0.));
#1663=CARTESIAN_POINT('Origin',(-103.00000153482,53.0000008046627,0.));
#1664=CARTESIAN_POINT('Origin',(-125.,75.,0.));
#1665=CARTESIAN_POINT('Origin',(-147.000002190471,53.0000008046627,0.));
#1666=CARTESIAN_POINT('Origin',(-100.,50.,0.));
#1667=CARTESIAN_POINT('',(-100.,50.,0.));
#1668=CARTESIAN_POINT('',(-100.,104.,0.));
#1669=CARTESIAN_POINT('Origin',(-125.,75.,5.));
#1670=CARTESIAN_POINT('Origin',(-147.000002190471,53.0000008046627,5.));
#1671=CARTESIAN_POINT('Origin',(-125.,75.,5.));
#1672=CARTESIAN_POINT('Origin',(-103.00000153482,53.0000008046627,5.));
#1673=CARTESIAN_POINT('Origin',(-125.,75.,5.));
#1674=CARTESIAN_POINT('',(-147.,83.8745007583083,5.));
#1675=CARTESIAN_POINT('Origin',(-147.000002190471,53.0000008046627,5.));
#1676=CARTESIAN_POINT('',(-105.000001564622,53.0000008046627,5.));
#1677=CARTESIAN_POINT('Origin',(-103.00000153482,53.0000008046627,5.));
#1678=CARTESIAN_POINT('Origin',(-103.00000153482,53.0000008046627,5.));
#1679=CARTESIAN_POINT('',(-103.,83.8728454138145,5.));
#1680=CARTESIAN_POINT('',(-135.,75.,5.));
#1681=CARTESIAN_POINT('Origin',(-125.,75.,5.));
#1682=CARTESIAN_POINT('',(-109.000001564622,94.0000014454126,5.));
#1683=CARTESIAN_POINT('Origin',(-107.00000153482,94.0000014454126,5.));
#1684=CARTESIAN_POINT('',(-145.000002220273,94.0000014454126,5.));
#1685=CARTESIAN_POINT('Origin',(-143.000002190471,94.0000014454126,5.));
#1686=CARTESIAN_POINT('Origin',(-101.,104.,0.));
#1687=CARTESIAN_POINT('',(-101.,105.,3.));
#1688=CARTESIAN_POINT('Ctrl Pts',(-100.007386598462,104.12132038199,0.878679694871196));
#1689=CARTESIAN_POINT('Ctrl Pts',(-100.021728827397,104.238664956871,0.996024274003719));
#1690=CARTESIAN_POINT('Ctrl Pts',(-100.055303876341,104.344311642847,1.12106606303351));
#1691=CARTESIAN_POINT('Ctrl Pts',(-100.16264131914,104.564260572883,1.42801669468626));
#1692=CARTESIAN_POINT('Ctrl Pts',(-100.246299753619,104.669467198902,1.61488119196297));
#1693=CARTESIAN_POINT('Ctrl Pts',(-100.534460932046,104.921045579847,2.19634187411108));
#1694=CARTESIAN_POINT('Ctrl Pts',(-100.775865974776,105.,2.61178848060776));
#1695=CARTESIAN_POINT('Ctrl Pts',(-101.,105.,3.));
#1696=CARTESIAN_POINT('',(-101.,105.,54.));
#1697=CARTESIAN_POINT('',(-101.,105.,0.));
#1698=CARTESIAN_POINT('Origin',(-101.,104.,54.));
#1699=CARTESIAN_POINT('Origin',(-149.,104.,0.));
#1700=CARTESIAN_POINT('',(-150.,104.,0.));
#1701=CARTESIAN_POINT('',(-149.,105.,54.));
#1702=CARTESIAN_POINT('Origin',(-149.,104.,54.));
#1703=CARTESIAN_POINT('',(-149.,105.,3.));
#1704=CARTESIAN_POINT('',(-149.,105.,0.));
#1705=CARTESIAN_POINT('Ctrl Pts',(-149.,105.,3.));
#1706=CARTESIAN_POINT('Ctrl Pts',(-149.224134025224,105.,2.61178848060776));
#1707=CARTESIAN_POINT('Ctrl Pts',(-149.465539067954,104.921045579847,2.19634187411105));
#1708=CARTESIAN_POINT('Ctrl Pts',(-149.753700246381,104.669467198902,1.61488119196294));
#1709=CARTESIAN_POINT('Ctrl Pts',(-149.83735868086,104.564260572883,1.42801669468625));
#1710=CARTESIAN_POINT('Ctrl Pts',(-149.944696123659,104.344311642847,1.12106606303353));
#1711=CARTESIAN_POINT('Ctrl Pts',(-149.978271172603,104.238664956871,0.996024274003766));
#1712=CARTESIAN_POINT('Ctrl Pts',(-149.992613401538,104.121320381991,0.878679694871258));
#1713=CARTESIAN_POINT('Origin',(-100.,104.,54.));
#1714=CARTESIAN_POINT('',(-100.,105.,54.));
#1715=CARTESIAN_POINT('Origin',(-150.,100.,0.));
#1716=CARTESIAN_POINT('Origin',(-112.5,102.,3.));
#1717=CARTESIAN_POINT('',(-112.5,105.,3.));
#1718=CARTESIAN_POINT('',(-112.5,102.,0.));
#1719=CARTESIAN_POINT('Origin',(-100.,105.,0.));
#1720=CARTESIAN_POINT('Origin',(-147.,92.7490015166165,12.5000001490116));
#1721=CARTESIAN_POINT('Origin',(-103.,92.7456908276289,12.2543091723711));
#1722=CARTESIAN_POINT('Origin',(-143.000002190471,94.0000014454126,0.));
#1723=CARTESIAN_POINT('',(-145.000002220273,94.0000014454126,0.));
#1724=CARTESIAN_POINT('',(-145.000002220273,94.0000014454126,0.));
#1725=CARTESIAN_POINT('Origin',(-143.000002190471,94.0000014454126,0.));
#1726=CARTESIAN_POINT('Origin',(-103.00000153482,53.0000008046627,0.));
#1727=CARTESIAN_POINT('',(-105.000001564622,53.0000008046627,0.));
#1728=CARTESIAN_POINT('',(-105.000001564622,53.0000008046627,0.));
#1729=CARTESIAN_POINT('Origin',(-103.00000153482,53.0000008046627,0.));
#1730=CARTESIAN_POINT('Origin',(-103.00000153482,53.0000008046627,0.));
#1731=CARTESIAN_POINT('Origin',(-147.000002190471,53.0000008046627,0.));
#1732=CARTESIAN_POINT('',(-149.000002220273,53.0000008046627,0.));
#1733=CARTESIAN_POINT('Origin',(-147.000002190471,53.0000008046627,0.));
#1734=CARTESIAN_POINT('Origin',(-107.00000153482,94.0000014454126,0.));
#1735=CARTESIAN_POINT('',(-109.000001564622,94.0000014454126,0.));
#1736=CARTESIAN_POINT('',(-109.000001564622,94.0000014454126,0.));
#1737=CARTESIAN_POINT('Origin',(-107.00000153482,94.0000014454126,0.));
#1738=CARTESIAN_POINT('Origin',(-125.,75.,0.));
#1739=CARTESIAN_POINT('',(-135.,75.,0.));
#1740=CARTESIAN_POINT('',(-135.,75.,0.));
#1741=CARTESIAN_POINT('Origin',(-125.,75.,0.));
#1742=CARTESIAN_POINT('Origin',(-150.,50.,0.));
#1743=CARTESIAN_POINT('Origin',(-125.,75.,0.));
#1744=UNCERTAINTY_MEASURE_WITH_UNIT(LENGTH_MEASURE(0.01),#1748,
'DISTANCE_ACCURACY_VALUE',
'Maximum model space distance between geometric entities at asserted c
onnectivities');
#1745=UNCERTAINTY_MEASURE_WITH_UNIT(LENGTH_MEASURE(0.01),#1748,
'DISTANCE_ACCURACY_VALUE',
'Maximum model space distance between geometric entities at asserted c
onnectivities');
#1746=(
GEOMETRIC_REPRESENTATION_CONTEXT(3)
GLOBAL_UNCERTAINTY_ASSIGNED_CONTEXT((#1744))
GLOBAL_UNIT_ASSIGNED_CONTEXT((#1748,#1750,#1751))
REPRESENTATION_CONTEXT('','3D')
);
#1747=(
GEOMETRIC_REPRESENTATION_CONTEXT(3)
GLOBAL_UNCERTAINTY_ASSIGNED_CONTEXT((#1745))
GLOBAL_UNIT_ASSIGNED_CONTEXT((#1748,#1750,#1751))
REPRESENTATION_CONTEXT('','3D')
);
#1748=(
LENGTH_UNIT()
NAMED_UNIT(*)
SI_UNIT(.MILLI.,.METRE.)
);
#1749=(
LENGTH_UNIT()
NAMED_UNIT(*)
SI_UNIT($,.METRE.)
);
#1750=(
NAMED_UNIT(*)
PLANE_ANGLE_UNIT()
SI_UNIT($,.RADIAN.)
);
#1751=(
NAMED_UNIT(*)
SI_UNIT($,.STERADIAN.)
SOLID_ANGLE_UNIT()
);
#1752=SHAPE_DEFINITION_REPRESENTATION(#1753,#1754);
#1753=PRODUCT_DEFINITION_SHAPE('',$,#1756);
#1754=SHAPE_REPRESENTATION('',(#964),#1746);
#1755=PRODUCT_DEFINITION_CONTEXT('part definition',#1760,'design');
#1756=PRODUCT_DEFINITION('2026-09-27-17-16-14-900','Stepper Mount',#1757,
#1755);
#1757=PRODUCT_DEFINITION_FORMATION('',$,#1762);
#1758=PRODUCT_RELATED_PRODUCT_CATEGORY('Stepper Mount','Stepper Mount',
(#1762));
#1759=APPLICATION_PROTOCOL_DEFINITION('international standard',
'automotive_design',2009,#1760);
#1760=APPLICATION_CONTEXT(
'Core Data for Automotive Mechanical Design Process');
#1761=PRODUCT_CONTEXT('part definition',#1760,'mechanical');
#1762=PRODUCT('2026-09-27-17-16-14-900','Stepper Mount',$,(#1761));
#1763=PRESENTATION_STYLE_ASSIGNMENT((#1764));
#1764=SURFACE_STYLE_USAGE(.BOTH.,#1765);
#1765=SURFACE_SIDE_STYLE('',(#1766));
#1766=SURFACE_STYLE_FILL_AREA(#1767);
#1767=FILL_AREA_STYLE('Steel - Satin',(#1768));
#1768=FILL_AREA_STYLE_COLOUR('Steel - Satin',#1769);
#1769=COLOUR_RGB('Steel - Satin',0.627450980392157,0.627450980392157,0.627450980392157);
ENDSEC;
END-ISO-10303-21;
