ISO-10303-21;
HEADER;
/* Generated by software containing ST-Developer
 * from STEP Tools, Inc. (www.steptools.com) 
 */

FILE_DESCRIPTION(
/* description */ (''),
/* implementation_level */ '2;1');

FILE_NAME(
/* name */ 'AgriRover_Base.step',
/* time_stamp */ '2026-09-20T16:25:29+05:30',
/* author */ (''),
/* organization */ (''),
/* preprocessor_version */ 'ST-DEVELOPER v20.1',
/* originating_system */ 'Autodesk Translation Framework v15.8.0.0',
/* authorisation */ '');

FILE_SCHEMA (('AUTOMOTIVE_DESIGN { 1 0 10303 214 3 1 1 }'));
ENDSEC;

DATA;
#10=MECHANICAL_DESIGN_GEOMETRIC_PRESENTATION_REPRESENTATION('',(#13),#747);
#11=SHAPE_REPRESENTATION_RELATIONSHIP('SRR','None',#754,#12);
#12=ADVANCED_BREP_SHAPE_REPRESENTATION('',(#14),#746);
#13=STYLED_ITEM('',(#763),#14);
#14=MANIFOLD_SOLID_BREP('Body1',#433);
#15=FACE_BOUND('',#87,.T.);
#16=FACE_BOUND('',#88,.T.);
#17=FACE_BOUND('',#89,.T.);
#18=FACE_BOUND('',#90,.T.);
#19=FACE_BOUND('',#91,.T.);
#20=PLANE('',#450);
#21=PLANE('',#454);
#22=PLANE('',#458);
#23=PLANE('',#462);
#24=PLANE('',#463);
#25=PLANE('',#473);
#26=PLANE('',#475);
#27=PLANE('',#476);
#28=PLANE('',#477);
#29=PLANE('',#478);
#30=PLANE('',#481);
#31=PLANE('',#484);
#32=PLANE('',#487);
#33=PLANE('',#490);
#34=PLANE('',#491);
#35=FACE_OUTER_BOUND('',#61,.T.);
#36=FACE_OUTER_BOUND('',#62,.T.);
#37=FACE_OUTER_BOUND('',#63,.T.);
#38=FACE_OUTER_BOUND('',#64,.T.);
#39=FACE_OUTER_BOUND('',#65,.T.);
#40=FACE_OUTER_BOUND('',#66,.T.);
#41=FACE_OUTER_BOUND('',#67,.T.);
#42=FACE_OUTER_BOUND('',#68,.T.);
#43=FACE_OUTER_BOUND('',#69,.T.);
#44=FACE_OUTER_BOUND('',#70,.T.);
#45=FACE_OUTER_BOUND('',#71,.T.);
#46=FACE_OUTER_BOUND('',#72,.T.);
#47=FACE_OUTER_BOUND('',#73,.T.);
#48=FACE_OUTER_BOUND('',#74,.T.);
#49=FACE_OUTER_BOUND('',#75,.T.);
#50=FACE_OUTER_BOUND('',#76,.T.);
#51=FACE_OUTER_BOUND('',#77,.T.);
#52=FACE_OUTER_BOUND('',#78,.T.);
#53=FACE_OUTER_BOUND('',#79,.T.);
#54=FACE_OUTER_BOUND('',#80,.T.);
#55=FACE_OUTER_BOUND('',#81,.T.);
#56=FACE_OUTER_BOUND('',#82,.T.);
#57=FACE_OUTER_BOUND('',#83,.T.);
#58=FACE_OUTER_BOUND('',#84,.T.);
#59=FACE_OUTER_BOUND('',#85,.T.);
#60=FACE_OUTER_BOUND('',#86,.T.);
#61=EDGE_LOOP('',(#282,#283,#284,#285));
#62=EDGE_LOOP('',(#286));
#63=EDGE_LOOP('',(#287,#288,#289,#290));
#64=EDGE_LOOP('',(#291));
#65=EDGE_LOOP('',(#292,#293,#294,#295));
#66=EDGE_LOOP('',(#296));
#67=EDGE_LOOP('',(#297,#298,#299,#300));
#68=EDGE_LOOP('',(#301));
#69=EDGE_LOOP('',(#302,#303,#304,#305));
#70=EDGE_LOOP('',(#306,#307,#308,#309));
#71=EDGE_LOOP('',(#310,#311,#312,#313));
#72=EDGE_LOOP('',(#314,#315,#316,#317));
#73=EDGE_LOOP('',(#318,#319,#320,#321,#322,#323,#324,#325));
#74=EDGE_LOOP('',(#326,#327,#328,#329));
#75=EDGE_LOOP('',(#330,#331,#332,#333));
#76=EDGE_LOOP('',(#334,#335,#336,#337));
#77=EDGE_LOOP('',(#338,#339,#340,#341));
#78=EDGE_LOOP('',(#342,#343,#344,#345));
#79=EDGE_LOOP('',(#346,#347,#348,#349,#350,#351));
#80=EDGE_LOOP('',(#352,#353,#354,#355));
#81=EDGE_LOOP('',(#356,#357,#358,#359,#360,#361));
#82=EDGE_LOOP('',(#362,#363,#364,#365));
#83=EDGE_LOOP('',(#366,#367,#368,#369,#370));
#84=EDGE_LOOP('',(#371,#372,#373,#374));
#85=EDGE_LOOP('',(#375,#376,#377,#378,#379));
#86=EDGE_LOOP('',(#380,#381,#382,#383,#384,#385,#386,#387));
#87=EDGE_LOOP('',(#388,#389,#390,#391));
#88=EDGE_LOOP('',(#392));
#89=EDGE_LOOP('',(#393));
#90=EDGE_LOOP('',(#394));
#91=EDGE_LOOP('',(#395));
#92=LINE('',#627,#130);
#93=LINE('',#634,#131);
#94=LINE('',#641,#132);
#95=LINE('',#648,#133);
#96=LINE('',#654,#134);
#97=LINE('',#656,#135);
#98=LINE('',#658,#136);
#99=LINE('',#659,#137);
#100=LINE('',#665,#138);
#101=LINE('',#668,#139);
#102=LINE('',#674,#140);
#103=LINE('',#677,#141);
#104=LINE('',#683,#142);
#105=LINE('',#686,#143);
#106=LINE('',#691,#144);
#107=LINE('',#692,#145);
#108=LINE('',#693,#146);
#109=LINE('',#694,#147);
#110=LINE('',#697,#148);
#111=LINE('',#699,#149);
#112=LINE('',#700,#150);
#113=LINE('',#703,#151);
#114=LINE('',#704,#152);
#115=LINE('',#707,#153);
#116=LINE('',#708,#154);
#117=LINE('',#710,#155);
#118=LINE('',#713,#156);
#119=LINE('',#716,#157);
#120=LINE('',#719,#158);
#121=LINE('',#720,#159);
#122=LINE('',#724,#160);
#123=LINE('',#727,#161);
#124=LINE('',#728,#162);
#125=LINE('',#732,#163);
#126=LINE('',#735,#164);
#127=LINE('',#736,#165);
#128=LINE('',#740,#166);
#129=LINE('',#742,#167);
#130=VECTOR('',#498,2.00000002980232);
#131=VECTOR('',#507,1.99999999999999);
#132=VECTOR('',#516,2.);
#133=VECTOR('',#525,1.99999999999999);
#134=VECTOR('',#532,10.);
#135=VECTOR('',#533,10.);
#136=VECTOR('',#534,10.);
#137=VECTOR('',#535,10.);
#138=VECTOR('',#540,10.);
#139=VECTOR('',#543,10.);
#140=VECTOR('',#548,10.);
#141=VECTOR('',#551,10.);
#142=VECTOR('',#556,10.);
#143=VECTOR('',#559,10.);
#144=VECTOR('',#564,10.);
#145=VECTOR('',#565,10.);
#146=VECTOR('',#566,10.);
#147=VECTOR('',#567,10.);
#148=VECTOR('',#570,10.);
#149=VECTOR('',#571,10.);
#150=VECTOR('',#572,10.);
#151=VECTOR('',#575,10.);
#152=VECTOR('',#576,10.);
#153=VECTOR('',#579,10.);
#154=VECTOR('',#580,10.);
#155=VECTOR('',#583,10.);
#156=VECTOR('',#586,10.);
#157=VECTOR('',#589,10.);
#158=VECTOR('',#592,10.);
#159=VECTOR('',#593,10.);
#160=VECTOR('',#598,10.);
#161=VECTOR('',#601,10.);
#162=VECTOR('',#602,10.);
#163=VECTOR('',#607,10.);
#164=VECTOR('',#610,10.);
#165=VECTOR('',#611,10.);
#166=VECTOR('',#616,10.);
#167=VECTOR('',#619,10.);
#168=CIRCLE('',#448,1.666);
#169=CIRCLE('',#449,1.666);
#170=CIRCLE('',#452,1.666);
#171=CIRCLE('',#453,1.666);
#172=CIRCLE('',#456,1.666);
#173=CIRCLE('',#457,1.666);
#174=CIRCLE('',#460,1.666);
#175=CIRCLE('',#461,1.666);
#176=CIRCLE('',#465,3.99999999999995);
#177=CIRCLE('',#466,3.99999999999995);
#178=CIRCLE('',#468,3.99999999999999);
#179=CIRCLE('',#469,3.99999999999999);
#180=CIRCLE('',#471,4.00000000000001);
#181=CIRCLE('',#472,4.);
#182=CIRCLE('',#474,4.);
#183=CIRCLE('',#480,4.00000000000001);
#184=CIRCLE('',#483,3.99999999999999);
#185=CIRCLE('',#486,3.99999999999995);
#186=CIRCLE('',#489,4.00000000000001);
#187=VERTEX_POINT('',#624);
#188=VERTEX_POINT('',#626);
#189=VERTEX_POINT('',#631);
#190=VERTEX_POINT('',#633);
#191=VERTEX_POINT('',#638);
#192=VERTEX_POINT('',#640);
#193=VERTEX_POINT('',#645);
#194=VERTEX_POINT('',#647);
#195=VERTEX_POINT('',#652);
#196=VERTEX_POINT('',#653);
#197=VERTEX_POINT('',#655);
#198=VERTEX_POINT('',#657);
#199=VERTEX_POINT('',#661);
#200=VERTEX_POINT('',#662);
#201=VERTEX_POINT('',#664);
#202=VERTEX_POINT('',#666);
#203=VERTEX_POINT('',#670);
#204=VERTEX_POINT('',#671);
#205=VERTEX_POINT('',#673);
#206=VERTEX_POINT('',#675);
#207=VERTEX_POINT('',#679);
#208=VERTEX_POINT('',#680);
#209=VERTEX_POINT('',#682);
#210=VERTEX_POINT('',#684);
#211=VERTEX_POINT('',#688);
#212=VERTEX_POINT('',#689);
#213=VERTEX_POINT('',#696);
#214=VERTEX_POINT('',#698);
#215=VERTEX_POINT('',#702);
#216=VERTEX_POINT('',#706);
#217=VERTEX_POINT('',#712);
#218=VERTEX_POINT('',#714);
#219=VERTEX_POINT('',#718);
#220=VERTEX_POINT('',#722);
#221=VERTEX_POINT('',#726);
#222=VERTEX_POINT('',#730);
#223=VERTEX_POINT('',#734);
#224=VERTEX_POINT('',#738);
#225=EDGE_CURVE('',#187,#187,#168,.T.);
#226=EDGE_CURVE('',#187,#188,#92,.T.);
#227=EDGE_CURVE('',#188,#188,#169,.T.);
#228=EDGE_CURVE('',#189,#189,#170,.T.);
#229=EDGE_CURVE('',#189,#190,#93,.T.);
#230=EDGE_CURVE('',#190,#190,#171,.T.);
#231=EDGE_CURVE('',#191,#191,#172,.T.);
#232=EDGE_CURVE('',#191,#192,#94,.T.);
#233=EDGE_CURVE('',#192,#192,#173,.T.);
#234=EDGE_CURVE('',#193,#193,#174,.T.);
#235=EDGE_CURVE('',#193,#194,#95,.T.);
#236=EDGE_CURVE('',#194,#194,#175,.T.);
#237=EDGE_CURVE('',#195,#196,#96,.T.);
#238=EDGE_CURVE('',#197,#195,#97,.T.);
#239=EDGE_CURVE('',#198,#197,#98,.T.);
#240=EDGE_CURVE('',#196,#198,#99,.T.);
#241=EDGE_CURVE('',#199,#200,#176,.T.);
#242=EDGE_CURVE('',#199,#201,#100,.T.);
#243=EDGE_CURVE('',#202,#201,#177,.T.);
#244=EDGE_CURVE('',#200,#202,#101,.T.);
#245=EDGE_CURVE('',#203,#204,#178,.T.);
#246=EDGE_CURVE('',#203,#205,#102,.T.);
#247=EDGE_CURVE('',#206,#205,#179,.T.);
#248=EDGE_CURVE('',#204,#206,#103,.T.);
#249=EDGE_CURVE('',#207,#208,#180,.T.);
#250=EDGE_CURVE('',#207,#209,#104,.T.);
#251=EDGE_CURVE('',#210,#209,#181,.T.);
#252=EDGE_CURVE('',#208,#210,#105,.T.);
#253=EDGE_CURVE('',#211,#212,#182,.T.);
#254=EDGE_CURVE('',#212,#210,#106,.T.);
#255=EDGE_CURVE('',#209,#206,#107,.T.);
#256=EDGE_CURVE('',#205,#202,#108,.T.);
#257=EDGE_CURVE('',#201,#211,#109,.T.);
#258=EDGE_CURVE('',#196,#213,#110,.T.);
#259=EDGE_CURVE('',#214,#213,#111,.T.);
#260=EDGE_CURVE('',#195,#214,#112,.T.);
#261=EDGE_CURVE('',#215,#214,#113,.T.);
#262=EDGE_CURVE('',#197,#215,#114,.T.);
#263=EDGE_CURVE('',#216,#215,#115,.T.);
#264=EDGE_CURVE('',#198,#216,#116,.T.);
#265=EDGE_CURVE('',#213,#216,#117,.T.);
#266=EDGE_CURVE('',#208,#217,#118,.T.);
#267=EDGE_CURVE('',#218,#217,#183,.T.);
#268=EDGE_CURVE('',#207,#218,#119,.T.);
#269=EDGE_CURVE('',#219,#218,#120,.T.);
#270=EDGE_CURVE('',#204,#219,#121,.T.);
#271=EDGE_CURVE('',#220,#219,#184,.T.);
#272=EDGE_CURVE('',#203,#220,#122,.T.);
#273=EDGE_CURVE('',#221,#220,#123,.T.);
#274=EDGE_CURVE('',#200,#221,#124,.T.);
#275=EDGE_CURVE('',#222,#221,#185,.T.);
#276=EDGE_CURVE('',#199,#222,#125,.T.);
#277=EDGE_CURVE('',#223,#222,#126,.T.);
#278=EDGE_CURVE('',#211,#223,#127,.T.);
#279=EDGE_CURVE('',#224,#223,#186,.T.);
#280=EDGE_CURVE('',#212,#224,#128,.T.);
#281=EDGE_CURVE('',#217,#224,#129,.T.);
#282=ORIENTED_EDGE('',*,*,#225,.F.);
#283=ORIENTED_EDGE('',*,*,#226,.T.);
#284=ORIENTED_EDGE('',*,*,#227,.T.);
#285=ORIENTED_EDGE('',*,*,#226,.F.);
#286=ORIENTED_EDGE('',*,*,#227,.F.);
#287=ORIENTED_EDGE('',*,*,#228,.F.);
#288=ORIENTED_EDGE('',*,*,#229,.T.);
#289=ORIENTED_EDGE('',*,*,#230,.T.);
#290=ORIENTED_EDGE('',*,*,#229,.F.);
#291=ORIENTED_EDGE('',*,*,#230,.F.);
#292=ORIENTED_EDGE('',*,*,#231,.F.);
#293=ORIENTED_EDGE('',*,*,#232,.T.);
#294=ORIENTED_EDGE('',*,*,#233,.T.);
#295=ORIENTED_EDGE('',*,*,#232,.F.);
#296=ORIENTED_EDGE('',*,*,#233,.F.);
#297=ORIENTED_EDGE('',*,*,#234,.F.);
#298=ORIENTED_EDGE('',*,*,#235,.T.);
#299=ORIENTED_EDGE('',*,*,#236,.T.);
#300=ORIENTED_EDGE('',*,*,#235,.F.);
#301=ORIENTED_EDGE('',*,*,#236,.F.);
#302=ORIENTED_EDGE('',*,*,#237,.F.);
#303=ORIENTED_EDGE('',*,*,#238,.F.);
#304=ORIENTED_EDGE('',*,*,#239,.F.);
#305=ORIENTED_EDGE('',*,*,#240,.F.);
#306=ORIENTED_EDGE('',*,*,#241,.F.);
#307=ORIENTED_EDGE('',*,*,#242,.T.);
#308=ORIENTED_EDGE('',*,*,#243,.F.);
#309=ORIENTED_EDGE('',*,*,#244,.F.);
#310=ORIENTED_EDGE('',*,*,#245,.F.);
#311=ORIENTED_EDGE('',*,*,#246,.T.);
#312=ORIENTED_EDGE('',*,*,#247,.F.);
#313=ORIENTED_EDGE('',*,*,#248,.F.);
#314=ORIENTED_EDGE('',*,*,#249,.F.);
#315=ORIENTED_EDGE('',*,*,#250,.T.);
#316=ORIENTED_EDGE('',*,*,#251,.F.);
#317=ORIENTED_EDGE('',*,*,#252,.F.);
#318=ORIENTED_EDGE('',*,*,#253,.T.);
#319=ORIENTED_EDGE('',*,*,#254,.T.);
#320=ORIENTED_EDGE('',*,*,#251,.T.);
#321=ORIENTED_EDGE('',*,*,#255,.T.);
#322=ORIENTED_EDGE('',*,*,#247,.T.);
#323=ORIENTED_EDGE('',*,*,#256,.T.);
#324=ORIENTED_EDGE('',*,*,#243,.T.);
#325=ORIENTED_EDGE('',*,*,#257,.T.);
#326=ORIENTED_EDGE('',*,*,#237,.T.);
#327=ORIENTED_EDGE('',*,*,#258,.T.);
#328=ORIENTED_EDGE('',*,*,#259,.F.);
#329=ORIENTED_EDGE('',*,*,#260,.F.);
#330=ORIENTED_EDGE('',*,*,#238,.T.);
#331=ORIENTED_EDGE('',*,*,#260,.T.);
#332=ORIENTED_EDGE('',*,*,#261,.F.);
#333=ORIENTED_EDGE('',*,*,#262,.F.);
#334=ORIENTED_EDGE('',*,*,#239,.T.);
#335=ORIENTED_EDGE('',*,*,#262,.T.);
#336=ORIENTED_EDGE('',*,*,#263,.F.);
#337=ORIENTED_EDGE('',*,*,#264,.F.);
#338=ORIENTED_EDGE('',*,*,#240,.T.);
#339=ORIENTED_EDGE('',*,*,#264,.T.);
#340=ORIENTED_EDGE('',*,*,#265,.F.);
#341=ORIENTED_EDGE('',*,*,#258,.F.);
#342=ORIENTED_EDGE('',*,*,#249,.T.);
#343=ORIENTED_EDGE('',*,*,#266,.T.);
#344=ORIENTED_EDGE('',*,*,#267,.F.);
#345=ORIENTED_EDGE('',*,*,#268,.F.);
#346=ORIENTED_EDGE('',*,*,#268,.T.);
#347=ORIENTED_EDGE('',*,*,#269,.F.);
#348=ORIENTED_EDGE('',*,*,#270,.F.);
#349=ORIENTED_EDGE('',*,*,#248,.T.);
#350=ORIENTED_EDGE('',*,*,#255,.F.);
#351=ORIENTED_EDGE('',*,*,#250,.F.);
#352=ORIENTED_EDGE('',*,*,#245,.T.);
#353=ORIENTED_EDGE('',*,*,#270,.T.);
#354=ORIENTED_EDGE('',*,*,#271,.F.);
#355=ORIENTED_EDGE('',*,*,#272,.F.);
#356=ORIENTED_EDGE('',*,*,#272,.T.);
#357=ORIENTED_EDGE('',*,*,#273,.F.);
#358=ORIENTED_EDGE('',*,*,#274,.F.);
#359=ORIENTED_EDGE('',*,*,#244,.T.);
#360=ORIENTED_EDGE('',*,*,#256,.F.);
#361=ORIENTED_EDGE('',*,*,#246,.F.);
#362=ORIENTED_EDGE('',*,*,#241,.T.);
#363=ORIENTED_EDGE('',*,*,#274,.T.);
#364=ORIENTED_EDGE('',*,*,#275,.F.);
#365=ORIENTED_EDGE('',*,*,#276,.F.);
#366=ORIENTED_EDGE('',*,*,#276,.T.);
#367=ORIENTED_EDGE('',*,*,#277,.F.);
#368=ORIENTED_EDGE('',*,*,#278,.F.);
#369=ORIENTED_EDGE('',*,*,#257,.F.);
#370=ORIENTED_EDGE('',*,*,#242,.F.);
#371=ORIENTED_EDGE('',*,*,#278,.T.);
#372=ORIENTED_EDGE('',*,*,#279,.F.);
#373=ORIENTED_EDGE('',*,*,#280,.F.);
#374=ORIENTED_EDGE('',*,*,#253,.F.);
#375=ORIENTED_EDGE('',*,*,#280,.T.);
#376=ORIENTED_EDGE('',*,*,#281,.F.);
#377=ORIENTED_EDGE('',*,*,#266,.F.);
#378=ORIENTED_EDGE('',*,*,#252,.T.);
#379=ORIENTED_EDGE('',*,*,#254,.F.);
#380=ORIENTED_EDGE('',*,*,#281,.T.);
#381=ORIENTED_EDGE('',*,*,#279,.T.);
#382=ORIENTED_EDGE('',*,*,#277,.T.);
#383=ORIENTED_EDGE('',*,*,#275,.T.);
#384=ORIENTED_EDGE('',*,*,#273,.T.);
#385=ORIENTED_EDGE('',*,*,#271,.T.);
#386=ORIENTED_EDGE('',*,*,#269,.T.);
#387=ORIENTED_EDGE('',*,*,#267,.T.);
#388=ORIENTED_EDGE('',*,*,#265,.T.);
#389=ORIENTED_EDGE('',*,*,#263,.T.);
#390=ORIENTED_EDGE('',*,*,#261,.T.);
#391=ORIENTED_EDGE('',*,*,#259,.T.);
#392=ORIENTED_EDGE('',*,*,#234,.T.);
#393=ORIENTED_EDGE('',*,*,#231,.T.);
#394=ORIENTED_EDGE('',*,*,#228,.T.);
#395=ORIENTED_EDGE('',*,*,#225,.T.);
#396=CYLINDRICAL_SURFACE('',#447,1.666);
#397=CYLINDRICAL_SURFACE('',#451,1.666);
#398=CYLINDRICAL_SURFACE('',#455,1.666);
#399=CYLINDRICAL_SURFACE('',#459,1.666);
#400=CYLINDRICAL_SURFACE('',#464,3.99999999999995);
#401=CYLINDRICAL_SURFACE('',#467,3.99999999999999);
#402=CYLINDRICAL_SURFACE('',#470,4.);
#403=CYLINDRICAL_SURFACE('',#479,4.00000000000001);
#404=CYLINDRICAL_SURFACE('',#482,3.99999999999999);
#405=CYLINDRICAL_SURFACE('',#485,3.99999999999995);
#406=CYLINDRICAL_SURFACE('',#488,4.00000000000001);
#407=ADVANCED_FACE('',(#35),#396,.F.);
#408=ADVANCED_FACE('',(#36),#20,.T.);
#409=ADVANCED_FACE('',(#37),#397,.F.);
#410=ADVANCED_FACE('',(#38),#21,.T.);
#411=ADVANCED_FACE('',(#39),#398,.F.);
#412=ADVANCED_FACE('',(#40),#22,.T.);
#413=ADVANCED_FACE('',(#41),#399,.F.);
#414=ADVANCED_FACE('',(#42),#23,.T.);
#415=ADVANCED_FACE('',(#43),#24,.F.);
#416=ADVANCED_FACE('',(#44),#400,.T.);
#417=ADVANCED_FACE('',(#45),#401,.T.);
#418=ADVANCED_FACE('',(#46),#402,.T.);
#419=ADVANCED_FACE('',(#47),#25,.T.);
#420=ADVANCED_FACE('',(#48),#26,.T.);
#421=ADVANCED_FACE('',(#49),#27,.T.);
#422=ADVANCED_FACE('',(#50),#28,.T.);
#423=ADVANCED_FACE('',(#51),#29,.T.);
#424=ADVANCED_FACE('',(#52),#403,.T.);
#425=ADVANCED_FACE('',(#53),#30,.T.);
#426=ADVANCED_FACE('',(#54),#404,.T.);
#427=ADVANCED_FACE('',(#55),#31,.T.);
#428=ADVANCED_FACE('',(#56),#405,.T.);
#429=ADVANCED_FACE('',(#57),#32,.T.);
#430=ADVANCED_FACE('',(#58),#406,.T.);
#431=ADVANCED_FACE('',(#59),#33,.T.);
#432=ADVANCED_FACE('',(#60,#15,#16,#17,#18,#19),#34,.T.);
#433=CLOSED_SHELL('',(#407,#408,#409,#410,#411,#412,#413,#414,#415,#416,
#417,#418,#419,#420,#421,#422,#423,#424,#425,#426,#427,#428,#429,#430,#431,
#432));
#434=DERIVED_UNIT_ELEMENT(#436,1.);
#435=DERIVED_UNIT_ELEMENT(#749,-3.);
#436=(
MASS_UNIT()
NAMED_UNIT(*)
SI_UNIT(.KILO.,.GRAM.)
);
#437=DERIVED_UNIT((#434,#435));
#438=MEASURE_REPRESENTATION_ITEM('density measure',
POSITIVE_RATIO_MEASURE(7850.),#437);
#439=PROPERTY_DEFINITION_REPRESENTATION(#444,#441);
#440=PROPERTY_DEFINITION_REPRESENTATION(#445,#442);
#441=REPRESENTATION('material name',(#443),#746);
#442=REPRESENTATION('density',(#438),#746);
#443=DESCRIPTIVE_REPRESENTATION_ITEM('Steel','Steel');
#444=PROPERTY_DEFINITION('material property','material name',#756);
#445=PROPERTY_DEFINITION('material property','density of part',#756);
#446=AXIS2_PLACEMENT_3D('',#622,#492,#493);
#447=AXIS2_PLACEMENT_3D('',#623,#494,#495);
#448=AXIS2_PLACEMENT_3D('',#625,#496,#497);
#449=AXIS2_PLACEMENT_3D('',#628,#499,#500);
#450=AXIS2_PLACEMENT_3D('',#629,#501,#502);
#451=AXIS2_PLACEMENT_3D('',#630,#503,#504);
#452=AXIS2_PLACEMENT_3D('',#632,#505,#506);
#453=AXIS2_PLACEMENT_3D('',#635,#508,#509);
#454=AXIS2_PLACEMENT_3D('',#636,#510,#511);
#455=AXIS2_PLACEMENT_3D('',#637,#512,#513);
#456=AXIS2_PLACEMENT_3D('',#639,#514,#515);
#457=AXIS2_PLACEMENT_3D('',#642,#517,#518);
#458=AXIS2_PLACEMENT_3D('',#643,#519,#520);
#459=AXIS2_PLACEMENT_3D('',#644,#521,#522);
#460=AXIS2_PLACEMENT_3D('',#646,#523,#524);
#461=AXIS2_PLACEMENT_3D('',#649,#526,#527);
#462=AXIS2_PLACEMENT_3D('',#650,#528,#529);
#463=AXIS2_PLACEMENT_3D('',#651,#530,#531);
#464=AXIS2_PLACEMENT_3D('',#660,#536,#537);
#465=AXIS2_PLACEMENT_3D('',#663,#538,#539);
#466=AXIS2_PLACEMENT_3D('',#667,#541,#542);
#467=AXIS2_PLACEMENT_3D('',#669,#544,#545);
#468=AXIS2_PLACEMENT_3D('',#672,#546,#547);
#469=AXIS2_PLACEMENT_3D('',#676,#549,#550);
#470=AXIS2_PLACEMENT_3D('',#678,#552,#553);
#471=AXIS2_PLACEMENT_3D('',#681,#554,#555);
#472=AXIS2_PLACEMENT_3D('',#685,#557,#558);
#473=AXIS2_PLACEMENT_3D('',#687,#560,#561);
#474=AXIS2_PLACEMENT_3D('',#690,#562,#563);
#475=AXIS2_PLACEMENT_3D('',#695,#568,#569);
#476=AXIS2_PLACEMENT_3D('',#701,#573,#574);
#477=AXIS2_PLACEMENT_3D('',#705,#577,#578);
#478=AXIS2_PLACEMENT_3D('',#709,#581,#582);
#479=AXIS2_PLACEMENT_3D('',#711,#584,#585);
#480=AXIS2_PLACEMENT_3D('',#715,#587,#588);
#481=AXIS2_PLACEMENT_3D('',#717,#590,#591);
#482=AXIS2_PLACEMENT_3D('',#721,#594,#595);
#483=AXIS2_PLACEMENT_3D('',#723,#596,#597);
#484=AXIS2_PLACEMENT_3D('',#725,#599,#600);
#485=AXIS2_PLACEMENT_3D('',#729,#603,#604);
#486=AXIS2_PLACEMENT_3D('',#731,#605,#606);
#487=AXIS2_PLACEMENT_3D('',#733,#608,#609);
#488=AXIS2_PLACEMENT_3D('',#737,#612,#613);
#489=AXIS2_PLACEMENT_3D('',#739,#614,#615);
#490=AXIS2_PLACEMENT_3D('',#741,#617,#618);
#491=AXIS2_PLACEMENT_3D('',#743,#620,#621);
#492=DIRECTION('axis',(0.,0.,1.));
#493=DIRECTION('refdir',(1.,0.,0.));
#494=DIRECTION('center_axis',(0.,0.,-1.));
#495=DIRECTION('ref_axis',(-1.,0.,0.));
#496=DIRECTION('center_axis',(0.,0.,-1.));
#497=DIRECTION('ref_axis',(-1.,0.,0.));
#498=DIRECTION('',(0.,0.,-1.));
#499=DIRECTION('center_axis',(0.,0.,-1.));
#500=DIRECTION('ref_axis',(-1.,0.,0.));
#501=DIRECTION('center_axis',(0.,0.,1.));
#502=DIRECTION('ref_axis',(-1.,0.,0.));
#503=DIRECTION('center_axis',(0.,0.,-1.));
#504=DIRECTION('ref_axis',(-1.,0.,0.));
#505=DIRECTION('center_axis',(0.,0.,-1.));
#506=DIRECTION('ref_axis',(-1.,0.,0.));
#507=DIRECTION('',(0.,0.,-1.));
#508=DIRECTION('center_axis',(0.,0.,-1.));
#509=DIRECTION('ref_axis',(-1.,0.,0.));
#510=DIRECTION('center_axis',(0.,0.,1.));
#511=DIRECTION('ref_axis',(-1.,0.,0.));
#512=DIRECTION('center_axis',(0.,0.,-1.));
#513=DIRECTION('ref_axis',(-1.,0.,0.));
#514=DIRECTION('center_axis',(0.,0.,-1.));
#515=DIRECTION('ref_axis',(-1.,0.,0.));
#516=DIRECTION('',(0.,0.,-1.));
#517=DIRECTION('center_axis',(0.,0.,-1.));
#518=DIRECTION('ref_axis',(-1.,0.,0.));
#519=DIRECTION('center_axis',(0.,0.,1.));
#520=DIRECTION('ref_axis',(-1.,0.,0.));
#521=DIRECTION('center_axis',(0.,0.,-1.));
#522=DIRECTION('ref_axis',(-1.,0.,0.));
#523=DIRECTION('center_axis',(0.,0.,-1.));
#524=DIRECTION('ref_axis',(-1.,0.,0.));
#525=DIRECTION('',(0.,0.,-1.));
#526=DIRECTION('center_axis',(0.,0.,-1.));
#527=DIRECTION('ref_axis',(-1.,0.,0.));
#528=DIRECTION('center_axis',(0.,0.,1.));
#529=DIRECTION('ref_axis',(-1.,0.,0.));
#530=DIRECTION('center_axis',(0.,0.,-1.));
#531=DIRECTION('ref_axis',(1.,0.,0.));
#532=DIRECTION('',(0.,-1.,0.));
#533=DIRECTION('',(1.,0.,0.));
#534=DIRECTION('',(0.,1.,0.));
#535=DIRECTION('',(-1.,0.,0.));
#536=DIRECTION('center_axis',(0.,0.,-1.));
#537=DIRECTION('ref_axis',(1.,8.88178419700136E-15,0.));
#538=DIRECTION('center_axis',(0.,0.,1.));
#539=DIRECTION('ref_axis',(-8.88178419700136E-15,-1.,0.));
#540=DIRECTION('',(0.,0.,-1.));
#541=DIRECTION('center_axis',(0.,0.,-1.));
#542=DIRECTION('ref_axis',(1.,8.88178419700136E-15,0.));
#543=DIRECTION('',(0.,0.,-1.));
#544=DIRECTION('center_axis',(0.,0.,-1.));
#545=DIRECTION('ref_axis',(0.,1.,0.));
#546=DIRECTION('center_axis',(0.,0.,1.));
#547=DIRECTION('ref_axis',(1.,-2.22044604925032E-15,0.));
#548=DIRECTION('',(0.,0.,-1.));
#549=DIRECTION('center_axis',(0.,0.,-1.));
#550=DIRECTION('ref_axis',(0.,1.,0.));
#551=DIRECTION('',(0.,0.,-1.));
#552=DIRECTION('center_axis',(0.,0.,-1.));
#553=DIRECTION('ref_axis',(-1.,0.,0.));
#554=DIRECTION('center_axis',(0.,0.,1.));
#555=DIRECTION('ref_axis',(-2.22044604925031E-15,1.,0.));
#556=DIRECTION('',(0.,0.,-1.));
#557=DIRECTION('center_axis',(0.,0.,-1.));
#558=DIRECTION('ref_axis',(-1.,0.,0.));
#559=DIRECTION('',(0.,0.,-1.));
#560=DIRECTION('center_axis',(0.,0.,-1.));
#561=DIRECTION('ref_axis',(1.,0.,0.));
#562=DIRECTION('center_axis',(0.,0.,-1.));
#563=DIRECTION('ref_axis',(-4.44089209850062E-15,-1.,0.));
#564=DIRECTION('',(-8.7938457039264E-17,1.,0.));
#565=DIRECTION('',(1.,0.,0.));
#566=DIRECTION('',(0.,-1.,0.));
#567=DIRECTION('',(-1.,-7.04903499153688E-17,0.));
#568=DIRECTION('center_axis',(-1.,0.,0.));
#569=DIRECTION('ref_axis',(0.,-1.,0.));
#570=DIRECTION('',(0.,0.,1.));
#571=DIRECTION('',(0.,-1.,0.));
#572=DIRECTION('',(0.,0.,1.));
#573=DIRECTION('center_axis',(0.,-1.,0.));
#574=DIRECTION('ref_axis',(1.,0.,0.));
#575=DIRECTION('',(1.,0.,0.));
#576=DIRECTION('',(0.,0.,1.));
#577=DIRECTION('center_axis',(1.,0.,0.));
#578=DIRECTION('ref_axis',(0.,1.,0.));
#579=DIRECTION('',(0.,1.,0.));
#580=DIRECTION('',(0.,0.,1.));
#581=DIRECTION('center_axis',(0.,1.,0.));
#582=DIRECTION('ref_axis',(-1.,0.,0.));
#583=DIRECTION('',(-1.,0.,0.));
#584=DIRECTION('center_axis',(0.,0.,1.));
#585=DIRECTION('ref_axis',(-2.22044604925031E-15,1.,0.));
#586=DIRECTION('',(0.,0.,1.));
#587=DIRECTION('center_axis',(0.,0.,1.));
#588=DIRECTION('ref_axis',(-2.22044604925031E-15,1.,0.));
#589=DIRECTION('',(0.,0.,1.));
#590=DIRECTION('center_axis',(0.,1.,0.));
#591=DIRECTION('ref_axis',(-1.,0.,0.));
#592=DIRECTION('',(-1.,0.,0.));
#593=DIRECTION('',(0.,0.,1.));
#594=DIRECTION('center_axis',(0.,0.,1.));
#595=DIRECTION('ref_axis',(1.,-2.22044604925032E-15,0.));
#596=DIRECTION('center_axis',(0.,0.,1.));
#597=DIRECTION('ref_axis',(1.,-2.22044604925032E-15,0.));
#598=DIRECTION('',(0.,0.,1.));
#599=DIRECTION('center_axis',(1.,0.,0.));
#600=DIRECTION('ref_axis',(0.,1.,0.));
#601=DIRECTION('',(0.,1.,0.));
#602=DIRECTION('',(0.,0.,1.));
#603=DIRECTION('center_axis',(0.,0.,1.));
#604=DIRECTION('ref_axis',(-8.88178419700136E-15,-1.,0.));
#605=DIRECTION('center_axis',(0.,0.,1.));
#606=DIRECTION('ref_axis',(-8.88178419700136E-15,-1.,0.));
#607=DIRECTION('',(0.,0.,1.));
#608=DIRECTION('center_axis',(7.04903507698512E-17,-1.,0.));
#609=DIRECTION('ref_axis',(1.,7.04903507698512E-17,0.));
#610=DIRECTION('',(1.,7.04903507698512E-17,0.));
#611=DIRECTION('',(0.,0.,1.));
#612=DIRECTION('center_axis',(0.,0.,1.));
#613=DIRECTION('ref_axis',(-1.,-4.44089209850061E-15,0.));
#614=DIRECTION('center_axis',(0.,0.,1.));
#615=DIRECTION('ref_axis',(-1.,-4.44089209850061E-15,0.));
#616=DIRECTION('',(0.,0.,1.));
#617=DIRECTION('center_axis',(-1.,0.,0.));
#618=DIRECTION('ref_axis',(0.,-1.,0.));
#619=DIRECTION('',(0.,-1.,0.));
#620=DIRECTION('center_axis',(0.,0.,1.));
#621=DIRECTION('ref_axis',(1.,0.,0.));
#622=CARTESIAN_POINT('',(0.,0.,0.));
#623=CARTESIAN_POINT('Origin',(-52.0000007748604,52.0000007748604,50.));
#624=CARTESIAN_POINT('',(-50.3340007748604,52.0000007748604,50.));
#625=CARTESIAN_POINT('Origin',(-52.0000007748604,52.0000007748604,50.));
#626=CARTESIAN_POINT('',(-50.3340007748604,52.0000007748604,40.));
#627=CARTESIAN_POINT('',(-50.3340007748604,52.0000007748604,50.));
#628=CARTESIAN_POINT('Origin',(-52.0000007748604,52.0000007748604,40.));
#629=CARTESIAN_POINT('Origin',(-52.0000007748604,52.0000007748604,40.));
#630=CARTESIAN_POINT('Origin',(202.000003010035,52.0000007748604,50.));
#631=CARTESIAN_POINT('',(203.666003010035,52.0000007748604,50.));
#632=CARTESIAN_POINT('Origin',(202.000003010035,52.0000007748604,50.));
#633=CARTESIAN_POINT('',(203.666003010035,52.0000007748604,40.));
#634=CARTESIAN_POINT('',(203.666003010035,52.0000007748604,50.));
#635=CARTESIAN_POINT('Origin',(202.000003010035,52.0000007748604,40.));
#636=CARTESIAN_POINT('Origin',(202.000003010035,52.0000007748604,40.));
#637=CARTESIAN_POINT('Origin',(-52.0000007748604,-152.000002264977,50.));
#638=CARTESIAN_POINT('',(-50.3340007748604,-152.000002264977,50.));
#639=CARTESIAN_POINT('Origin',(-52.0000007748604,-152.000002264977,50.));
#640=CARTESIAN_POINT('',(-50.3340007748604,-152.000002264977,40.));
#641=CARTESIAN_POINT('',(-50.3340007748604,-152.000002264977,50.));
#642=CARTESIAN_POINT('Origin',(-52.0000007748604,-152.000002264977,40.));
#643=CARTESIAN_POINT('Origin',(-52.0000007748604,-152.000002264977,40.));
#644=CARTESIAN_POINT('Origin',(202.000003010035,-152.000002264977,50.));
#645=CARTESIAN_POINT('',(203.666003010035,-152.000002264977,50.));
#646=CARTESIAN_POINT('Origin',(202.000003010035,-152.000002264977,50.));
#647=CARTESIAN_POINT('',(203.666003010035,-152.000002264977,40.));
#648=CARTESIAN_POINT('',(203.666003010035,-152.000002264977,50.));
#649=CARTESIAN_POINT('Origin',(202.000003010035,-152.000002264977,40.));
#650=CARTESIAN_POINT('Origin',(202.000003010035,-152.000002264977,40.));
#651=CARTESIAN_POINT('Origin',(75.000001527369,-49.9999995902181,0.));
#652=CARTESIAN_POINT('',(200.,50.,0.));
#653=CARTESIAN_POINT('',(200.,-150.,0.));
#654=CARTESIAN_POINT('',(200.,50.,0.));
#655=CARTESIAN_POINT('',(-50.,50.,0.));
#656=CARTESIAN_POINT('',(-50.,50.,0.));
#657=CARTESIAN_POINT('',(-50.,-150.,0.));
#658=CARTESIAN_POINT('',(-50.,-150.,0.));
#659=CARTESIAN_POINT('',(200.,-150.,0.));
#660=CARTESIAN_POINT('Origin',(201.000003054738,-151.,0.));
#661=CARTESIAN_POINT('',(201.,-155.,0.));
#662=CARTESIAN_POINT('',(205.,-151.,0.));
#663=CARTESIAN_POINT('Origin',(201.,-151.,0.));
#664=CARTESIAN_POINT('',(201.000003054738,-155.,-5.));
#665=CARTESIAN_POINT('',(201.000003054738,-155.,0.));
#666=CARTESIAN_POINT('',(205.000003054738,-151.,-5.));
#667=CARTESIAN_POINT('Origin',(201.000003054738,-151.,-5.));
#668=CARTESIAN_POINT('',(205.000003054738,-151.,0.));
#669=CARTESIAN_POINT('Origin',(201.000003054738,51.0000008195639,0.));
#670=CARTESIAN_POINT('',(205.,51.,0.));
#671=CARTESIAN_POINT('',(201.,55.,0.));
#672=CARTESIAN_POINT('Origin',(201.,51.,0.));
#673=CARTESIAN_POINT('',(205.000003054738,51.0000008195639,-5.));
#674=CARTESIAN_POINT('',(205.000003054738,51.0000008195639,0.));
#675=CARTESIAN_POINT('',(201.000003054738,55.0000008195639,-5.));
#676=CARTESIAN_POINT('Origin',(201.000003054738,51.0000008195639,-5.));
#677=CARTESIAN_POINT('',(201.000003054738,55.0000008195639,0.));
#678=CARTESIAN_POINT('Origin',(-51.,51.0000008195639,0.));
#679=CARTESIAN_POINT('',(-51.,55.,0.));
#680=CARTESIAN_POINT('',(-55.,51.,0.));
#681=CARTESIAN_POINT('Origin',(-51.,51.,0.));
#682=CARTESIAN_POINT('',(-51.,55.0000008195639,-5.));
#683=CARTESIAN_POINT('',(-51.,55.0000008195639,0.));
#684=CARTESIAN_POINT('',(-55.,51.0000008195639,-5.));
#685=CARTESIAN_POINT('Origin',(-51.,51.0000008195639,-5.));
#686=CARTESIAN_POINT('',(-55.,51.0000008195639,0.));
#687=CARTESIAN_POINT('Origin',(75.000001527369,-49.9999995902181,-5.));
#688=CARTESIAN_POINT('',(-51.,-155.,-5.));
#689=CARTESIAN_POINT('',(-55.,-151.,-5.));
#690=CARTESIAN_POINT('Origin',(-51.,-151.,-5.));
#691=CARTESIAN_POINT('',(-55.,51.0000008195639,-5.));
#692=CARTESIAN_POINT('',(201.000003054738,55.0000008195639,-5.));
#693=CARTESIAN_POINT('',(205.000003054738,-151.,-5.));
#694=CARTESIAN_POINT('',(-51.,-155.,-5.));
#695=CARTESIAN_POINT('Origin',(200.,50.,0.));
#696=CARTESIAN_POINT('',(200.,-150.,50.));
#697=CARTESIAN_POINT('',(200.,-150.,0.));
#698=CARTESIAN_POINT('',(200.,50.,50.));
#699=CARTESIAN_POINT('',(200.,50.,50.));
#700=CARTESIAN_POINT('',(200.,50.,0.));
#701=CARTESIAN_POINT('Origin',(-50.,50.,0.));
#702=CARTESIAN_POINT('',(-50.,50.,50.));
#703=CARTESIAN_POINT('',(-50.,50.,50.));
#704=CARTESIAN_POINT('',(-50.,50.,0.));
#705=CARTESIAN_POINT('Origin',(-50.,-150.,0.));
#706=CARTESIAN_POINT('',(-50.,-150.,50.));
#707=CARTESIAN_POINT('',(-50.,-150.,50.));
#708=CARTESIAN_POINT('',(-50.,-150.,0.));
#709=CARTESIAN_POINT('Origin',(200.,-150.,0.));
#710=CARTESIAN_POINT('',(200.,-150.,50.));
#711=CARTESIAN_POINT('Origin',(-51.,51.,0.));
#712=CARTESIAN_POINT('',(-55.,51.,50.));
#713=CARTESIAN_POINT('',(-55.,51.,0.));
#714=CARTESIAN_POINT('',(-51.,55.,50.));
#715=CARTESIAN_POINT('Origin',(-51.,51.,50.));
#716=CARTESIAN_POINT('',(-51.,55.,0.));
#717=CARTESIAN_POINT('Origin',(201.,55.,0.));
#718=CARTESIAN_POINT('',(201.,55.,50.));
#719=CARTESIAN_POINT('',(-51.,55.,50.));
#720=CARTESIAN_POINT('',(201.,55.,0.));
#721=CARTESIAN_POINT('Origin',(201.,51.,0.));
#722=CARTESIAN_POINT('',(205.,51.,50.));
#723=CARTESIAN_POINT('Origin',(201.,51.,50.));
#724=CARTESIAN_POINT('',(205.,51.,0.));
#725=CARTESIAN_POINT('Origin',(205.,-151.,0.));
#726=CARTESIAN_POINT('',(205.,-151.,50.));
#727=CARTESIAN_POINT('',(205.,51.,50.));
#728=CARTESIAN_POINT('',(205.,-151.,0.));
#729=CARTESIAN_POINT('Origin',(201.,-151.,0.));
#730=CARTESIAN_POINT('',(201.,-155.,50.));
#731=CARTESIAN_POINT('Origin',(201.,-151.,50.));
#732=CARTESIAN_POINT('',(201.,-155.,0.));
#733=CARTESIAN_POINT('Origin',(-51.,-155.,0.));
#734=CARTESIAN_POINT('',(-51.,-155.,50.));
#735=CARTESIAN_POINT('',(201.,-155.,50.));
#736=CARTESIAN_POINT('',(-51.,-155.,0.));
#737=CARTESIAN_POINT('Origin',(-51.,-151.,0.));
#738=CARTESIAN_POINT('',(-55.,-151.,50.));
#739=CARTESIAN_POINT('Origin',(-51.,-151.,50.));
#740=CARTESIAN_POINT('',(-55.,-151.,0.));
#741=CARTESIAN_POINT('Origin',(-55.,51.,0.));
#742=CARTESIAN_POINT('',(-55.,-151.,50.));
#743=CARTESIAN_POINT('Origin',(75.,-50.,50.));
#744=UNCERTAINTY_MEASURE_WITH_UNIT(LENGTH_MEASURE(0.01),#748,
'DISTANCE_ACCURACY_VALUE',
'Maximum model space distance between geometric entities at asserted c
onnectivities');
#745=UNCERTAINTY_MEASURE_WITH_UNIT(LENGTH_MEASURE(0.01),#748,
'DISTANCE_ACCURACY_VALUE',
'Maximum model space distance between geometric entities at asserted c
onnectivities');
#746=(
GEOMETRIC_REPRESENTATION_CONTEXT(3)
GLOBAL_UNCERTAINTY_ASSIGNED_CONTEXT((#744))
GLOBAL_UNIT_ASSIGNED_CONTEXT((#748,#750,#751))
REPRESENTATION_CONTEXT('','3D')
);
#747=(
GEOMETRIC_REPRESENTATION_CONTEXT(3)
GLOBAL_UNCERTAINTY_ASSIGNED_CONTEXT((#745))
GLOBAL_UNIT_ASSIGNED_CONTEXT((#748,#750,#751))
REPRESENTATION_CONTEXT('','3D')
);
#748=(
LENGTH_UNIT()
NAMED_UNIT(*)
SI_UNIT(.MILLI.,.METRE.)
);
#749=(
LENGTH_UNIT()
NAMED_UNIT(*)
SI_UNIT($,.METRE.)
);
#750=(
NAMED_UNIT(*)
PLANE_ANGLE_UNIT()
SI_UNIT($,.RADIAN.)
);
#751=(
NAMED_UNIT(*)
SI_UNIT($,.STERADIAN.)
SOLID_ANGLE_UNIT()
);
#752=SHAPE_DEFINITION_REPRESENTATION(#753,#754);
#753=PRODUCT_DEFINITION_SHAPE('',$,#756);
#754=SHAPE_REPRESENTATION('',(#446),#746);
#755=PRODUCT_DEFINITION_CONTEXT('part definition',#760,'design');
#756=PRODUCT_DEFINITION('2026-09-19-14-31-14-166','AgriRover_Base',#757,
#755);
#757=PRODUCT_DEFINITION_FORMATION('',$,#762);
#758=PRODUCT_RELATED_PRODUCT_CATEGORY('AgriRover_Base','AgriRover_Base',
(#762));
#759=APPLICATION_PROTOCOL_DEFINITION('international standard',
'automotive_design',2009,#760);
#760=APPLICATION_CONTEXT(
'Core Data for Automotive Mechanical Design Process');
#761=PRODUCT_CONTEXT('part definition',#760,'mechanical');
#762=PRODUCT('2026-09-19-14-31-14-166','AgriRover_Base',$,(#761));
#763=PRESENTATION_STYLE_ASSIGNMENT((#764));
#764=SURFACE_STYLE_USAGE(.BOTH.,#765);
#765=SURFACE_SIDE_STYLE('',(#766));
#766=SURFACE_STYLE_FILL_AREA(#767);
#767=FILL_AREA_STYLE('Steel - Satin',(#768));
#768=FILL_AREA_STYLE_COLOUR('Steel - Satin',#769);
#769=COLOUR_RGB('Steel - Satin',0.627450980392157,0.627450980392157,0.627450980392157);
ENDSEC;
END-ISO-10303-21;
