ISO-10303-21;
HEADER;
/* Generated by software containing ST-Developer
 * from STEP Tools, Inc. (www.steptools.com) 
 */

FILE_DESCRIPTION(
/* description */ (''),
/* implementation_level */ '2;1');

FILE_NAME(
/* name */ 'Roller.step',
/* time_stamp */ '2026-09-23T19:51:32+05:30',
/* author */ (''),
/* organization */ (''),
/* preprocessor_version */ 'ST-DEVELOPER v20.2',
/* originating_system */ 'Autodesk Translation Framework v15.15.0.0',
/* authorisation */ '');

FILE_SCHEMA (('AUTOMOTIVE_DESIGN { 1 0 10303 214 3 1 1 }'));
ENDSEC;

DATA;
#10=MECHANICAL_DESIGN_GEOMETRIC_PRESENTATION_REPRESENTATION('',(#17),#252);
#11=ITEM_DEFINED_TRANSFORMATION($,$,#132,#148);
#12=(
REPRESENTATION_RELATIONSHIP($,$,#263,#262)
REPRESENTATION_RELATIONSHIP_WITH_TRANSFORMATION(#11)
SHAPE_REPRESENTATION_RELATIONSHIP()
);
#13=CONTEXT_DEPENDENT_SHAPE_REPRESENTATION(#12,#261);
#14=NEXT_ASSEMBLY_USAGE_OCCURRENCE('Component1:1','Component1:1',
'Component1:1',#265,#266,'Component1:1');
#15=SHAPE_REPRESENTATION_RELATIONSHIP('SRR','None',#263,#16);
#16=ADVANCED_BREP_SHAPE_REPRESENTATION('',(#18),#251);
#17=STYLED_ITEM('',(#276),#18);
#18=MANIFOLD_SOLID_BREP('Body1',#118);
#19=LINE('',#232,#22);
#20=LINE('',#239,#23);
#21=LINE('',#245,#24);
#22=VECTOR('',#167,6.000000461936);
#23=VECTOR('',#176,2.000000461936);
#24=VECTOR('',#185,6.000000461936);
#25=CYLINDRICAL_SURFACE('',#139,6.000000461936);
#26=CYLINDRICAL_SURFACE('',#143,2.000000461936);
#27=CYLINDRICAL_SURFACE('',#147,6.000000461936);
#28=(
BOUNDED_CURVE()
B_SPLINE_CURVE(2,(#223,#224,#225),.UNSPECIFIED.,.F.,.F.)
B_SPLINE_CURVE_WITH_KNOTS((3,3),(0.,1.98726494240654),.UNSPECIFIED.)
CURVE()
GEOMETRIC_REPRESENTATION_ITEM()
RATIONAL_B_SPLINE_CURVE((1.,3.,1.))
REPRESENTATION_ITEM('')
);
#29=(
BOUNDED_SURFACE()
B_SPLINE_SURFACE(2,2,((#195,#196,#197,#198,#199,#200,#201,#202,#203),(#204,
#205,#206,#207,#208,#209,#210,#211,#212),(#213,#214,#215,#216,#217,#218,
#219,#220,#221)),.UNSPECIFIED.,.F.,.T.,.F.)
B_SPLINE_SURFACE_WITH_KNOTS((3,3),(3,2,2,2,3),(-1.98726494240654,0.),(0.,
1.5707963267949,3.14159265358979,4.71238898038469,6.28318530717959),
 .UNSPECIFIED.)
GEOMETRIC_REPRESENTATION_ITEM()
RATIONAL_B_SPLINE_SURFACE(((1.,0.707106781186548,1.,0.707106781186548,1.,
0.707106781186548,1.,0.707106781186548,1.),(3.,2.12132034355964,3.,2.12132034355964,
3.,2.12132034355964,3.,2.12132034355964,3.),(1.,0.707106781186548,1.,0.707106781186548,
1.,0.707106781186548,1.,0.707106781186548,1.)))
REPRESENTATION_ITEM('')
SURFACE()
);
#30=FACE_BOUND('',#43,.T.);
#31=FACE_BOUND('',#46,.T.);
#32=FACE_BOUND('',#49,.T.);
#33=FACE_BOUND('',#52,.T.);
#34=FACE_OUTER_BOUND('',#42,.T.);
#35=FACE_OUTER_BOUND('',#44,.T.);
#36=FACE_OUTER_BOUND('',#45,.T.);
#37=FACE_OUTER_BOUND('',#47,.T.);
#38=FACE_OUTER_BOUND('',#48,.T.);
#39=FACE_OUTER_BOUND('',#50,.T.);
#40=FACE_OUTER_BOUND('',#51,.T.);
#41=FACE_OUTER_BOUND('',#53,.T.);
#42=EDGE_LOOP('',(#82));
#43=EDGE_LOOP('',(#83));
#44=EDGE_LOOP('',(#84,#85,#86,#87));
#45=EDGE_LOOP('',(#88));
#46=EDGE_LOOP('',(#89));
#47=EDGE_LOOP('',(#90,#91,#92,#93));
#48=EDGE_LOOP('',(#94));
#49=EDGE_LOOP('',(#95));
#50=EDGE_LOOP('',(#96,#97,#98,#99));
#51=EDGE_LOOP('',(#100));
#52=EDGE_LOOP('',(#101));
#53=EDGE_LOOP('',(#102,#103,#104,#105));
#54=CIRCLE('',#134,10.0000005215406);
#55=CIRCLE('',#135,6.000000461936);
#56=CIRCLE('',#136,10.0000005215406);
#57=CIRCLE('',#138,6.000000461936);
#58=CIRCLE('',#140,6.000000461936);
#59=CIRCLE('',#142,2.000000461936);
#60=CIRCLE('',#144,2.000000461936);
#61=CIRCLE('',#146,6.000000461936);
#62=VERTEX_POINT('',#191);
#63=VERTEX_POINT('',#193);
#64=VERTEX_POINT('',#222);
#65=VERTEX_POINT('',#228);
#66=VERTEX_POINT('',#231);
#67=VERTEX_POINT('',#235);
#68=VERTEX_POINT('',#238);
#69=VERTEX_POINT('',#242);
#70=EDGE_CURVE('',#62,#62,#54,.T.);
#71=EDGE_CURVE('',#63,#63,#55,.T.);
#72=EDGE_CURVE('',#62,#64,#28,.T.);
#73=EDGE_CURVE('',#64,#64,#56,.T.);
#74=EDGE_CURVE('',#65,#65,#57,.T.);
#75=EDGE_CURVE('',#65,#66,#19,.T.);
#76=EDGE_CURVE('',#66,#66,#58,.T.);
#77=EDGE_CURVE('',#67,#67,#59,.T.);
#78=EDGE_CURVE('',#67,#68,#20,.T.);
#79=EDGE_CURVE('',#68,#68,#60,.T.);
#80=EDGE_CURVE('',#69,#69,#61,.T.);
#81=EDGE_CURVE('',#69,#63,#21,.T.);
#82=ORIENTED_EDGE('',*,*,#70,.F.);
#83=ORIENTED_EDGE('',*,*,#71,.T.);
#84=ORIENTED_EDGE('',*,*,#72,.F.);
#85=ORIENTED_EDGE('',*,*,#70,.T.);
#86=ORIENTED_EDGE('',*,*,#72,.T.);
#87=ORIENTED_EDGE('',*,*,#73,.F.);
#88=ORIENTED_EDGE('',*,*,#73,.T.);
#89=ORIENTED_EDGE('',*,*,#74,.F.);
#90=ORIENTED_EDGE('',*,*,#74,.T.);
#91=ORIENTED_EDGE('',*,*,#75,.T.);
#92=ORIENTED_EDGE('',*,*,#76,.F.);
#93=ORIENTED_EDGE('',*,*,#75,.F.);
#94=ORIENTED_EDGE('',*,*,#76,.T.);
#95=ORIENTED_EDGE('',*,*,#77,.F.);
#96=ORIENTED_EDGE('',*,*,#77,.T.);
#97=ORIENTED_EDGE('',*,*,#78,.T.);
#98=ORIENTED_EDGE('',*,*,#79,.F.);
#99=ORIENTED_EDGE('',*,*,#78,.F.);
#100=ORIENTED_EDGE('',*,*,#80,.F.);
#101=ORIENTED_EDGE('',*,*,#79,.T.);
#102=ORIENTED_EDGE('',*,*,#80,.T.);
#103=ORIENTED_EDGE('',*,*,#81,.T.);
#104=ORIENTED_EDGE('',*,*,#71,.F.);
#105=ORIENTED_EDGE('',*,*,#81,.F.);
#106=PLANE('',#133);
#107=PLANE('',#137);
#108=PLANE('',#141);
#109=PLANE('',#145);
#110=ADVANCED_FACE('',(#34,#30),#106,.T.);
#111=ADVANCED_FACE('',(#35),#29,.T.);
#112=ADVANCED_FACE('',(#36,#31),#107,.T.);
#113=ADVANCED_FACE('',(#37),#25,.F.);
#114=ADVANCED_FACE('',(#38,#32),#108,.T.);
#115=ADVANCED_FACE('',(#39),#26,.F.);
#116=ADVANCED_FACE('',(#40,#33),#109,.T.);
#117=ADVANCED_FACE('',(#41),#27,.F.);
#118=CLOSED_SHELL('',(#110,#111,#112,#113,#114,#115,#116,#117));
#119=DERIVED_UNIT_ELEMENT(#121,1.);
#120=DERIVED_UNIT_ELEMENT(#254,-3.);
#121=(
MASS_UNIT()
NAMED_UNIT(*)
SI_UNIT(.KILO.,.GRAM.)
);
#122=DERIVED_UNIT((#119,#120));
#123=MEASURE_REPRESENTATION_ITEM('density measure',
POSITIVE_RATIO_MEASURE(7850.),#122);
#124=PROPERTY_DEFINITION_REPRESENTATION(#129,#126);
#125=PROPERTY_DEFINITION_REPRESENTATION(#130,#127);
#126=REPRESENTATION('material name',(#128),#251);
#127=REPRESENTATION('density',(#123),#251);
#128=DESCRIPTIVE_REPRESENTATION_ITEM('Steel','Steel');
#129=PROPERTY_DEFINITION('material property','material name',#266);
#130=PROPERTY_DEFINITION('material property','density of part',#266);
#131=AXIS2_PLACEMENT_3D('',#188,#149,#150);
#132=AXIS2_PLACEMENT_3D('',#189,#151,#152);
#133=AXIS2_PLACEMENT_3D('',#190,#153,#154);
#134=AXIS2_PLACEMENT_3D('',#192,#155,#156);
#135=AXIS2_PLACEMENT_3D('',#194,#157,#158);
#136=AXIS2_PLACEMENT_3D('',#226,#159,#160);
#137=AXIS2_PLACEMENT_3D('',#227,#161,#162);
#138=AXIS2_PLACEMENT_3D('',#229,#163,#164);
#139=AXIS2_PLACEMENT_3D('',#230,#165,#166);
#140=AXIS2_PLACEMENT_3D('',#233,#168,#169);
#141=AXIS2_PLACEMENT_3D('',#234,#170,#171);
#142=AXIS2_PLACEMENT_3D('',#236,#172,#173);
#143=AXIS2_PLACEMENT_3D('',#237,#174,#175);
#144=AXIS2_PLACEMENT_3D('',#240,#177,#178);
#145=AXIS2_PLACEMENT_3D('',#241,#179,#180);
#146=AXIS2_PLACEMENT_3D('',#243,#181,#182);
#147=AXIS2_PLACEMENT_3D('',#244,#183,#184);
#148=AXIS2_PLACEMENT_3D('',#246,#186,#187);
#149=DIRECTION('axis',(0.,0.,1.));
#150=DIRECTION('refdir',(1.,0.,0.));
#151=DIRECTION('axis',(0.,0.,1.));
#152=DIRECTION('refdir',(1.,0.,0.));
#153=DIRECTION('center_axis',(-1.,0.,0.));
#154=DIRECTION('ref_axis',(0.,0.,1.));
#155=DIRECTION('center_axis',(1.,0.,0.));
#156=DIRECTION('ref_axis',(0.,0.,-1.));
#157=DIRECTION('center_axis',(1.,0.,0.));
#158=DIRECTION('ref_axis',(0.,0.,-1.));
#159=DIRECTION('center_axis',(1.,0.,0.));
#160=DIRECTION('ref_axis',(0.,0.,-1.));
#161=DIRECTION('center_axis',(1.,0.,0.));
#162=DIRECTION('ref_axis',(0.,0.,-1.));
#163=DIRECTION('center_axis',(1.,0.,0.));
#164=DIRECTION('ref_axis',(0.,0.,-1.));
#165=DIRECTION('center_axis',(1.,0.,0.));
#166=DIRECTION('ref_axis',(0.,1.,0.));
#167=DIRECTION('',(-1.,0.,0.));
#168=DIRECTION('center_axis',(1.,0.,0.));
#169=DIRECTION('ref_axis',(0.,0.,-1.));
#170=DIRECTION('center_axis',(1.,0.,0.));
#171=DIRECTION('ref_axis',(0.,0.,-1.));
#172=DIRECTION('center_axis',(1.,0.,0.));
#173=DIRECTION('ref_axis',(0.,0.,-1.));
#174=DIRECTION('center_axis',(1.,0.,0.));
#175=DIRECTION('ref_axis',(0.,1.,0.));
#176=DIRECTION('',(-1.,0.,0.));
#177=DIRECTION('center_axis',(1.,0.,0.));
#178=DIRECTION('ref_axis',(0.,0.,-1.));
#179=DIRECTION('center_axis',(-1.,0.,0.));
#180=DIRECTION('ref_axis',(0.,0.,1.));
#181=DIRECTION('center_axis',(1.,0.,0.));
#182=DIRECTION('ref_axis',(0.,0.,-1.));
#183=DIRECTION('center_axis',(1.,0.,0.));
#184=DIRECTION('ref_axis',(0.,1.,0.));
#185=DIRECTION('',(-1.,0.,0.));
#186=DIRECTION('',(0.,0.,1.));
#187=DIRECTION('',(1.,0.,0.));
#188=CARTESIAN_POINT('',(0.,0.,0.));
#189=CARTESIAN_POINT('',(0.,0.,0.));
#190=CARTESIAN_POINT('Origin',(-74.0000011175871,35.0000005215406,0.));
#191=CARTESIAN_POINT('',(-74.0000011175871,35.0000005215406,0.));
#192=CARTESIAN_POINT('Origin',(-74.0000011175871,25.,0.));
#193=CARTESIAN_POINT('',(-74.0000011175871,18.999999538064,-7.34788136059256E-16));
#194=CARTESIAN_POINT('Origin',(-74.0000011175871,25.,0.));
#195=CARTESIAN_POINT('Ctrl Pts',(-55.0000008195639,35.0000005215406,0.));
#196=CARTESIAN_POINT('Ctrl Pts',(-55.0000008195639,35.0000005215406,10.0000005215406));
#197=CARTESIAN_POINT('Ctrl Pts',(-55.0000008195639,25.,10.0000005215406));
#198=CARTESIAN_POINT('Ctrl Pts',(-55.0000008195639,14.9999994784594,10.0000005215406));
#199=CARTESIAN_POINT('Ctrl Pts',(-55.0000008195639,14.9999994784594,0.));
#200=CARTESIAN_POINT('Ctrl Pts',(-55.0000008195639,14.9999994784594,-10.0000005215406));
#201=CARTESIAN_POINT('Ctrl Pts',(-55.0000008195639,25.,-10.0000005215406));
#202=CARTESIAN_POINT('Ctrl Pts',(-55.0000008195639,35.0000005215406,-10.0000005215406));
#203=CARTESIAN_POINT('Ctrl Pts',(-55.0000008195639,35.0000005215406,0.));
#204=CARTESIAN_POINT('Ctrl Pts',(-64.5061052108611,38.8828503687248,0.));
#205=CARTESIAN_POINT('Ctrl Pts',(-64.5061052108611,38.8828503687248,13.8828503687248));
#206=CARTESIAN_POINT('Ctrl Pts',(-64.5061052108611,25.,13.8828503687248));
#207=CARTESIAN_POINT('Ctrl Pts',(-64.5061052108611,11.1171496312752,13.8828503687248));
#208=CARTESIAN_POINT('Ctrl Pts',(-64.5061052108611,11.1171496312752,0.));
#209=CARTESIAN_POINT('Ctrl Pts',(-64.5061052108611,11.1171496312752,-13.8828503687248));
#210=CARTESIAN_POINT('Ctrl Pts',(-64.5061052108611,25.,-13.8828503687248));
#211=CARTESIAN_POINT('Ctrl Pts',(-64.5061052108611,38.8828503687248,-13.8828503687248));
#212=CARTESIAN_POINT('Ctrl Pts',(-64.5061052108611,38.8828503687248,0.));
#213=CARTESIAN_POINT('Ctrl Pts',(-74.0000011175871,35.0000005215406,0.));
#214=CARTESIAN_POINT('Ctrl Pts',(-74.0000011175871,35.0000005215406,10.0000005215406));
#215=CARTESIAN_POINT('Ctrl Pts',(-74.0000011175871,25.,10.0000005215406));
#216=CARTESIAN_POINT('Ctrl Pts',(-74.0000011175871,14.9999994784594,10.0000005215406));
#217=CARTESIAN_POINT('Ctrl Pts',(-74.0000011175871,14.9999994784594,0.));
#218=CARTESIAN_POINT('Ctrl Pts',(-74.0000011175871,14.9999994784594,-10.0000005215406));
#219=CARTESIAN_POINT('Ctrl Pts',(-74.0000011175871,25.,-10.0000005215406));
#220=CARTESIAN_POINT('Ctrl Pts',(-74.0000011175871,35.0000005215406,-10.0000005215406));
#221=CARTESIAN_POINT('Ctrl Pts',(-74.0000011175871,35.0000005215406,0.));
#222=CARTESIAN_POINT('',(-55.0000008195639,35.0000005215406,0.));
#223=CARTESIAN_POINT('Ctrl Pts',(-74.0000011175871,35.0000005215406,0.));
#224=CARTESIAN_POINT('Ctrl Pts',(-64.5061052108611,38.8828503687248,0.));
#225=CARTESIAN_POINT('Ctrl Pts',(-55.0000008195639,35.0000005215406,0.));
#226=CARTESIAN_POINT('Origin',(-55.0000008195639,25.,0.));
#227=CARTESIAN_POINT('Origin',(-55.0000008195639,31.000000461936,0.));
#228=CARTESIAN_POINT('',(-55.0000008195639,18.999999538064,-7.34788136059256E-16));
#229=CARTESIAN_POINT('Origin',(-55.0000008195639,25.,0.));
#230=CARTESIAN_POINT('Origin',(-56.5000008419156,25.,0.));
#231=CARTESIAN_POINT('',(-58.0000008642673,18.999999538064,-7.34788136059256E-16));
#232=CARTESIAN_POINT('',(-56.5000008419156,18.999999538064,-7.34788136059256E-16));
#233=CARTESIAN_POINT('Origin',(-58.0000008642673,25.,0.));
#234=CARTESIAN_POINT('Origin',(-58.0000008642673,27.000000461936,0.));
#235=CARTESIAN_POINT('',(-58.0000008642673,22.999999538064,-2.44929416400315E-16));
#236=CARTESIAN_POINT('Origin',(-58.0000008642673,25.,0.));
#237=CARTESIAN_POINT('Origin',(-64.5000009611249,25.,0.));
#238=CARTESIAN_POINT('',(-71.0000010579824,22.999999538064,-2.44929416400315E-16));
#239=CARTESIAN_POINT('',(-64.5000009611249,22.999999538064,-2.44929416400315E-16));
#240=CARTESIAN_POINT('Origin',(-71.0000010579824,25.,0.));
#241=CARTESIAN_POINT('Origin',(-71.0000010579824,31.000000461936,0.));
#242=CARTESIAN_POINT('',(-71.0000010579824,18.999999538064,-7.34788136059256E-16));
#243=CARTESIAN_POINT('Origin',(-71.0000010579824,25.,0.));
#244=CARTESIAN_POINT('Origin',(-72.5000010877848,25.,0.));
#245=CARTESIAN_POINT('',(-72.5000010877848,18.999999538064,-7.34788136059256E-16));
#246=CARTESIAN_POINT('',(0.,0.,0.));
#247=UNCERTAINTY_MEASURE_WITH_UNIT(LENGTH_MEASURE(0.01),#253,
'DISTANCE_ACCURACY_VALUE',
'Maximum model space distance between geometric entities at asserted c
onnectivities');
#248=UNCERTAINTY_MEASURE_WITH_UNIT(LENGTH_MEASURE(0.01),#253,
'DISTANCE_ACCURACY_VALUE',
'Maximum model space distance between geometric entities at asserted c
onnectivities');
#249=UNCERTAINTY_MEASURE_WITH_UNIT(LENGTH_MEASURE(0.01),#253,
'DISTANCE_ACCURACY_VALUE',
'Maximum model space distance between geometric entities at asserted c
onnectivities');
#250=(
GEOMETRIC_REPRESENTATION_CONTEXT(3)
GLOBAL_UNCERTAINTY_ASSIGNED_CONTEXT((#247))
GLOBAL_UNIT_ASSIGNED_CONTEXT((#253,#255,#256))
REPRESENTATION_CONTEXT('','3D')
);
#251=(
GEOMETRIC_REPRESENTATION_CONTEXT(3)
GLOBAL_UNCERTAINTY_ASSIGNED_CONTEXT((#248))
GLOBAL_UNIT_ASSIGNED_CONTEXT((#253,#255,#256))
REPRESENTATION_CONTEXT('','3D')
);
#252=(
GEOMETRIC_REPRESENTATION_CONTEXT(3)
GLOBAL_UNCERTAINTY_ASSIGNED_CONTEXT((#249))
GLOBAL_UNIT_ASSIGNED_CONTEXT((#253,#255,#256))
REPRESENTATION_CONTEXT('','3D')
);
#253=(
LENGTH_UNIT()
NAMED_UNIT(*)
SI_UNIT(.MILLI.,.METRE.)
);
#254=(
LENGTH_UNIT()
NAMED_UNIT(*)
SI_UNIT($,.METRE.)
);
#255=(
NAMED_UNIT(*)
PLANE_ANGLE_UNIT()
SI_UNIT($,.RADIAN.)
);
#256=(
NAMED_UNIT(*)
SI_UNIT($,.STERADIAN.)
SOLID_ANGLE_UNIT()
);
#257=SHAPE_DEFINITION_REPRESENTATION(#259,#262);
#258=SHAPE_DEFINITION_REPRESENTATION(#260,#263);
#259=PRODUCT_DEFINITION_SHAPE('',$,#265);
#260=PRODUCT_DEFINITION_SHAPE('',$,#266);
#261=PRODUCT_DEFINITION_SHAPE($,$,#14);
#262=SHAPE_REPRESENTATION('',(#131,#148),#250);
#263=SHAPE_REPRESENTATION('',(#132),#251);
#264=PRODUCT_DEFINITION_CONTEXT('part definition',#272,'design');
#265=PRODUCT_DEFINITION('2026-09-21-20-24-42-214','Roller',#267,#264);
#266=PRODUCT_DEFINITION('2026-09-23-19-50-07-162','Component1',#268,#264);
#267=PRODUCT_DEFINITION_FORMATION('',$,#274);
#268=PRODUCT_DEFINITION_FORMATION('',$,#275);
#269=PRODUCT_RELATED_PRODUCT_CATEGORY('Roller','Roller',(#274));
#270=PRODUCT_RELATED_PRODUCT_CATEGORY('Component1','Component1',(#275));
#271=APPLICATION_PROTOCOL_DEFINITION('international standard',
'automotive_design',2009,#272);
#272=APPLICATION_CONTEXT(
'Core Data for Automotive Mechanical Design Process');
#273=PRODUCT_CONTEXT('part definition',#272,'mechanical');
#274=PRODUCT('2026-09-21-20-24-42-214','Roller',$,(#273));
#275=PRODUCT('2026-09-23-19-50-07-162','Component1',$,(#273));
#276=PRESENTATION_STYLE_ASSIGNMENT((#277));
#277=SURFACE_STYLE_USAGE(.BOTH.,#278);
#278=SURFACE_SIDE_STYLE('',(#279));
#279=SURFACE_STYLE_FILL_AREA(#280);
#280=FILL_AREA_STYLE('Steel - Satin',(#281));
#281=FILL_AREA_STYLE_COLOUR('Steel - Satin',#282);
#282=COLOUR_RGB('Steel - Satin',0.627450980392157,0.627450980392157,0.627450980392157);
ENDSEC;
END-ISO-10303-21;
